G04 #@! TF.GenerationSoftware,KiCad,Pcbnew,(5.1.5-0-10_14)*
G04 #@! TF.CreationDate,2021-02-22T05:02:42+00:00*
G04 #@! TF.ProjectId,esp12f-si7021,65737031-3266-42d7-9369-373032312e6b,rev?*
G04 #@! TF.SameCoordinates,Original*
G04 #@! TF.FileFunction,Legend,Top*
G04 #@! TF.FilePolarity,Positive*
%FSLAX46Y46*%
G04 Gerber Fmt 4.6, Leading zero omitted, Abs format (unit mm)*
G04 Created by KiCad (PCBNEW (5.1.5-0-10_14)) date 2021-02-22 05:02:42*
%MOMM*%
%LPD*%
G04 APERTURE LIST*
%ADD10C,0.200000*%
%ADD11C,0.153000*%
%ADD12C,0.010000*%
%ADD13C,0.120000*%
%ADD14C,0.150000*%
G04 APERTURE END LIST*
D10*
X49876342Y-45962011D02*
X50233485Y-46962011D01*
X50590628Y-45962011D01*
X51947771Y-46962011D02*
X51090628Y-46962011D01*
X51519200Y-46962011D02*
X51519200Y-45462011D01*
X51376342Y-45676297D01*
X51233485Y-45819154D01*
X51090628Y-45890582D01*
X52590628Y-46819154D02*
X52662057Y-46890582D01*
X52590628Y-46962011D01*
X52519200Y-46890582D01*
X52590628Y-46819154D01*
X52590628Y-46962011D01*
X53233485Y-45604868D02*
X53304914Y-45533440D01*
X53447771Y-45462011D01*
X53804914Y-45462011D01*
X53947771Y-45533440D01*
X54019200Y-45604868D01*
X54090628Y-45747725D01*
X54090628Y-45890582D01*
X54019200Y-46104868D01*
X53162057Y-46962011D01*
X54090628Y-46962011D01*
D11*
X23874575Y-15467139D02*
X23255527Y-15467139D01*
X23588860Y-15086186D01*
X23446003Y-15086186D01*
X23350765Y-15038567D01*
X23303146Y-14990948D01*
X23255527Y-14895710D01*
X23255527Y-14657615D01*
X23303146Y-14562377D01*
X23350765Y-14514758D01*
X23446003Y-14467139D01*
X23731718Y-14467139D01*
X23826956Y-14514758D01*
X23874575Y-14562377D01*
X22969813Y-15467139D02*
X22636480Y-14467139D01*
X22303146Y-15467139D01*
X22065051Y-15467139D02*
X21446003Y-15467139D01*
X21779337Y-15086186D01*
X21636480Y-15086186D01*
X21541241Y-15038567D01*
X21493622Y-14990948D01*
X21446003Y-14895710D01*
X21446003Y-14657615D01*
X21493622Y-14562377D01*
X21541241Y-14514758D01*
X21636480Y-14467139D01*
X21922194Y-14467139D01*
X22017432Y-14514758D01*
X22065051Y-14562377D01*
X16245744Y-15389040D02*
X16340982Y-15436659D01*
X16483840Y-15436659D01*
X16626697Y-15389040D01*
X16721935Y-15293801D01*
X16769554Y-15198563D01*
X16817173Y-15008087D01*
X16817173Y-14865230D01*
X16769554Y-14674754D01*
X16721935Y-14579516D01*
X16626697Y-14484278D01*
X16483840Y-14436659D01*
X16388601Y-14436659D01*
X16245744Y-14484278D01*
X16198125Y-14531897D01*
X16198125Y-14865230D01*
X16388601Y-14865230D01*
X15769554Y-14436659D02*
X15769554Y-15436659D01*
X15198125Y-14436659D01*
X15198125Y-15436659D01*
X14721935Y-14436659D02*
X14721935Y-15436659D01*
X14483840Y-15436659D01*
X14340982Y-15389040D01*
X14245744Y-15293801D01*
X14198125Y-15198563D01*
X14150506Y-15008087D01*
X14150506Y-14865230D01*
X14198125Y-14674754D01*
X14245744Y-14579516D01*
X14340982Y-14484278D01*
X14483840Y-14436659D01*
X14721935Y-14436659D01*
X18556836Y-15467139D02*
X17985407Y-15467139D01*
X18271121Y-14467139D02*
X18271121Y-15467139D01*
X17747312Y-14467139D02*
X17223502Y-15133805D01*
X17747312Y-15133805D02*
X17223502Y-14467139D01*
X20232358Y-14497619D02*
X20565691Y-14973809D01*
X20803786Y-14497619D02*
X20803786Y-15497619D01*
X20422834Y-15497619D01*
X20327596Y-15450000D01*
X20279977Y-15402380D01*
X20232358Y-15307142D01*
X20232358Y-15164285D01*
X20279977Y-15069047D01*
X20327596Y-15021428D01*
X20422834Y-14973809D01*
X20803786Y-14973809D01*
X19899024Y-14497619D02*
X19375215Y-15164285D01*
X19899024Y-15164285D02*
X19375215Y-14497619D01*
D12*
G36*
X45920443Y-41090544D02*
G01*
X45998379Y-41091164D01*
X46072089Y-41092294D01*
X46138871Y-41093933D01*
X46196023Y-41096077D01*
X46240844Y-41098722D01*
X46270632Y-41101867D01*
X46282561Y-41105331D01*
X46286870Y-41118072D01*
X46294316Y-41148567D01*
X46304435Y-41194572D01*
X46316762Y-41253843D01*
X46330832Y-41324137D01*
X46346183Y-41403208D01*
X46362348Y-41488813D01*
X46366133Y-41509191D01*
X46387124Y-41621094D01*
X46405117Y-41713750D01*
X46420292Y-41787981D01*
X46432829Y-41844610D01*
X46442908Y-41884460D01*
X46450709Y-41908353D01*
X46455107Y-41916232D01*
X46468202Y-41923931D01*
X46497211Y-41937863D01*
X46539150Y-41956787D01*
X46591039Y-41979461D01*
X46649894Y-42004646D01*
X46712734Y-42031100D01*
X46776576Y-42057582D01*
X46838439Y-42082852D01*
X46895340Y-42105668D01*
X46944298Y-42124791D01*
X46982329Y-42138979D01*
X47006453Y-42146991D01*
X47012897Y-42148320D01*
X47024095Y-42142744D01*
X47050136Y-42126835D01*
X47089152Y-42101823D01*
X47139275Y-42068935D01*
X47198638Y-42029402D01*
X47265373Y-41984451D01*
X47337612Y-41935311D01*
X47361427Y-41919011D01*
X47457366Y-41853638D01*
X47537382Y-41799970D01*
X47601949Y-41757707D01*
X47651538Y-41726550D01*
X47686624Y-41706198D01*
X47707677Y-41696353D01*
X47714007Y-41695427D01*
X47725837Y-41703981D01*
X47749621Y-41725057D01*
X47783467Y-41756748D01*
X47825479Y-41797145D01*
X47873766Y-41844343D01*
X47926432Y-41896432D01*
X47981585Y-41951506D01*
X48037330Y-42007658D01*
X48091775Y-42062980D01*
X48143025Y-42115565D01*
X48189187Y-42163505D01*
X48228368Y-42204892D01*
X48258673Y-42237820D01*
X48278210Y-42260382D01*
X48285084Y-42270665D01*
X48279425Y-42282084D01*
X48263430Y-42308291D01*
X48238349Y-42347386D01*
X48205437Y-42397465D01*
X48165944Y-42456627D01*
X48121124Y-42522970D01*
X48072228Y-42594591D01*
X48061564Y-42610118D01*
X48011952Y-42682716D01*
X47966172Y-42750552D01*
X47925477Y-42811708D01*
X47891120Y-42864262D01*
X47864353Y-42906294D01*
X47846430Y-42935884D01*
X47838603Y-42951110D01*
X47838360Y-42952286D01*
X47842316Y-42966507D01*
X47853355Y-42996365D01*
X47870231Y-43038963D01*
X47891699Y-43091402D01*
X47916514Y-43150785D01*
X47943431Y-43214213D01*
X47971204Y-43278789D01*
X47998589Y-43341615D01*
X48024339Y-43399793D01*
X48047210Y-43450425D01*
X48065957Y-43490613D01*
X48079333Y-43517459D01*
X48085610Y-43527684D01*
X48098637Y-43532744D01*
X48129628Y-43540901D01*
X48176533Y-43551716D01*
X48237305Y-43564750D01*
X48309898Y-43579562D01*
X48392263Y-43595714D01*
X48478465Y-43612041D01*
X48563988Y-43628202D01*
X48643478Y-43643653D01*
X48714655Y-43657919D01*
X48775241Y-43670525D01*
X48822957Y-43680995D01*
X48855525Y-43688855D01*
X48870665Y-43693628D01*
X48871224Y-43693988D01*
X48874835Y-43706896D01*
X48877950Y-43737417D01*
X48880567Y-43782849D01*
X48882682Y-43840490D01*
X48884292Y-43907639D01*
X48885395Y-43981595D01*
X48885986Y-44059656D01*
X48886064Y-44139120D01*
X48885625Y-44217286D01*
X48884666Y-44291453D01*
X48883184Y-44358919D01*
X48881177Y-44416982D01*
X48878640Y-44462941D01*
X48875571Y-44494094D01*
X48872140Y-44507542D01*
X48861458Y-44513478D01*
X48836716Y-44521281D01*
X48796878Y-44531179D01*
X48740911Y-44543399D01*
X48667781Y-44558169D01*
X48576452Y-44575718D01*
X48488600Y-44592094D01*
X48404112Y-44607868D01*
X48325747Y-44622861D01*
X48255798Y-44636606D01*
X48196558Y-44648638D01*
X48150322Y-44658491D01*
X48119381Y-44665697D01*
X48106029Y-44669792D01*
X48105862Y-44669908D01*
X48099241Y-44681414D01*
X48086434Y-44709082D01*
X48068566Y-44750115D01*
X48046764Y-44801716D01*
X48022154Y-44861088D01*
X47995862Y-44925434D01*
X47969014Y-44991958D01*
X47942736Y-45057863D01*
X47918154Y-45120352D01*
X47896394Y-45176627D01*
X47878582Y-45223892D01*
X47865844Y-45259351D01*
X47859306Y-45280206D01*
X47858680Y-45283861D01*
X47864258Y-45295751D01*
X47880131Y-45322350D01*
X47905009Y-45361674D01*
X47937601Y-45411739D01*
X47976614Y-45470561D01*
X48020758Y-45536157D01*
X48067735Y-45605075D01*
X48115839Y-45675392D01*
X48160355Y-45740806D01*
X48199955Y-45799336D01*
X48233308Y-45849004D01*
X48259086Y-45887829D01*
X48275959Y-45913833D01*
X48282567Y-45924952D01*
X48277074Y-45935700D01*
X48258730Y-45958576D01*
X48229407Y-45991707D01*
X48190979Y-46033216D01*
X48145317Y-46081230D01*
X48094294Y-46133872D01*
X48039783Y-46189268D01*
X47983657Y-46245543D01*
X47927788Y-46300823D01*
X47874049Y-46353232D01*
X47824314Y-46400894D01*
X47780453Y-46441937D01*
X47744341Y-46474483D01*
X47717850Y-46496660D01*
X47702852Y-46506590D01*
X47701268Y-46506945D01*
X47687539Y-46501351D01*
X47659721Y-46485630D01*
X47620333Y-46461366D01*
X47571894Y-46430140D01*
X47516923Y-46393536D01*
X47472600Y-46363282D01*
X47408303Y-46319027D01*
X47343232Y-46274405D01*
X47281283Y-46232071D01*
X47226348Y-46194687D01*
X47182324Y-46164910D01*
X47165951Y-46153926D01*
X47067583Y-46088221D01*
X46914863Y-46168050D01*
X46858400Y-46197301D01*
X46817069Y-46217868D01*
X46788160Y-46230795D01*
X46768964Y-46237125D01*
X46756772Y-46237903D01*
X46748876Y-46234172D01*
X46747238Y-46232640D01*
X46740630Y-46220545D01*
X46727183Y-46191504D01*
X46707676Y-46147399D01*
X46682887Y-46090110D01*
X46653592Y-46021519D01*
X46620571Y-45943507D01*
X46584601Y-45857954D01*
X46546460Y-45766743D01*
X46506926Y-45671753D01*
X46466777Y-45574867D01*
X46426791Y-45477965D01*
X46387746Y-45382928D01*
X46350419Y-45291637D01*
X46315590Y-45205974D01*
X46284034Y-45127820D01*
X46256532Y-45059056D01*
X46233860Y-45001562D01*
X46216796Y-44957220D01*
X46206119Y-44927911D01*
X46202600Y-44915670D01*
X46208882Y-44900817D01*
X46228950Y-44881111D01*
X46264633Y-44854910D01*
X46286420Y-44840468D01*
X46327528Y-44811000D01*
X46376109Y-44771870D01*
X46425862Y-44728357D01*
X46467291Y-44688951D01*
X46509911Y-44645303D01*
X46541578Y-44609651D01*
X46566419Y-44576365D01*
X46588558Y-44539817D01*
X46612120Y-44494379D01*
X46616685Y-44485120D01*
X46650501Y-44412637D01*
X46674616Y-44350521D01*
X46690570Y-44292210D01*
X46699902Y-44231145D01*
X46704154Y-44160762D01*
X46704915Y-44109200D01*
X46704493Y-44046558D01*
X46702302Y-43998256D01*
X46697721Y-43958343D01*
X46690126Y-43920871D01*
X46682070Y-43890760D01*
X46636281Y-43766501D01*
X46573959Y-43652973D01*
X46496419Y-43551465D01*
X46404970Y-43463264D01*
X46300927Y-43389659D01*
X46185599Y-43331939D01*
X46075600Y-43295250D01*
X45994533Y-43280222D01*
X45903039Y-43273449D01*
X45809051Y-43274925D01*
X45720503Y-43284645D01*
X45669200Y-43295494D01*
X45549183Y-43337087D01*
X45438755Y-43394833D01*
X45339130Y-43466967D01*
X45251525Y-43551727D01*
X45177156Y-43647345D01*
X45117239Y-43752059D01*
X45072991Y-43864103D01*
X45045628Y-43981713D01*
X45036365Y-44103123D01*
X45043088Y-44203964D01*
X45068381Y-44330922D01*
X45109649Y-44447261D01*
X45167685Y-44554235D01*
X45243280Y-44653097D01*
X45337225Y-44745100D01*
X45430440Y-44817675D01*
X45471263Y-44847147D01*
X45506036Y-44873308D01*
X45531343Y-44893512D01*
X45543769Y-44905115D01*
X45544236Y-44905810D01*
X45545608Y-44908379D01*
X45546401Y-44911596D01*
X45546128Y-44916686D01*
X45544305Y-44924873D01*
X45540446Y-44937381D01*
X45534066Y-44955437D01*
X45524680Y-44980263D01*
X45511803Y-45013085D01*
X45494948Y-45055128D01*
X45473631Y-45107616D01*
X45447366Y-45171773D01*
X45415668Y-45248825D01*
X45378052Y-45339995D01*
X45334032Y-45446509D01*
X45283123Y-45569591D01*
X45236839Y-45681464D01*
X45181574Y-45814478D01*
X45133559Y-45928828D01*
X45092672Y-46024790D01*
X45058792Y-46102638D01*
X45031799Y-46162644D01*
X45011572Y-46205084D01*
X44997991Y-46230231D01*
X44991369Y-46238298D01*
X44975515Y-46235700D01*
X44944726Y-46223738D01*
X44901489Y-46203509D01*
X44848288Y-46176108D01*
X44838969Y-46171105D01*
X44790145Y-46145492D01*
X44746200Y-46123804D01*
X44710859Y-46107778D01*
X44687844Y-46099148D01*
X44682485Y-46098141D01*
X44669345Y-46103712D01*
X44641596Y-46119607D01*
X44601290Y-46144513D01*
X44550475Y-46177116D01*
X44491203Y-46216105D01*
X44425522Y-46260166D01*
X44363472Y-46302490D01*
X44293821Y-46349957D01*
X44228764Y-46393525D01*
X44170348Y-46431879D01*
X44120623Y-46463706D01*
X44081638Y-46487693D01*
X44055444Y-46502524D01*
X44044557Y-46506960D01*
X44031350Y-46500102D01*
X44005441Y-46479398D01*
X43966614Y-46444649D01*
X43914658Y-46395658D01*
X43849360Y-46332227D01*
X43770506Y-46254159D01*
X43746350Y-46230031D01*
X43664375Y-46147456D01*
X43596563Y-46077938D01*
X43543055Y-46021628D01*
X43503989Y-45978677D01*
X43479506Y-45949235D01*
X43469746Y-45933452D01*
X43469560Y-45932217D01*
X43475150Y-45919264D01*
X43491057Y-45891661D01*
X43515982Y-45851430D01*
X43548626Y-45800593D01*
X43587692Y-45741174D01*
X43631881Y-45675195D01*
X43677840Y-45607676D01*
X43725721Y-45537311D01*
X43769724Y-45471569D01*
X43808550Y-45412474D01*
X43840903Y-45362047D01*
X43865482Y-45322311D01*
X43880990Y-45295287D01*
X43886139Y-45283190D01*
X43882390Y-45267576D01*
X43871905Y-45236167D01*
X43855842Y-45191860D01*
X43835360Y-45137552D01*
X43811619Y-45076140D01*
X43785778Y-45010521D01*
X43758997Y-44943591D01*
X43732433Y-44878246D01*
X43707248Y-44817384D01*
X43684599Y-44763901D01*
X43665646Y-44720695D01*
X43651549Y-44690660D01*
X43643466Y-44676696D01*
X43643402Y-44676630D01*
X43630624Y-44670092D01*
X43602623Y-44661557D01*
X43558482Y-44650821D01*
X43497282Y-44637680D01*
X43418108Y-44621930D01*
X43320042Y-44603366D01*
X43286680Y-44597196D01*
X43185153Y-44578490D01*
X43101782Y-44563023D01*
X43034737Y-44550339D01*
X42982191Y-44539983D01*
X42942317Y-44531502D01*
X42913287Y-44524441D01*
X42893274Y-44518345D01*
X42880451Y-44512760D01*
X42872989Y-44507232D01*
X42869061Y-44501305D01*
X42866841Y-44494526D01*
X42866343Y-44492661D01*
X42864948Y-44477554D01*
X42863658Y-44444545D01*
X42862511Y-44396052D01*
X42861543Y-44334494D01*
X42860794Y-44262289D01*
X42860300Y-44181856D01*
X42860099Y-44095611D01*
X42860098Y-44093361D01*
X42860231Y-43989075D01*
X42860748Y-43903564D01*
X42861697Y-43835289D01*
X42863129Y-43782709D01*
X42865091Y-43744283D01*
X42867633Y-43718470D01*
X42870805Y-43703729D01*
X42872660Y-43700006D01*
X42881820Y-43694302D01*
X42902505Y-43687185D01*
X42936055Y-43678357D01*
X42983814Y-43667519D01*
X43047121Y-43654372D01*
X43127320Y-43638618D01*
X43225751Y-43619958D01*
X43265174Y-43612608D01*
X43368706Y-43593184D01*
X43453768Y-43576771D01*
X43521928Y-43563018D01*
X43574757Y-43551572D01*
X43613823Y-43542082D01*
X43640695Y-43534194D01*
X43656943Y-43527558D01*
X43662939Y-43523362D01*
X43671998Y-43508758D01*
X43687308Y-43478394D01*
X43707601Y-43435235D01*
X43731610Y-43382248D01*
X43758064Y-43322400D01*
X43785697Y-43258655D01*
X43813241Y-43193981D01*
X43839426Y-43131344D01*
X43862985Y-43073709D01*
X43882650Y-43024044D01*
X43897151Y-42985313D01*
X43905222Y-42960483D01*
X43906460Y-42953816D01*
X43900817Y-42940327D01*
X43884693Y-42912071D01*
X43859283Y-42870908D01*
X43825781Y-42818703D01*
X43785382Y-42757318D01*
X43739280Y-42688616D01*
X43691474Y-42618536D01*
X43642576Y-42546957D01*
X43597321Y-42479865D01*
X43557024Y-42419272D01*
X43523000Y-42367194D01*
X43496565Y-42325644D01*
X43479034Y-42296637D01*
X43471721Y-42282186D01*
X43471643Y-42281858D01*
X43472197Y-42273911D01*
X43477415Y-42262636D01*
X43488523Y-42246679D01*
X43506750Y-42224684D01*
X43533321Y-42195293D01*
X43569465Y-42157153D01*
X43616407Y-42108906D01*
X43675375Y-42049197D01*
X43747596Y-41976671D01*
X43750108Y-41974155D01*
X43826433Y-41898211D01*
X43892788Y-41833212D01*
X43948453Y-41779834D01*
X43992704Y-41738754D01*
X44024819Y-41710646D01*
X44044076Y-41696189D01*
X44049103Y-41694332D01*
X44060775Y-41700818D01*
X44087205Y-41717580D01*
X44126448Y-41743319D01*
X44176558Y-41776737D01*
X44235593Y-41816538D01*
X44301606Y-41861423D01*
X44372653Y-41910094D01*
X44379303Y-41914668D01*
X44451194Y-41963921D01*
X44518657Y-42009744D01*
X44579672Y-42050795D01*
X44632215Y-42085730D01*
X44674266Y-42113204D01*
X44703801Y-42131875D01*
X44718800Y-42140398D01*
X44719240Y-42140575D01*
X44729593Y-42142329D01*
X44744983Y-42140715D01*
X44767527Y-42135007D01*
X44799339Y-42124481D01*
X44842537Y-42108414D01*
X44899238Y-42086081D01*
X44971557Y-42056757D01*
X45008800Y-42041482D01*
X45077851Y-42013097D01*
X45141062Y-41987118D01*
X45195906Y-41964584D01*
X45239858Y-41946532D01*
X45270392Y-41934001D01*
X45284981Y-41928026D01*
X45285567Y-41927788D01*
X45290659Y-41924569D01*
X45295578Y-41918029D01*
X45300719Y-41906405D01*
X45306481Y-41887937D01*
X45313259Y-41860864D01*
X45321450Y-41823424D01*
X45331451Y-41773857D01*
X45343660Y-41710400D01*
X45358472Y-41631293D01*
X45376285Y-41534775D01*
X45385817Y-41482840D01*
X45405526Y-41376786D01*
X45422302Y-41289766D01*
X45436375Y-41220740D01*
X45447972Y-41168668D01*
X45457322Y-41132511D01*
X45464654Y-41111230D01*
X45468998Y-41104380D01*
X45483486Y-41100794D01*
X45515362Y-41097745D01*
X45561922Y-41095230D01*
X45620466Y-41093245D01*
X45688291Y-41091787D01*
X45762697Y-41090853D01*
X45840981Y-41090440D01*
X45920443Y-41090544D01*
G37*
X45920443Y-41090544D02*
X45998379Y-41091164D01*
X46072089Y-41092294D01*
X46138871Y-41093933D01*
X46196023Y-41096077D01*
X46240844Y-41098722D01*
X46270632Y-41101867D01*
X46282561Y-41105331D01*
X46286870Y-41118072D01*
X46294316Y-41148567D01*
X46304435Y-41194572D01*
X46316762Y-41253843D01*
X46330832Y-41324137D01*
X46346183Y-41403208D01*
X46362348Y-41488813D01*
X46366133Y-41509191D01*
X46387124Y-41621094D01*
X46405117Y-41713750D01*
X46420292Y-41787981D01*
X46432829Y-41844610D01*
X46442908Y-41884460D01*
X46450709Y-41908353D01*
X46455107Y-41916232D01*
X46468202Y-41923931D01*
X46497211Y-41937863D01*
X46539150Y-41956787D01*
X46591039Y-41979461D01*
X46649894Y-42004646D01*
X46712734Y-42031100D01*
X46776576Y-42057582D01*
X46838439Y-42082852D01*
X46895340Y-42105668D01*
X46944298Y-42124791D01*
X46982329Y-42138979D01*
X47006453Y-42146991D01*
X47012897Y-42148320D01*
X47024095Y-42142744D01*
X47050136Y-42126835D01*
X47089152Y-42101823D01*
X47139275Y-42068935D01*
X47198638Y-42029402D01*
X47265373Y-41984451D01*
X47337612Y-41935311D01*
X47361427Y-41919011D01*
X47457366Y-41853638D01*
X47537382Y-41799970D01*
X47601949Y-41757707D01*
X47651538Y-41726550D01*
X47686624Y-41706198D01*
X47707677Y-41696353D01*
X47714007Y-41695427D01*
X47725837Y-41703981D01*
X47749621Y-41725057D01*
X47783467Y-41756748D01*
X47825479Y-41797145D01*
X47873766Y-41844343D01*
X47926432Y-41896432D01*
X47981585Y-41951506D01*
X48037330Y-42007658D01*
X48091775Y-42062980D01*
X48143025Y-42115565D01*
X48189187Y-42163505D01*
X48228368Y-42204892D01*
X48258673Y-42237820D01*
X48278210Y-42260382D01*
X48285084Y-42270665D01*
X48279425Y-42282084D01*
X48263430Y-42308291D01*
X48238349Y-42347386D01*
X48205437Y-42397465D01*
X48165944Y-42456627D01*
X48121124Y-42522970D01*
X48072228Y-42594591D01*
X48061564Y-42610118D01*
X48011952Y-42682716D01*
X47966172Y-42750552D01*
X47925477Y-42811708D01*
X47891120Y-42864262D01*
X47864353Y-42906294D01*
X47846430Y-42935884D01*
X47838603Y-42951110D01*
X47838360Y-42952286D01*
X47842316Y-42966507D01*
X47853355Y-42996365D01*
X47870231Y-43038963D01*
X47891699Y-43091402D01*
X47916514Y-43150785D01*
X47943431Y-43214213D01*
X47971204Y-43278789D01*
X47998589Y-43341615D01*
X48024339Y-43399793D01*
X48047210Y-43450425D01*
X48065957Y-43490613D01*
X48079333Y-43517459D01*
X48085610Y-43527684D01*
X48098637Y-43532744D01*
X48129628Y-43540901D01*
X48176533Y-43551716D01*
X48237305Y-43564750D01*
X48309898Y-43579562D01*
X48392263Y-43595714D01*
X48478465Y-43612041D01*
X48563988Y-43628202D01*
X48643478Y-43643653D01*
X48714655Y-43657919D01*
X48775241Y-43670525D01*
X48822957Y-43680995D01*
X48855525Y-43688855D01*
X48870665Y-43693628D01*
X48871224Y-43693988D01*
X48874835Y-43706896D01*
X48877950Y-43737417D01*
X48880567Y-43782849D01*
X48882682Y-43840490D01*
X48884292Y-43907639D01*
X48885395Y-43981595D01*
X48885986Y-44059656D01*
X48886064Y-44139120D01*
X48885625Y-44217286D01*
X48884666Y-44291453D01*
X48883184Y-44358919D01*
X48881177Y-44416982D01*
X48878640Y-44462941D01*
X48875571Y-44494094D01*
X48872140Y-44507542D01*
X48861458Y-44513478D01*
X48836716Y-44521281D01*
X48796878Y-44531179D01*
X48740911Y-44543399D01*
X48667781Y-44558169D01*
X48576452Y-44575718D01*
X48488600Y-44592094D01*
X48404112Y-44607868D01*
X48325747Y-44622861D01*
X48255798Y-44636606D01*
X48196558Y-44648638D01*
X48150322Y-44658491D01*
X48119381Y-44665697D01*
X48106029Y-44669792D01*
X48105862Y-44669908D01*
X48099241Y-44681414D01*
X48086434Y-44709082D01*
X48068566Y-44750115D01*
X48046764Y-44801716D01*
X48022154Y-44861088D01*
X47995862Y-44925434D01*
X47969014Y-44991958D01*
X47942736Y-45057863D01*
X47918154Y-45120352D01*
X47896394Y-45176627D01*
X47878582Y-45223892D01*
X47865844Y-45259351D01*
X47859306Y-45280206D01*
X47858680Y-45283861D01*
X47864258Y-45295751D01*
X47880131Y-45322350D01*
X47905009Y-45361674D01*
X47937601Y-45411739D01*
X47976614Y-45470561D01*
X48020758Y-45536157D01*
X48067735Y-45605075D01*
X48115839Y-45675392D01*
X48160355Y-45740806D01*
X48199955Y-45799336D01*
X48233308Y-45849004D01*
X48259086Y-45887829D01*
X48275959Y-45913833D01*
X48282567Y-45924952D01*
X48277074Y-45935700D01*
X48258730Y-45958576D01*
X48229407Y-45991707D01*
X48190979Y-46033216D01*
X48145317Y-46081230D01*
X48094294Y-46133872D01*
X48039783Y-46189268D01*
X47983657Y-46245543D01*
X47927788Y-46300823D01*
X47874049Y-46353232D01*
X47824314Y-46400894D01*
X47780453Y-46441937D01*
X47744341Y-46474483D01*
X47717850Y-46496660D01*
X47702852Y-46506590D01*
X47701268Y-46506945D01*
X47687539Y-46501351D01*
X47659721Y-46485630D01*
X47620333Y-46461366D01*
X47571894Y-46430140D01*
X47516923Y-46393536D01*
X47472600Y-46363282D01*
X47408303Y-46319027D01*
X47343232Y-46274405D01*
X47281283Y-46232071D01*
X47226348Y-46194687D01*
X47182324Y-46164910D01*
X47165951Y-46153926D01*
X47067583Y-46088221D01*
X46914863Y-46168050D01*
X46858400Y-46197301D01*
X46817069Y-46217868D01*
X46788160Y-46230795D01*
X46768964Y-46237125D01*
X46756772Y-46237903D01*
X46748876Y-46234172D01*
X46747238Y-46232640D01*
X46740630Y-46220545D01*
X46727183Y-46191504D01*
X46707676Y-46147399D01*
X46682887Y-46090110D01*
X46653592Y-46021519D01*
X46620571Y-45943507D01*
X46584601Y-45857954D01*
X46546460Y-45766743D01*
X46506926Y-45671753D01*
X46466777Y-45574867D01*
X46426791Y-45477965D01*
X46387746Y-45382928D01*
X46350419Y-45291637D01*
X46315590Y-45205974D01*
X46284034Y-45127820D01*
X46256532Y-45059056D01*
X46233860Y-45001562D01*
X46216796Y-44957220D01*
X46206119Y-44927911D01*
X46202600Y-44915670D01*
X46208882Y-44900817D01*
X46228950Y-44881111D01*
X46264633Y-44854910D01*
X46286420Y-44840468D01*
X46327528Y-44811000D01*
X46376109Y-44771870D01*
X46425862Y-44728357D01*
X46467291Y-44688951D01*
X46509911Y-44645303D01*
X46541578Y-44609651D01*
X46566419Y-44576365D01*
X46588558Y-44539817D01*
X46612120Y-44494379D01*
X46616685Y-44485120D01*
X46650501Y-44412637D01*
X46674616Y-44350521D01*
X46690570Y-44292210D01*
X46699902Y-44231145D01*
X46704154Y-44160762D01*
X46704915Y-44109200D01*
X46704493Y-44046558D01*
X46702302Y-43998256D01*
X46697721Y-43958343D01*
X46690126Y-43920871D01*
X46682070Y-43890760D01*
X46636281Y-43766501D01*
X46573959Y-43652973D01*
X46496419Y-43551465D01*
X46404970Y-43463264D01*
X46300927Y-43389659D01*
X46185599Y-43331939D01*
X46075600Y-43295250D01*
X45994533Y-43280222D01*
X45903039Y-43273449D01*
X45809051Y-43274925D01*
X45720503Y-43284645D01*
X45669200Y-43295494D01*
X45549183Y-43337087D01*
X45438755Y-43394833D01*
X45339130Y-43466967D01*
X45251525Y-43551727D01*
X45177156Y-43647345D01*
X45117239Y-43752059D01*
X45072991Y-43864103D01*
X45045628Y-43981713D01*
X45036365Y-44103123D01*
X45043088Y-44203964D01*
X45068381Y-44330922D01*
X45109649Y-44447261D01*
X45167685Y-44554235D01*
X45243280Y-44653097D01*
X45337225Y-44745100D01*
X45430440Y-44817675D01*
X45471263Y-44847147D01*
X45506036Y-44873308D01*
X45531343Y-44893512D01*
X45543769Y-44905115D01*
X45544236Y-44905810D01*
X45545608Y-44908379D01*
X45546401Y-44911596D01*
X45546128Y-44916686D01*
X45544305Y-44924873D01*
X45540446Y-44937381D01*
X45534066Y-44955437D01*
X45524680Y-44980263D01*
X45511803Y-45013085D01*
X45494948Y-45055128D01*
X45473631Y-45107616D01*
X45447366Y-45171773D01*
X45415668Y-45248825D01*
X45378052Y-45339995D01*
X45334032Y-45446509D01*
X45283123Y-45569591D01*
X45236839Y-45681464D01*
X45181574Y-45814478D01*
X45133559Y-45928828D01*
X45092672Y-46024790D01*
X45058792Y-46102638D01*
X45031799Y-46162644D01*
X45011572Y-46205084D01*
X44997991Y-46230231D01*
X44991369Y-46238298D01*
X44975515Y-46235700D01*
X44944726Y-46223738D01*
X44901489Y-46203509D01*
X44848288Y-46176108D01*
X44838969Y-46171105D01*
X44790145Y-46145492D01*
X44746200Y-46123804D01*
X44710859Y-46107778D01*
X44687844Y-46099148D01*
X44682485Y-46098141D01*
X44669345Y-46103712D01*
X44641596Y-46119607D01*
X44601290Y-46144513D01*
X44550475Y-46177116D01*
X44491203Y-46216105D01*
X44425522Y-46260166D01*
X44363472Y-46302490D01*
X44293821Y-46349957D01*
X44228764Y-46393525D01*
X44170348Y-46431879D01*
X44120623Y-46463706D01*
X44081638Y-46487693D01*
X44055444Y-46502524D01*
X44044557Y-46506960D01*
X44031350Y-46500102D01*
X44005441Y-46479398D01*
X43966614Y-46444649D01*
X43914658Y-46395658D01*
X43849360Y-46332227D01*
X43770506Y-46254159D01*
X43746350Y-46230031D01*
X43664375Y-46147456D01*
X43596563Y-46077938D01*
X43543055Y-46021628D01*
X43503989Y-45978677D01*
X43479506Y-45949235D01*
X43469746Y-45933452D01*
X43469560Y-45932217D01*
X43475150Y-45919264D01*
X43491057Y-45891661D01*
X43515982Y-45851430D01*
X43548626Y-45800593D01*
X43587692Y-45741174D01*
X43631881Y-45675195D01*
X43677840Y-45607676D01*
X43725721Y-45537311D01*
X43769724Y-45471569D01*
X43808550Y-45412474D01*
X43840903Y-45362047D01*
X43865482Y-45322311D01*
X43880990Y-45295287D01*
X43886139Y-45283190D01*
X43882390Y-45267576D01*
X43871905Y-45236167D01*
X43855842Y-45191860D01*
X43835360Y-45137552D01*
X43811619Y-45076140D01*
X43785778Y-45010521D01*
X43758997Y-44943591D01*
X43732433Y-44878246D01*
X43707248Y-44817384D01*
X43684599Y-44763901D01*
X43665646Y-44720695D01*
X43651549Y-44690660D01*
X43643466Y-44676696D01*
X43643402Y-44676630D01*
X43630624Y-44670092D01*
X43602623Y-44661557D01*
X43558482Y-44650821D01*
X43497282Y-44637680D01*
X43418108Y-44621930D01*
X43320042Y-44603366D01*
X43286680Y-44597196D01*
X43185153Y-44578490D01*
X43101782Y-44563023D01*
X43034737Y-44550339D01*
X42982191Y-44539983D01*
X42942317Y-44531502D01*
X42913287Y-44524441D01*
X42893274Y-44518345D01*
X42880451Y-44512760D01*
X42872989Y-44507232D01*
X42869061Y-44501305D01*
X42866841Y-44494526D01*
X42866343Y-44492661D01*
X42864948Y-44477554D01*
X42863658Y-44444545D01*
X42862511Y-44396052D01*
X42861543Y-44334494D01*
X42860794Y-44262289D01*
X42860300Y-44181856D01*
X42860099Y-44095611D01*
X42860098Y-44093361D01*
X42860231Y-43989075D01*
X42860748Y-43903564D01*
X42861697Y-43835289D01*
X42863129Y-43782709D01*
X42865091Y-43744283D01*
X42867633Y-43718470D01*
X42870805Y-43703729D01*
X42872660Y-43700006D01*
X42881820Y-43694302D01*
X42902505Y-43687185D01*
X42936055Y-43678357D01*
X42983814Y-43667519D01*
X43047121Y-43654372D01*
X43127320Y-43638618D01*
X43225751Y-43619958D01*
X43265174Y-43612608D01*
X43368706Y-43593184D01*
X43453768Y-43576771D01*
X43521928Y-43563018D01*
X43574757Y-43551572D01*
X43613823Y-43542082D01*
X43640695Y-43534194D01*
X43656943Y-43527558D01*
X43662939Y-43523362D01*
X43671998Y-43508758D01*
X43687308Y-43478394D01*
X43707601Y-43435235D01*
X43731610Y-43382248D01*
X43758064Y-43322400D01*
X43785697Y-43258655D01*
X43813241Y-43193981D01*
X43839426Y-43131344D01*
X43862985Y-43073709D01*
X43882650Y-43024044D01*
X43897151Y-42985313D01*
X43905222Y-42960483D01*
X43906460Y-42953816D01*
X43900817Y-42940327D01*
X43884693Y-42912071D01*
X43859283Y-42870908D01*
X43825781Y-42818703D01*
X43785382Y-42757318D01*
X43739280Y-42688616D01*
X43691474Y-42618536D01*
X43642576Y-42546957D01*
X43597321Y-42479865D01*
X43557024Y-42419272D01*
X43523000Y-42367194D01*
X43496565Y-42325644D01*
X43479034Y-42296637D01*
X43471721Y-42282186D01*
X43471643Y-42281858D01*
X43472197Y-42273911D01*
X43477415Y-42262636D01*
X43488523Y-42246679D01*
X43506750Y-42224684D01*
X43533321Y-42195293D01*
X43569465Y-42157153D01*
X43616407Y-42108906D01*
X43675375Y-42049197D01*
X43747596Y-41976671D01*
X43750108Y-41974155D01*
X43826433Y-41898211D01*
X43892788Y-41833212D01*
X43948453Y-41779834D01*
X43992704Y-41738754D01*
X44024819Y-41710646D01*
X44044076Y-41696189D01*
X44049103Y-41694332D01*
X44060775Y-41700818D01*
X44087205Y-41717580D01*
X44126448Y-41743319D01*
X44176558Y-41776737D01*
X44235593Y-41816538D01*
X44301606Y-41861423D01*
X44372653Y-41910094D01*
X44379303Y-41914668D01*
X44451194Y-41963921D01*
X44518657Y-42009744D01*
X44579672Y-42050795D01*
X44632215Y-42085730D01*
X44674266Y-42113204D01*
X44703801Y-42131875D01*
X44718800Y-42140398D01*
X44719240Y-42140575D01*
X44729593Y-42142329D01*
X44744983Y-42140715D01*
X44767527Y-42135007D01*
X44799339Y-42124481D01*
X44842537Y-42108414D01*
X44899238Y-42086081D01*
X44971557Y-42056757D01*
X45008800Y-42041482D01*
X45077851Y-42013097D01*
X45141062Y-41987118D01*
X45195906Y-41964584D01*
X45239858Y-41946532D01*
X45270392Y-41934001D01*
X45284981Y-41928026D01*
X45285567Y-41927788D01*
X45290659Y-41924569D01*
X45295578Y-41918029D01*
X45300719Y-41906405D01*
X45306481Y-41887937D01*
X45313259Y-41860864D01*
X45321450Y-41823424D01*
X45331451Y-41773857D01*
X45343660Y-41710400D01*
X45358472Y-41631293D01*
X45376285Y-41534775D01*
X45385817Y-41482840D01*
X45405526Y-41376786D01*
X45422302Y-41289766D01*
X45436375Y-41220740D01*
X45447972Y-41168668D01*
X45457322Y-41132511D01*
X45464654Y-41111230D01*
X45468998Y-41104380D01*
X45483486Y-41100794D01*
X45515362Y-41097745D01*
X45561922Y-41095230D01*
X45620466Y-41093245D01*
X45688291Y-41091787D01*
X45762697Y-41090853D01*
X45840981Y-41090440D01*
X45920443Y-41090544D01*
G36*
X47255715Y-27749466D02*
G01*
X47309716Y-27787482D01*
X47347104Y-27844802D01*
X47357435Y-27903431D01*
X47353765Y-27918406D01*
X47332417Y-27943217D01*
X47281902Y-27990444D01*
X47208985Y-28054532D01*
X47120433Y-28129924D01*
X47023012Y-28211062D01*
X46923487Y-28292392D01*
X46828626Y-28368355D01*
X46745193Y-28433395D01*
X46679956Y-28481955D01*
X46639680Y-28508479D01*
X46631275Y-28511753D01*
X46599717Y-28496291D01*
X46556655Y-28458721D01*
X46553335Y-28455237D01*
X46520702Y-28412397D01*
X46505597Y-28365713D01*
X46508969Y-28306758D01*
X46518270Y-28274260D01*
X46679017Y-28274260D01*
X46682374Y-28280844D01*
X46705197Y-28267096D01*
X46756233Y-28229609D01*
X46828059Y-28174016D01*
X46913249Y-28105947D01*
X46918255Y-28101889D01*
X47009460Y-28026917D01*
X47068122Y-27975567D01*
X47098278Y-27943272D01*
X47103968Y-27925467D01*
X47089228Y-27917586D01*
X47082176Y-27916557D01*
X46990236Y-27921252D01*
X46896708Y-27949977D01*
X46818661Y-27995818D01*
X46779380Y-28039233D01*
X46742519Y-28108123D01*
X46710377Y-28178048D01*
X46687646Y-28237323D01*
X46679017Y-28274260D01*
X46518270Y-28274260D01*
X46531767Y-28227103D01*
X46574939Y-28118321D01*
X46596997Y-28067333D01*
X46648618Y-27956118D01*
X46689758Y-27883365D01*
X46723902Y-27843518D01*
X46744202Y-27832572D01*
X46896075Y-27793288D01*
X47031426Y-27764638D01*
X47142869Y-27747823D01*
X47223019Y-27744042D01*
X47255715Y-27749466D01*
G37*
X47255715Y-27749466D02*
X47309716Y-27787482D01*
X47347104Y-27844802D01*
X47357435Y-27903431D01*
X47353765Y-27918406D01*
X47332417Y-27943217D01*
X47281902Y-27990444D01*
X47208985Y-28054532D01*
X47120433Y-28129924D01*
X47023012Y-28211062D01*
X46923487Y-28292392D01*
X46828626Y-28368355D01*
X46745193Y-28433395D01*
X46679956Y-28481955D01*
X46639680Y-28508479D01*
X46631275Y-28511753D01*
X46599717Y-28496291D01*
X46556655Y-28458721D01*
X46553335Y-28455237D01*
X46520702Y-28412397D01*
X46505597Y-28365713D01*
X46508969Y-28306758D01*
X46518270Y-28274260D01*
X46679017Y-28274260D01*
X46682374Y-28280844D01*
X46705197Y-28267096D01*
X46756233Y-28229609D01*
X46828059Y-28174016D01*
X46913249Y-28105947D01*
X46918255Y-28101889D01*
X47009460Y-28026917D01*
X47068122Y-27975567D01*
X47098278Y-27943272D01*
X47103968Y-27925467D01*
X47089228Y-27917586D01*
X47082176Y-27916557D01*
X46990236Y-27921252D01*
X46896708Y-27949977D01*
X46818661Y-27995818D01*
X46779380Y-28039233D01*
X46742519Y-28108123D01*
X46710377Y-28178048D01*
X46687646Y-28237323D01*
X46679017Y-28274260D01*
X46518270Y-28274260D01*
X46531767Y-28227103D01*
X46574939Y-28118321D01*
X46596997Y-28067333D01*
X46648618Y-27956118D01*
X46689758Y-27883365D01*
X46723902Y-27843518D01*
X46744202Y-27832572D01*
X46896075Y-27793288D01*
X47031426Y-27764638D01*
X47142869Y-27747823D01*
X47223019Y-27744042D01*
X47255715Y-27749466D01*
G36*
X48388092Y-21478558D02*
G01*
X48434570Y-21531104D01*
X48445421Y-21594274D01*
X48425014Y-21655608D01*
X48377720Y-21702647D01*
X48307910Y-21722930D01*
X48302342Y-21723025D01*
X48248915Y-21712532D01*
X48221154Y-21694162D01*
X48185159Y-21620976D01*
X48184350Y-21551545D01*
X48211986Y-21494579D01*
X48261323Y-21458785D01*
X48325618Y-21452871D01*
X48388092Y-21478558D01*
G37*
X48388092Y-21478558D02*
X48434570Y-21531104D01*
X48445421Y-21594274D01*
X48425014Y-21655608D01*
X48377720Y-21702647D01*
X48307910Y-21722930D01*
X48302342Y-21723025D01*
X48248915Y-21712532D01*
X48221154Y-21694162D01*
X48185159Y-21620976D01*
X48184350Y-21551545D01*
X48211986Y-21494579D01*
X48261323Y-21458785D01*
X48325618Y-21452871D01*
X48388092Y-21478558D01*
G36*
X48897239Y-21573005D02*
G01*
X48922276Y-21597187D01*
X48962607Y-21649185D01*
X48969314Y-21699427D01*
X48965577Y-21718183D01*
X48944848Y-21770330D01*
X48922956Y-21797486D01*
X48859800Y-21814707D01*
X48788545Y-21804270D01*
X48737866Y-21773162D01*
X48703187Y-21707380D01*
X48713408Y-21641094D01*
X48760492Y-21586156D01*
X48814738Y-21548833D01*
X48854302Y-21544039D01*
X48897239Y-21573005D01*
G37*
X48897239Y-21573005D02*
X48922276Y-21597187D01*
X48962607Y-21649185D01*
X48969314Y-21699427D01*
X48965577Y-21718183D01*
X48944848Y-21770330D01*
X48922956Y-21797486D01*
X48859800Y-21814707D01*
X48788545Y-21804270D01*
X48737866Y-21773162D01*
X48703187Y-21707380D01*
X48713408Y-21641094D01*
X48760492Y-21586156D01*
X48814738Y-21548833D01*
X48854302Y-21544039D01*
X48897239Y-21573005D01*
G36*
X49405899Y-21753262D02*
G01*
X49465376Y-21784600D01*
X49502161Y-21840062D01*
X49507833Y-21877128D01*
X49488895Y-21933367D01*
X49442744Y-21980912D01*
X49385374Y-22007058D01*
X49346196Y-22005533D01*
X49277034Y-21965219D01*
X49239163Y-21907212D01*
X49236429Y-21843131D01*
X49272678Y-21784595D01*
X49272969Y-21784331D01*
X49337255Y-21751391D01*
X49405899Y-21753262D01*
G37*
X49405899Y-21753262D02*
X49465376Y-21784600D01*
X49502161Y-21840062D01*
X49507833Y-21877128D01*
X49488895Y-21933367D01*
X49442744Y-21980912D01*
X49385374Y-22007058D01*
X49346196Y-22005533D01*
X49277034Y-21965219D01*
X49239163Y-21907212D01*
X49236429Y-21843131D01*
X49272678Y-21784595D01*
X49272969Y-21784331D01*
X49337255Y-21751391D01*
X49405899Y-21753262D01*
G36*
X48579605Y-21972605D02*
G01*
X48620431Y-22026247D01*
X48630378Y-22089312D01*
X48610924Y-22149872D01*
X48561976Y-22190728D01*
X48497649Y-22207367D01*
X48432063Y-22195273D01*
X48391502Y-22165707D01*
X48357416Y-22101394D01*
X48363067Y-22038556D01*
X48402816Y-21987259D01*
X48471023Y-21957567D01*
X48510157Y-21953934D01*
X48579605Y-21972605D01*
G37*
X48579605Y-21972605D02*
X48620431Y-22026247D01*
X48630378Y-22089312D01*
X48610924Y-22149872D01*
X48561976Y-22190728D01*
X48497649Y-22207367D01*
X48432063Y-22195273D01*
X48391502Y-22165707D01*
X48357416Y-22101394D01*
X48363067Y-22038556D01*
X48402816Y-21987259D01*
X48471023Y-21957567D01*
X48510157Y-21953934D01*
X48579605Y-21972605D01*
G36*
X49078284Y-22101086D02*
G01*
X49109759Y-22116944D01*
X49169288Y-22170265D01*
X49192703Y-22233381D01*
X49181943Y-22294650D01*
X49138946Y-22342428D01*
X49068475Y-22364854D01*
X49006002Y-22361759D01*
X48961712Y-22345060D01*
X48959325Y-22342917D01*
X48939140Y-22300846D01*
X48930563Y-22239524D01*
X48930560Y-22238485D01*
X48944035Y-22170681D01*
X48990948Y-22123249D01*
X49039072Y-22097855D01*
X49078284Y-22101086D01*
G37*
X49078284Y-22101086D02*
X49109759Y-22116944D01*
X49169288Y-22170265D01*
X49192703Y-22233381D01*
X49181943Y-22294650D01*
X49138946Y-22342428D01*
X49068475Y-22364854D01*
X49006002Y-22361759D01*
X48961712Y-22345060D01*
X48959325Y-22342917D01*
X48939140Y-22300846D01*
X48930563Y-22239524D01*
X48930560Y-22238485D01*
X48944035Y-22170681D01*
X48990948Y-22123249D01*
X49039072Y-22097855D01*
X49078284Y-22101086D01*
G36*
X49698125Y-22272229D02*
G01*
X49744299Y-22318023D01*
X49761254Y-22378685D01*
X49743561Y-22441399D01*
X49719605Y-22469901D01*
X49653875Y-22503093D01*
X49581667Y-22501231D01*
X49522957Y-22465889D01*
X49487835Y-22400209D01*
X49492442Y-22336053D01*
X49531311Y-22284430D01*
X49598972Y-22256347D01*
X49628164Y-22254116D01*
X49698125Y-22272229D01*
G37*
X49698125Y-22272229D02*
X49744299Y-22318023D01*
X49761254Y-22378685D01*
X49743561Y-22441399D01*
X49719605Y-22469901D01*
X49653875Y-22503093D01*
X49581667Y-22501231D01*
X49522957Y-22465889D01*
X49487835Y-22400209D01*
X49492442Y-22336053D01*
X49531311Y-22284430D01*
X49598972Y-22256347D01*
X49628164Y-22254116D01*
X49698125Y-22272229D01*
G36*
X48807916Y-22451210D02*
G01*
X48849049Y-22484260D01*
X48885737Y-22551720D01*
X48885407Y-22620313D01*
X48852933Y-22677721D01*
X48793190Y-22711623D01*
X48757378Y-22715934D01*
X48698235Y-22702346D01*
X48666541Y-22685270D01*
X48631414Y-22634338D01*
X48627385Y-22568086D01*
X48653600Y-22504539D01*
X48676232Y-22480648D01*
X48745711Y-22443337D01*
X48807916Y-22451210D01*
G37*
X48807916Y-22451210D02*
X48849049Y-22484260D01*
X48885737Y-22551720D01*
X48885407Y-22620313D01*
X48852933Y-22677721D01*
X48793190Y-22711623D01*
X48757378Y-22715934D01*
X48698235Y-22702346D01*
X48666541Y-22685270D01*
X48631414Y-22634338D01*
X48627385Y-22568086D01*
X48653600Y-22504539D01*
X48676232Y-22480648D01*
X48745711Y-22443337D01*
X48807916Y-22451210D01*
G36*
X49352876Y-22655014D02*
G01*
X49401621Y-22699120D01*
X49415469Y-22761365D01*
X49396482Y-22830403D01*
X49348418Y-22878327D01*
X49284625Y-22899714D01*
X49218451Y-22889138D01*
X49176593Y-22858434D01*
X49141336Y-22791921D01*
X49145404Y-22725812D01*
X49183474Y-22672316D01*
X49250223Y-22643639D01*
X49271065Y-22641770D01*
X49352876Y-22655014D01*
G37*
X49352876Y-22655014D02*
X49401621Y-22699120D01*
X49415469Y-22761365D01*
X49396482Y-22830403D01*
X49348418Y-22878327D01*
X49284625Y-22899714D01*
X49218451Y-22889138D01*
X49176593Y-22858434D01*
X49141336Y-22791921D01*
X49145404Y-22725812D01*
X49183474Y-22672316D01*
X49250223Y-22643639D01*
X49271065Y-22641770D01*
X49352876Y-22655014D01*
G36*
X49845457Y-22764735D02*
G01*
X49896052Y-22805152D01*
X49921949Y-22872397D01*
X49923115Y-22891310D01*
X49903319Y-22950348D01*
X49852979Y-22994377D01*
X49787075Y-23016156D01*
X49720586Y-23008446D01*
X49701445Y-22998444D01*
X49667614Y-22952502D01*
X49655999Y-22887783D01*
X49668719Y-22832790D01*
X49719467Y-22775719D01*
X49782487Y-22753979D01*
X49845457Y-22764735D01*
G37*
X49845457Y-22764735D02*
X49896052Y-22805152D01*
X49921949Y-22872397D01*
X49923115Y-22891310D01*
X49903319Y-22950348D01*
X49852979Y-22994377D01*
X49787075Y-23016156D01*
X49720586Y-23008446D01*
X49701445Y-22998444D01*
X49667614Y-22952502D01*
X49655999Y-22887783D01*
X49668719Y-22832790D01*
X49719467Y-22775719D01*
X49782487Y-22753979D01*
X49845457Y-22764735D01*
G36*
X48356405Y-22342789D02*
G01*
X48366879Y-22373831D01*
X48348385Y-22425025D01*
X48299473Y-22499956D01*
X48218696Y-22602210D01*
X48197529Y-22627513D01*
X48118233Y-22723340D01*
X48042353Y-22818068D01*
X47979285Y-22899799D01*
X47942880Y-22949999D01*
X47887329Y-23025239D01*
X47816704Y-23112796D01*
X47757678Y-23180908D01*
X47682063Y-23268816D01*
X47600840Y-23369859D01*
X47545455Y-23443298D01*
X47476360Y-23535080D01*
X47395068Y-23637607D01*
X47326199Y-23720389D01*
X47249767Y-23812247D01*
X47168193Y-23914849D01*
X47105471Y-23997480D01*
X47038088Y-24085926D01*
X46956889Y-24187622D01*
X46878818Y-24281371D01*
X46874745Y-24286116D01*
X46794933Y-24381457D01*
X46708662Y-24488469D01*
X46634309Y-24584350D01*
X46632843Y-24586298D01*
X46558076Y-24683147D01*
X46473340Y-24788993D01*
X46402016Y-24874934D01*
X46334402Y-24956163D01*
X46252268Y-25057571D01*
X46169003Y-25162542D01*
X46132227Y-25209753D01*
X46035242Y-25333675D01*
X45961206Y-25423935D01*
X45906079Y-25484340D01*
X45865818Y-25518701D01*
X45836382Y-25530828D01*
X45813729Y-25524528D01*
X45805590Y-25517631D01*
X45790188Y-25474572D01*
X45798103Y-25417817D01*
X45825649Y-25371139D01*
X45828722Y-25368444D01*
X45859140Y-25336264D01*
X45907973Y-25276943D01*
X45966778Y-25200908D01*
X45994575Y-25163571D01*
X46071187Y-25062662D01*
X46157490Y-24953989D01*
X46236791Y-24858498D01*
X46248598Y-24844826D01*
X46325869Y-24753475D01*
X46413374Y-24646141D01*
X46493905Y-24543983D01*
X46504155Y-24530629D01*
X46544515Y-24478709D01*
X46610199Y-24395304D01*
X46697601Y-24284928D01*
X46803115Y-24152093D01*
X46923135Y-24001313D01*
X47054054Y-23837101D01*
X47192265Y-23663969D01*
X47334164Y-23486430D01*
X47476143Y-23308997D01*
X47614596Y-23136184D01*
X47745918Y-22972502D01*
X47866501Y-22822466D01*
X47972740Y-22690587D01*
X48061029Y-22581379D01*
X48107167Y-22524585D01*
X48188792Y-22428003D01*
X48248947Y-22365843D01*
X48291874Y-22334162D01*
X48318412Y-22328312D01*
X48356405Y-22342789D01*
G37*
X48356405Y-22342789D02*
X48366879Y-22373831D01*
X48348385Y-22425025D01*
X48299473Y-22499956D01*
X48218696Y-22602210D01*
X48197529Y-22627513D01*
X48118233Y-22723340D01*
X48042353Y-22818068D01*
X47979285Y-22899799D01*
X47942880Y-22949999D01*
X47887329Y-23025239D01*
X47816704Y-23112796D01*
X47757678Y-23180908D01*
X47682063Y-23268816D01*
X47600840Y-23369859D01*
X47545455Y-23443298D01*
X47476360Y-23535080D01*
X47395068Y-23637607D01*
X47326199Y-23720389D01*
X47249767Y-23812247D01*
X47168193Y-23914849D01*
X47105471Y-23997480D01*
X47038088Y-24085926D01*
X46956889Y-24187622D01*
X46878818Y-24281371D01*
X46874745Y-24286116D01*
X46794933Y-24381457D01*
X46708662Y-24488469D01*
X46634309Y-24584350D01*
X46632843Y-24586298D01*
X46558076Y-24683147D01*
X46473340Y-24788993D01*
X46402016Y-24874934D01*
X46334402Y-24956163D01*
X46252268Y-25057571D01*
X46169003Y-25162542D01*
X46132227Y-25209753D01*
X46035242Y-25333675D01*
X45961206Y-25423935D01*
X45906079Y-25484340D01*
X45865818Y-25518701D01*
X45836382Y-25530828D01*
X45813729Y-25524528D01*
X45805590Y-25517631D01*
X45790188Y-25474572D01*
X45798103Y-25417817D01*
X45825649Y-25371139D01*
X45828722Y-25368444D01*
X45859140Y-25336264D01*
X45907973Y-25276943D01*
X45966778Y-25200908D01*
X45994575Y-25163571D01*
X46071187Y-25062662D01*
X46157490Y-24953989D01*
X46236791Y-24858498D01*
X46248598Y-24844826D01*
X46325869Y-24753475D01*
X46413374Y-24646141D01*
X46493905Y-24543983D01*
X46504155Y-24530629D01*
X46544515Y-24478709D01*
X46610199Y-24395304D01*
X46697601Y-24284928D01*
X46803115Y-24152093D01*
X46923135Y-24001313D01*
X47054054Y-23837101D01*
X47192265Y-23663969D01*
X47334164Y-23486430D01*
X47476143Y-23308997D01*
X47614596Y-23136184D01*
X47745918Y-22972502D01*
X47866501Y-22822466D01*
X47972740Y-22690587D01*
X48061029Y-22581379D01*
X48107167Y-22524585D01*
X48188792Y-22428003D01*
X48248947Y-22365843D01*
X48291874Y-22334162D01*
X48318412Y-22328312D01*
X48356405Y-22342789D01*
G36*
X48516479Y-22879481D02*
G01*
X48526469Y-22903711D01*
X48511510Y-22927709D01*
X48468459Y-22982878D01*
X48400053Y-23066116D01*
X48309033Y-23174320D01*
X48198137Y-23304386D01*
X48070102Y-23453210D01*
X47927669Y-23617689D01*
X47773574Y-23794721D01*
X47610558Y-23981200D01*
X47441359Y-24174025D01*
X47268715Y-24370092D01*
X47095365Y-24566296D01*
X46924048Y-24759536D01*
X46757502Y-24946707D01*
X46598466Y-25124706D01*
X46449678Y-25290430D01*
X46313878Y-25440776D01*
X46193803Y-25572639D01*
X46092193Y-25682917D01*
X46011786Y-25768506D01*
X45955321Y-25826303D01*
X45925536Y-25853205D01*
X45922244Y-25854786D01*
X45880642Y-25839583D01*
X45868112Y-25822423D01*
X45860919Y-25780007D01*
X45863064Y-25767896D01*
X45879219Y-25747817D01*
X45923705Y-25695720D01*
X45994265Y-25614186D01*
X46088638Y-25505795D01*
X46204566Y-25373126D01*
X46339790Y-25218760D01*
X46492049Y-25045277D01*
X46659087Y-24855256D01*
X46838643Y-24651277D01*
X47028458Y-24435921D01*
X47148802Y-24299520D01*
X47383475Y-24033887D01*
X47589598Y-23801156D01*
X47768947Y-23599398D01*
X47923300Y-23426688D01*
X48054434Y-23281096D01*
X48164123Y-23160696D01*
X48254146Y-23063560D01*
X48326277Y-22987760D01*
X48382296Y-22931369D01*
X48423976Y-22892460D01*
X48453096Y-22869103D01*
X48471431Y-22859373D01*
X48476529Y-22858911D01*
X48516479Y-22879481D01*
G37*
X48516479Y-22879481D02*
X48526469Y-22903711D01*
X48511510Y-22927709D01*
X48468459Y-22982878D01*
X48400053Y-23066116D01*
X48309033Y-23174320D01*
X48198137Y-23304386D01*
X48070102Y-23453210D01*
X47927669Y-23617689D01*
X47773574Y-23794721D01*
X47610558Y-23981200D01*
X47441359Y-24174025D01*
X47268715Y-24370092D01*
X47095365Y-24566296D01*
X46924048Y-24759536D01*
X46757502Y-24946707D01*
X46598466Y-25124706D01*
X46449678Y-25290430D01*
X46313878Y-25440776D01*
X46193803Y-25572639D01*
X46092193Y-25682917D01*
X46011786Y-25768506D01*
X45955321Y-25826303D01*
X45925536Y-25853205D01*
X45922244Y-25854786D01*
X45880642Y-25839583D01*
X45868112Y-25822423D01*
X45860919Y-25780007D01*
X45863064Y-25767896D01*
X45879219Y-25747817D01*
X45923705Y-25695720D01*
X45994265Y-25614186D01*
X46088638Y-25505795D01*
X46204566Y-25373126D01*
X46339790Y-25218760D01*
X46492049Y-25045277D01*
X46659087Y-24855256D01*
X46838643Y-24651277D01*
X47028458Y-24435921D01*
X47148802Y-24299520D01*
X47383475Y-24033887D01*
X47589598Y-23801156D01*
X47768947Y-23599398D01*
X47923300Y-23426688D01*
X48054434Y-23281096D01*
X48164123Y-23160696D01*
X48254146Y-23063560D01*
X48326277Y-22987760D01*
X48382296Y-22931369D01*
X48423976Y-22892460D01*
X48453096Y-22869103D01*
X48471431Y-22859373D01*
X48476529Y-22858911D01*
X48516479Y-22879481D01*
G36*
X49059263Y-22948257D02*
G01*
X49071044Y-22956145D01*
X49082102Y-22962203D01*
X49090476Y-22968628D01*
X49094205Y-22977615D01*
X49091329Y-22991360D01*
X49079886Y-23012060D01*
X49057917Y-23041910D01*
X49023459Y-23083106D01*
X48974552Y-23137845D01*
X48909235Y-23208322D01*
X48825547Y-23296734D01*
X48721528Y-23405276D01*
X48595216Y-23536144D01*
X48444651Y-23691535D01*
X48267872Y-23873644D01*
X48062917Y-24084668D01*
X47834055Y-24320385D01*
X47670446Y-24489023D01*
X47506458Y-24658181D01*
X47347069Y-24822715D01*
X47197257Y-24977481D01*
X47062001Y-25117334D01*
X46946278Y-25237132D01*
X46855068Y-25331729D01*
X46817742Y-25370540D01*
X46667858Y-25526173D01*
X46546404Y-25650861D01*
X46450140Y-25747275D01*
X46375825Y-25818081D01*
X46320220Y-25865949D01*
X46280083Y-25893546D01*
X46252176Y-25903543D01*
X46233257Y-25898606D01*
X46220088Y-25881404D01*
X46214114Y-25867665D01*
X46210188Y-25847335D01*
X46215725Y-25822794D01*
X46234127Y-25789888D01*
X46268792Y-25744464D01*
X46323122Y-25682365D01*
X46400517Y-25599439D01*
X46504376Y-25491531D01*
X46613864Y-25379250D01*
X46717738Y-25272790D01*
X46846247Y-25140646D01*
X46992019Y-24990424D01*
X47147680Y-24829732D01*
X47305859Y-24666176D01*
X47459182Y-24507364D01*
X47509075Y-24455614D01*
X47649136Y-24310653D01*
X47787890Y-24167730D01*
X47919831Y-24032465D01*
X48039453Y-23910480D01*
X48141251Y-23807397D01*
X48219718Y-23728837D01*
X48251779Y-23697298D01*
X48340870Y-23608643D01*
X48429255Y-23517286D01*
X48504631Y-23436106D01*
X48541809Y-23393724D01*
X48602316Y-23326732D01*
X48684699Y-23241959D01*
X48776265Y-23152251D01*
X48834127Y-23097901D01*
X48920920Y-23019778D01*
X48981409Y-22970505D01*
X49021694Y-22946030D01*
X49047872Y-22942296D01*
X49059263Y-22948257D01*
G37*
X49059263Y-22948257D02*
X49071044Y-22956145D01*
X49082102Y-22962203D01*
X49090476Y-22968628D01*
X49094205Y-22977615D01*
X49091329Y-22991360D01*
X49079886Y-23012060D01*
X49057917Y-23041910D01*
X49023459Y-23083106D01*
X48974552Y-23137845D01*
X48909235Y-23208322D01*
X48825547Y-23296734D01*
X48721528Y-23405276D01*
X48595216Y-23536144D01*
X48444651Y-23691535D01*
X48267872Y-23873644D01*
X48062917Y-24084668D01*
X47834055Y-24320385D01*
X47670446Y-24489023D01*
X47506458Y-24658181D01*
X47347069Y-24822715D01*
X47197257Y-24977481D01*
X47062001Y-25117334D01*
X46946278Y-25237132D01*
X46855068Y-25331729D01*
X46817742Y-25370540D01*
X46667858Y-25526173D01*
X46546404Y-25650861D01*
X46450140Y-25747275D01*
X46375825Y-25818081D01*
X46320220Y-25865949D01*
X46280083Y-25893546D01*
X46252176Y-25903543D01*
X46233257Y-25898606D01*
X46220088Y-25881404D01*
X46214114Y-25867665D01*
X46210188Y-25847335D01*
X46215725Y-25822794D01*
X46234127Y-25789888D01*
X46268792Y-25744464D01*
X46323122Y-25682365D01*
X46400517Y-25599439D01*
X46504376Y-25491531D01*
X46613864Y-25379250D01*
X46717738Y-25272790D01*
X46846247Y-25140646D01*
X46992019Y-24990424D01*
X47147680Y-24829732D01*
X47305859Y-24666176D01*
X47459182Y-24507364D01*
X47509075Y-24455614D01*
X47649136Y-24310653D01*
X47787890Y-24167730D01*
X47919831Y-24032465D01*
X48039453Y-23910480D01*
X48141251Y-23807397D01*
X48219718Y-23728837D01*
X48251779Y-23697298D01*
X48340870Y-23608643D01*
X48429255Y-23517286D01*
X48504631Y-23436106D01*
X48541809Y-23393724D01*
X48602316Y-23326732D01*
X48684699Y-23241959D01*
X48776265Y-23152251D01*
X48834127Y-23097901D01*
X48920920Y-23019778D01*
X48981409Y-22970505D01*
X49021694Y-22946030D01*
X49047872Y-22942296D01*
X49059263Y-22948257D01*
G36*
X43028810Y-20926318D02*
G01*
X43053664Y-20945244D01*
X43088564Y-20979981D01*
X43137410Y-21034661D01*
X43204100Y-21113414D01*
X43292531Y-21220370D01*
X43389991Y-21339340D01*
X43464005Y-21429732D01*
X43537214Y-21518921D01*
X43598163Y-21592958D01*
X43619651Y-21618960D01*
X43663486Y-21672193D01*
X43728772Y-21751862D01*
X43807824Y-21848572D01*
X43892956Y-21952927D01*
X43924055Y-21991100D01*
X43995061Y-22078221D01*
X44089617Y-22194123D01*
X44202033Y-22331839D01*
X44326622Y-22484403D01*
X44457695Y-22644849D01*
X44589562Y-22806209D01*
X44645645Y-22874815D01*
X44763496Y-23020127D01*
X44871397Y-23155399D01*
X44965949Y-23276197D01*
X45043756Y-23378089D01*
X45101421Y-23456643D01*
X45135547Y-23507426D01*
X45143651Y-23524643D01*
X45125829Y-23552703D01*
X45074539Y-23605759D01*
X44993046Y-23680815D01*
X44884614Y-23774875D01*
X44752505Y-23884944D01*
X44739560Y-23895538D01*
X44623375Y-23991307D01*
X44520253Y-24077884D01*
X44435269Y-24150880D01*
X44373499Y-24205901D01*
X44340017Y-24238558D01*
X44335469Y-24245182D01*
X44349403Y-24269575D01*
X44387332Y-24321585D01*
X44443447Y-24393553D01*
X44511262Y-24476997D01*
X44600741Y-24587699D01*
X44662653Y-24672187D01*
X44700908Y-24738042D01*
X44719415Y-24792845D01*
X44722082Y-24844177D01*
X44717583Y-24877117D01*
X44714713Y-24912769D01*
X44723522Y-24949172D01*
X44748691Y-24994794D01*
X44794905Y-25058103D01*
X44866845Y-25147568D01*
X44867753Y-25148675D01*
X44935784Y-25228816D01*
X44995170Y-25293557D01*
X45038920Y-25335598D01*
X45058671Y-25348034D01*
X45082747Y-25331526D01*
X45131235Y-25286172D01*
X45198196Y-25217934D01*
X45277694Y-25132775D01*
X45324248Y-25081292D01*
X45422697Y-24972604D01*
X45499624Y-24893194D01*
X45563507Y-24837229D01*
X45622822Y-24798874D01*
X45686047Y-24772297D01*
X45761660Y-24751664D01*
X45822477Y-24738468D01*
X45882033Y-24723918D01*
X45931479Y-24703975D01*
X45977151Y-24672666D01*
X46025383Y-24624018D01*
X46082510Y-24552056D01*
X46154869Y-24450808D01*
X46205833Y-24377010D01*
X46262280Y-24295665D01*
X46330336Y-24198816D01*
X46390560Y-24114031D01*
X46447679Y-24033971D01*
X46522532Y-23928755D01*
X46609743Y-23805968D01*
X46703935Y-23673198D01*
X46799733Y-23538032D01*
X46891759Y-23408056D01*
X46974638Y-23290858D01*
X47042993Y-23194023D01*
X47091448Y-23125139D01*
X47100617Y-23112037D01*
X47157328Y-23030918D01*
X47222678Y-22937552D01*
X47262254Y-22881066D01*
X47318967Y-22799666D01*
X47374759Y-22718794D01*
X47406560Y-22672167D01*
X47458379Y-22598821D01*
X47518066Y-22518804D01*
X47536169Y-22495490D01*
X47587993Y-22425434D01*
X47633661Y-22356762D01*
X47646568Y-22334934D01*
X47684410Y-22274514D01*
X47735675Y-22201632D01*
X47759413Y-22170274D01*
X47813840Y-22098512D01*
X47878438Y-22010649D01*
X47926030Y-21944278D01*
X47985133Y-21867981D01*
X48030017Y-21828425D01*
X48064339Y-21820302D01*
X48087818Y-21823995D01*
X48105714Y-21829700D01*
X48116213Y-21840448D01*
X48117503Y-21859274D01*
X48107769Y-21889212D01*
X48085199Y-21933293D01*
X48047980Y-21994552D01*
X47994299Y-22076022D01*
X47922341Y-22180737D01*
X47830295Y-22311728D01*
X47716347Y-22472031D01*
X47578683Y-22664679D01*
X47462913Y-22826442D01*
X47379658Y-22943362D01*
X47302775Y-23052441D01*
X47237526Y-23146128D01*
X47189174Y-23216871D01*
X47164105Y-23255250D01*
X47116390Y-23327889D01*
X47065543Y-23397592D01*
X47064638Y-23398742D01*
X46985467Y-23502729D01*
X46898027Y-23622955D01*
X46818800Y-23736671D01*
X46806196Y-23755423D01*
X46769239Y-23809861D01*
X46716779Y-23885476D01*
X46646021Y-23986245D01*
X46554173Y-24116146D01*
X46438438Y-24279156D01*
X46425196Y-24297780D01*
X46371114Y-24374394D01*
X46308835Y-24463413D01*
X46275105Y-24511972D01*
X46190479Y-24633275D01*
X46103404Y-24756363D01*
X46018333Y-24875125D01*
X45939716Y-24983449D01*
X45872006Y-25075224D01*
X45819653Y-25144338D01*
X45787108Y-25184679D01*
X45779756Y-25192081D01*
X45731893Y-25213706D01*
X45704485Y-25201567D01*
X45696724Y-25162896D01*
X45707801Y-25104925D01*
X45736908Y-25034885D01*
X45783237Y-24960007D01*
X45809415Y-24926747D01*
X45833572Y-24887505D01*
X45820992Y-24872545D01*
X45774456Y-24882251D01*
X45705749Y-24912439D01*
X45600643Y-24980067D01*
X45534543Y-25062193D01*
X45500520Y-25168563D01*
X45495365Y-25208371D01*
X45497921Y-25295093D01*
X45516324Y-25399857D01*
X45545957Y-25505192D01*
X45582202Y-25593623D01*
X45608070Y-25634938D01*
X45632757Y-25665487D01*
X45676036Y-25719275D01*
X45718307Y-25771911D01*
X45849563Y-25908667D01*
X45998472Y-26018058D01*
X46157693Y-26097328D01*
X46319885Y-26143725D01*
X46477706Y-26154496D01*
X46623815Y-26126888D01*
X46644390Y-26119217D01*
X46729025Y-26067997D01*
X46796308Y-25994900D01*
X46839128Y-25911612D01*
X46850376Y-25829819D01*
X46842276Y-25794005D01*
X46828759Y-25776950D01*
X46805068Y-25785797D01*
X46763578Y-25824787D01*
X46738544Y-25851681D01*
X46669066Y-25914408D01*
X46606813Y-25946134D01*
X46559134Y-25944020D01*
X46541939Y-25927655D01*
X46536157Y-25910010D01*
X46541173Y-25887362D01*
X46560275Y-25856188D01*
X46596749Y-25812961D01*
X46653882Y-25754158D01*
X46734961Y-25676253D01*
X46843272Y-25575721D01*
X46982103Y-25449037D01*
X47021928Y-25412900D01*
X47195525Y-25255411D01*
X47340258Y-25123886D01*
X47461555Y-25013357D01*
X47564842Y-24918855D01*
X47655548Y-24835414D01*
X47739100Y-24758063D01*
X47820925Y-24681835D01*
X47836675Y-24667116D01*
X48060730Y-24458373D01*
X48278663Y-24256785D01*
X48487901Y-24064644D01*
X48685867Y-23884246D01*
X48869988Y-23717884D01*
X49037690Y-23567854D01*
X49186397Y-23436450D01*
X49313535Y-23325966D01*
X49416529Y-23238696D01*
X49492806Y-23176934D01*
X49539790Y-23142976D01*
X49553705Y-23136938D01*
X49585395Y-23162436D01*
X49595267Y-23189534D01*
X49584790Y-23225596D01*
X49543367Y-23279754D01*
X49468168Y-23355414D01*
X49422852Y-23397116D01*
X49141784Y-23653566D01*
X48896445Y-23882025D01*
X48819549Y-23954184D01*
X48735106Y-24033327D01*
X48696926Y-24069073D01*
X48657160Y-24105761D01*
X48587580Y-24169378D01*
X48492629Y-24255884D01*
X48376752Y-24361241D01*
X48244392Y-24481408D01*
X48099994Y-24612344D01*
X47948001Y-24750010D01*
X47926105Y-24769829D01*
X47775473Y-24906387D01*
X47633660Y-25035376D01*
X47504780Y-25153024D01*
X47392950Y-25255554D01*
X47302283Y-25339193D01*
X47236896Y-25400165D01*
X47200903Y-25434697D01*
X47197726Y-25437958D01*
X47136474Y-25495554D01*
X47068353Y-25550288D01*
X47064953Y-25552729D01*
X47023877Y-25585529D01*
X47001528Y-25619436D01*
X46992064Y-25669620D01*
X46989668Y-25748189D01*
X46982240Y-25844664D01*
X46964509Y-25939438D01*
X46949259Y-25988302D01*
X46919154Y-26040835D01*
X46861332Y-26121117D01*
X46780113Y-26223640D01*
X46679818Y-26342891D01*
X46598378Y-26435840D01*
X46502799Y-26543674D01*
X46417380Y-26640932D01*
X46347046Y-26721936D01*
X46296721Y-26781006D01*
X46271329Y-26812463D01*
X46269705Y-26814891D01*
X46276738Y-26845359D01*
X46312923Y-26905776D01*
X46375803Y-26992421D01*
X46442887Y-27077153D01*
X46525169Y-27177482D01*
X46587852Y-27246492D01*
X46641297Y-27288012D01*
X46695860Y-27305871D01*
X46761902Y-27303897D01*
X46849780Y-27285919D01*
X46943826Y-27262320D01*
X47116832Y-27227318D01*
X47261504Y-27220533D01*
X47386929Y-27245000D01*
X47502194Y-27303754D01*
X47616387Y-27399829D01*
X47728935Y-27524545D01*
X47838464Y-27667029D01*
X47911045Y-27788420D01*
X47947652Y-27893984D01*
X47949259Y-27988988D01*
X47916841Y-28078697D01*
X47851371Y-28168377D01*
X47848593Y-28171469D01*
X47807464Y-28211775D01*
X47736541Y-28275723D01*
X47642059Y-28358068D01*
X47530254Y-28453561D01*
X47407360Y-28556956D01*
X47279612Y-28663005D01*
X47153247Y-28766462D01*
X47034498Y-28862078D01*
X46933196Y-28941821D01*
X46793934Y-29033905D01*
X46668200Y-29082877D01*
X46553869Y-29089076D01*
X46448821Y-29052839D01*
X46407587Y-29025525D01*
X46338735Y-28963606D01*
X46257201Y-28876058D01*
X46173201Y-28775451D01*
X46096955Y-28674356D01*
X46038681Y-28585344D01*
X46018128Y-28546389D01*
X45982030Y-28436799D01*
X45974752Y-28326854D01*
X46122675Y-28326854D01*
X46131021Y-28410539D01*
X46164038Y-28493035D01*
X46221984Y-28583962D01*
X46260848Y-28636198D01*
X46376333Y-28777937D01*
X46473325Y-28877444D01*
X46551887Y-28934776D01*
X46604954Y-28950394D01*
X46658667Y-28938490D01*
X46722810Y-28909464D01*
X46730976Y-28904658D01*
X46775933Y-28873264D01*
X46849499Y-28817373D01*
X46945073Y-28742372D01*
X47056057Y-28653648D01*
X47175851Y-28556589D01*
X47297856Y-28456582D01*
X47415471Y-28359017D01*
X47522098Y-28269279D01*
X47611137Y-28192758D01*
X47675988Y-28134840D01*
X47689424Y-28122201D01*
X47754209Y-28051614D01*
X47790928Y-27985832D01*
X47798367Y-27918267D01*
X47775311Y-27842330D01*
X47720547Y-27751432D01*
X47632862Y-27638985D01*
X47591408Y-27590105D01*
X47503201Y-27495161D01*
X47427498Y-27432138D01*
X47354150Y-27392713D01*
X47347648Y-27390164D01*
X47302467Y-27373824D01*
X47263279Y-27364521D01*
X47220143Y-27362834D01*
X47163120Y-27369343D01*
X47082267Y-27384628D01*
X46967644Y-27409269D01*
X46948616Y-27413437D01*
X46782311Y-27452141D01*
X46653265Y-27490397D01*
X46553103Y-27534841D01*
X46473450Y-27592110D01*
X46405928Y-27668840D01*
X46342163Y-27771669D01*
X46273779Y-27907231D01*
X46243093Y-27972460D01*
X46178968Y-28117435D01*
X46138743Y-28232360D01*
X46122675Y-28326854D01*
X45974752Y-28326854D01*
X45974406Y-28321637D01*
X45996127Y-28192639D01*
X46048065Y-28041544D01*
X46078944Y-27969852D01*
X46121282Y-27873109D01*
X46155288Y-27789965D01*
X46176965Y-27730544D01*
X46182742Y-27707011D01*
X46169074Y-27678986D01*
X46132993Y-27625197D01*
X46081878Y-27555164D01*
X46023109Y-27478408D01*
X45964067Y-27404449D01*
X45912132Y-27342809D01*
X45874685Y-27303008D01*
X45862248Y-27293574D01*
X45842339Y-27307762D01*
X45798270Y-27350770D01*
X45736020Y-27416427D01*
X45661570Y-27498561D01*
X45639706Y-27523268D01*
X45436346Y-27754374D01*
X45261069Y-27953397D01*
X45111222Y-28122722D01*
X44984152Y-28264737D01*
X44877207Y-28381825D01*
X44787732Y-28476373D01*
X44713077Y-28550767D01*
X44650587Y-28607393D01*
X44597610Y-28648635D01*
X44551493Y-28676881D01*
X44509584Y-28694515D01*
X44469229Y-28703923D01*
X44427777Y-28707491D01*
X44382573Y-28707605D01*
X44330965Y-28706651D01*
X44323924Y-28706575D01*
X44133644Y-28689315D01*
X43962944Y-28638967D01*
X43919833Y-28620044D01*
X43746493Y-28520618D01*
X43592092Y-28396473D01*
X43460184Y-28253618D01*
X43354325Y-28098066D01*
X43278068Y-27935826D01*
X43234970Y-27772910D01*
X43233321Y-27732192D01*
X43368468Y-27732192D01*
X43402461Y-27878252D01*
X43469620Y-28027764D01*
X43568182Y-28173353D01*
X43574583Y-28181227D01*
X43702203Y-28312788D01*
X43846988Y-28421546D01*
X44001355Y-28504498D01*
X44157723Y-28558644D01*
X44308510Y-28580982D01*
X44446135Y-28568511D01*
X44504821Y-28549477D01*
X44539769Y-28525894D01*
X44596516Y-28474775D01*
X44676110Y-28394985D01*
X44779605Y-28285386D01*
X44908052Y-28144841D01*
X45062501Y-27972215D01*
X45244005Y-27766370D01*
X45453614Y-27526168D01*
X45490014Y-27484260D01*
X45545180Y-27421008D01*
X45624826Y-27330089D01*
X45722848Y-27218436D01*
X45771538Y-27163054D01*
X45975548Y-27163054D01*
X45989169Y-27192558D01*
X46025570Y-27245847D01*
X46076986Y-27313451D01*
X46135654Y-27385898D01*
X46193806Y-27453718D01*
X46243679Y-27507440D01*
X46277506Y-27537592D01*
X46285382Y-27540950D01*
X46314988Y-27526166D01*
X46365601Y-27489104D01*
X46407361Y-27454175D01*
X46504979Y-27368385D01*
X46341071Y-27166523D01*
X46273913Y-27085877D01*
X46216326Y-27020551D01*
X46174931Y-26977814D01*
X46157172Y-26964662D01*
X46129378Y-26980988D01*
X46085634Y-27021397D01*
X46037710Y-27073033D01*
X45997374Y-27123041D01*
X45976395Y-27158564D01*
X45975548Y-27163054D01*
X45771538Y-27163054D01*
X45833143Y-27092983D01*
X45949608Y-26960665D01*
X46066136Y-26828417D01*
X46176626Y-26703173D01*
X46274973Y-26591866D01*
X46355072Y-26501433D01*
X46363277Y-26492190D01*
X46425579Y-26420190D01*
X46474100Y-26360620D01*
X46501967Y-26322094D01*
X46506014Y-26313235D01*
X46485580Y-26301611D01*
X46434808Y-26295366D01*
X46417842Y-26295025D01*
X46268373Y-26276008D01*
X46106598Y-26222739D01*
X45943421Y-26140894D01*
X45789744Y-26036145D01*
X45656471Y-25914169D01*
X45630874Y-25885470D01*
X45527951Y-25746337D01*
X45443394Y-25594916D01*
X45385736Y-25447320D01*
X45373439Y-25399314D01*
X45352462Y-25326024D01*
X45330465Y-25294045D01*
X45320981Y-25293893D01*
X45299331Y-25313944D01*
X45250726Y-25365306D01*
X45178371Y-25444319D01*
X45085472Y-25547322D01*
X44975233Y-25670654D01*
X44850861Y-25810653D01*
X44715560Y-25963658D01*
X44572537Y-26126009D01*
X44424996Y-26294045D01*
X44276143Y-26464104D01*
X44129182Y-26632525D01*
X43987321Y-26795648D01*
X43853763Y-26949811D01*
X43731715Y-27091353D01*
X43624381Y-27216613D01*
X43534968Y-27321931D01*
X43466679Y-27403645D01*
X43422722Y-27458093D01*
X43407028Y-27479927D01*
X43369403Y-27596958D01*
X43368468Y-27732192D01*
X43233321Y-27732192D01*
X43228585Y-27615328D01*
X43253535Y-27493426D01*
X43266793Y-27459601D01*
X43286075Y-27422743D01*
X43314679Y-27378708D01*
X43355899Y-27323350D01*
X43413033Y-27252524D01*
X43489376Y-27162083D01*
X43588224Y-27047883D01*
X43712874Y-26905777D01*
X43793214Y-26814686D01*
X43977853Y-26605616D01*
X44134246Y-26428451D01*
X44264667Y-26280437D01*
X44371393Y-26158819D01*
X44456697Y-26060846D01*
X44522856Y-25983761D01*
X44572144Y-25924813D01*
X44606837Y-25881246D01*
X44629209Y-25850308D01*
X44641536Y-25829244D01*
X44646093Y-25815301D01*
X44645155Y-25805725D01*
X44640997Y-25797762D01*
X44637794Y-25792416D01*
X44615056Y-25759930D01*
X44569101Y-25700346D01*
X44506433Y-25621913D01*
X44433553Y-25532881D01*
X44427451Y-25525518D01*
X44334021Y-25417013D01*
X44265252Y-25346607D01*
X44220552Y-25313732D01*
X44205262Y-25311697D01*
X44145365Y-25313316D01*
X44070907Y-25276673D01*
X44016695Y-25231158D01*
X44385973Y-25231158D01*
X44395290Y-25256976D01*
X44406197Y-25270768D01*
X44435607Y-25306144D01*
X44486310Y-25367547D01*
X44550319Y-25445294D01*
X44598690Y-25504162D01*
X44664221Y-25582130D01*
X44719671Y-25644667D01*
X44758277Y-25684349D01*
X44772324Y-25694662D01*
X44795481Y-25678133D01*
X44835645Y-25635913D01*
X44862695Y-25603652D01*
X44905120Y-25544672D01*
X44931512Y-25496068D01*
X44935833Y-25479493D01*
X44921875Y-25449093D01*
X44884049Y-25392165D01*
X44828424Y-25317343D01*
X44772614Y-25247264D01*
X44698557Y-25157677D01*
X44645410Y-25100780D01*
X44604138Y-25074106D01*
X44565703Y-25075191D01*
X44521069Y-25101567D01*
X44461200Y-25150768D01*
X44450924Y-25159477D01*
X44402784Y-25202973D01*
X44385973Y-25231158D01*
X44016695Y-25231158D01*
X43980381Y-25200670D01*
X43872280Y-25084207D01*
X43838958Y-25044562D01*
X43767879Y-24960568D01*
X43705682Y-24890910D01*
X43659022Y-24842784D01*
X43634550Y-24823384D01*
X43634422Y-24823356D01*
X43609647Y-24835858D01*
X43554972Y-24873868D01*
X43475889Y-24933222D01*
X43377887Y-25009759D01*
X43266456Y-25099315D01*
X43215699Y-25140856D01*
X43099378Y-25235212D01*
X42993299Y-25318696D01*
X42903146Y-25387039D01*
X42834604Y-25435974D01*
X42793360Y-25461231D01*
X42785589Y-25463753D01*
X42759760Y-25446596D01*
X42710404Y-25398846D01*
X42642706Y-25326083D01*
X42561849Y-25233887D01*
X42473018Y-25127838D01*
X42469188Y-25123162D01*
X42358055Y-24987349D01*
X42234648Y-24836538D01*
X42110669Y-24685027D01*
X41997817Y-24547115D01*
X41944852Y-24482389D01*
X41840085Y-24354215D01*
X41723914Y-24211855D01*
X41608781Y-24070570D01*
X41507126Y-23945619D01*
X41483604Y-23916662D01*
X41398413Y-23811955D01*
X41293111Y-23682861D01*
X41176919Y-23540665D01*
X41059057Y-23396652D01*
X40955321Y-23270116D01*
X40862565Y-23155484D01*
X40780663Y-23051194D01*
X40713957Y-22963029D01*
X40675826Y-22909466D01*
X40857310Y-22909466D01*
X40876338Y-22941108D01*
X40896822Y-22965880D01*
X40943805Y-23023246D01*
X41014649Y-23109969D01*
X41106716Y-23222813D01*
X41217367Y-23358541D01*
X41343964Y-23513919D01*
X41483868Y-23685708D01*
X41634443Y-23870674D01*
X41793048Y-24065580D01*
X41794003Y-24066753D01*
X41987712Y-24304677D01*
X42154527Y-24509131D01*
X42296559Y-24682583D01*
X42415919Y-24827500D01*
X42514718Y-24946350D01*
X42595067Y-25041598D01*
X42659077Y-25115713D01*
X42708860Y-25171162D01*
X42746526Y-25210412D01*
X42774186Y-25235931D01*
X42793952Y-25250186D01*
X42807934Y-25255643D01*
X42811497Y-25255934D01*
X42836661Y-25242180D01*
X42889361Y-25204849D01*
X42961578Y-25149845D01*
X43035346Y-25091154D01*
X43136531Y-25009192D01*
X43242708Y-24923270D01*
X43338104Y-24846147D01*
X43382969Y-24809919D01*
X43450179Y-24754149D01*
X43500706Y-24709298D01*
X43525931Y-24683111D01*
X43527287Y-24680202D01*
X43513449Y-24658757D01*
X43475138Y-24607777D01*
X43417158Y-24533444D01*
X43344315Y-24441937D01*
X43283702Y-24366845D01*
X43142357Y-24184812D01*
X43032608Y-24024276D01*
X42950232Y-23877587D01*
X42891003Y-23737091D01*
X42850697Y-23595140D01*
X42846292Y-23574561D01*
X42823943Y-23456312D01*
X42814577Y-23374025D01*
X42976644Y-23374025D01*
X42979057Y-23468766D01*
X43001831Y-23588610D01*
X43041444Y-23719137D01*
X43089530Y-23835844D01*
X43118586Y-23884856D01*
X43170952Y-23960734D01*
X43242632Y-24058524D01*
X43329626Y-24173268D01*
X43427937Y-24300013D01*
X43533566Y-24433802D01*
X43642515Y-24569680D01*
X43750785Y-24702692D01*
X43854380Y-24827881D01*
X43949299Y-24940293D01*
X44031546Y-25034972D01*
X44097122Y-25106962D01*
X44142028Y-25151308D01*
X44160772Y-25163571D01*
X44193515Y-25150422D01*
X44250912Y-25115698D01*
X44321407Y-25066487D01*
X44332077Y-25058534D01*
X44410419Y-24996092D01*
X44481920Y-24933027D01*
X44531201Y-24882911D01*
X44531478Y-24882582D01*
X44550031Y-24861597D01*
X44564222Y-24843506D01*
X44571654Y-24824536D01*
X44569928Y-24800909D01*
X44556648Y-24768852D01*
X44529415Y-24724588D01*
X44485833Y-24664342D01*
X44423502Y-24584339D01*
X44340027Y-24480803D01*
X44233009Y-24349960D01*
X44100050Y-24188033D01*
X44057368Y-24136025D01*
X43914427Y-23962831D01*
X43795340Y-23821623D01*
X43695496Y-23708021D01*
X43610286Y-23617644D01*
X43535097Y-23546111D01*
X43465320Y-23489043D01*
X43396344Y-23442060D01*
X43323559Y-23400780D01*
X43242352Y-23360823D01*
X43240489Y-23359950D01*
X43131372Y-23314876D01*
X43054513Y-23298340D01*
X43005687Y-23310568D01*
X42980667Y-23351786D01*
X42976644Y-23374025D01*
X42814577Y-23374025D01*
X42814324Y-23371808D01*
X42817791Y-23310301D01*
X42834703Y-23261042D01*
X42857966Y-23223492D01*
X42917968Y-23165389D01*
X42994549Y-23141469D01*
X43093767Y-23150936D01*
X43188348Y-23180084D01*
X43331959Y-23238970D01*
X43457621Y-23304687D01*
X43573157Y-23383489D01*
X43686390Y-23481629D01*
X43805145Y-23605360D01*
X43937244Y-23760936D01*
X43977560Y-23810895D01*
X44057429Y-23908395D01*
X44128816Y-23991208D01*
X44186258Y-24053329D01*
X44224290Y-24088755D01*
X44235825Y-24094663D01*
X44261599Y-24079138D01*
X44316888Y-24038836D01*
X44395626Y-23978416D01*
X44491741Y-23902537D01*
X44599167Y-23815857D01*
X44601349Y-23814078D01*
X44722731Y-23714111D01*
X44811770Y-23638047D01*
X44872735Y-23581644D01*
X44909897Y-23540658D01*
X44927525Y-23510847D01*
X44929891Y-23487969D01*
X44929844Y-23487717D01*
X44913707Y-23460706D01*
X44871099Y-23401983D01*
X44805034Y-23315246D01*
X44718524Y-23204195D01*
X44614584Y-23072530D01*
X44496227Y-22923951D01*
X44366467Y-22762157D01*
X44228318Y-22590849D01*
X44084792Y-22413727D01*
X43938905Y-22234490D01*
X43793669Y-22056838D01*
X43652098Y-21884472D01*
X43517206Y-21721090D01*
X43392006Y-21570393D01*
X43279513Y-21436080D01*
X43182739Y-21321853D01*
X43104699Y-21231409D01*
X43048406Y-21168450D01*
X43016873Y-21136674D01*
X43012384Y-21133651D01*
X42962784Y-21134432D01*
X42920020Y-21152957D01*
X42878803Y-21183352D01*
X42808201Y-21238516D01*
X42712111Y-21315221D01*
X42594431Y-21410240D01*
X42459061Y-21520348D01*
X42309897Y-21642316D01*
X42150840Y-21772920D01*
X41985786Y-21908931D01*
X41818635Y-22047123D01*
X41653284Y-22184270D01*
X41493632Y-22317145D01*
X41343577Y-22442521D01*
X41207018Y-22557171D01*
X41087852Y-22657870D01*
X40989979Y-22741390D01*
X40917296Y-22804504D01*
X40873702Y-22843987D01*
X40862515Y-22855969D01*
X40857310Y-22909466D01*
X40675826Y-22909466D01*
X40666787Y-22896770D01*
X40643494Y-22858198D01*
X40641786Y-22852495D01*
X40659031Y-22832022D01*
X40708649Y-22785619D01*
X40787007Y-22716274D01*
X40890470Y-22626974D01*
X41015403Y-22520706D01*
X41158172Y-22400459D01*
X41315142Y-22269218D01*
X41482680Y-22129972D01*
X41657150Y-21985707D01*
X41834919Y-21839411D01*
X42012351Y-21694071D01*
X42185813Y-21552675D01*
X42351670Y-21418210D01*
X42506288Y-21293663D01*
X42646032Y-21182022D01*
X42767268Y-21086273D01*
X42866361Y-21009404D01*
X42939677Y-20954403D01*
X42983582Y-20924256D01*
X42993652Y-20919382D01*
X43010106Y-20919075D01*
X43028810Y-20926318D01*
G37*
X43028810Y-20926318D02*
X43053664Y-20945244D01*
X43088564Y-20979981D01*
X43137410Y-21034661D01*
X43204100Y-21113414D01*
X43292531Y-21220370D01*
X43389991Y-21339340D01*
X43464005Y-21429732D01*
X43537214Y-21518921D01*
X43598163Y-21592958D01*
X43619651Y-21618960D01*
X43663486Y-21672193D01*
X43728772Y-21751862D01*
X43807824Y-21848572D01*
X43892956Y-21952927D01*
X43924055Y-21991100D01*
X43995061Y-22078221D01*
X44089617Y-22194123D01*
X44202033Y-22331839D01*
X44326622Y-22484403D01*
X44457695Y-22644849D01*
X44589562Y-22806209D01*
X44645645Y-22874815D01*
X44763496Y-23020127D01*
X44871397Y-23155399D01*
X44965949Y-23276197D01*
X45043756Y-23378089D01*
X45101421Y-23456643D01*
X45135547Y-23507426D01*
X45143651Y-23524643D01*
X45125829Y-23552703D01*
X45074539Y-23605759D01*
X44993046Y-23680815D01*
X44884614Y-23774875D01*
X44752505Y-23884944D01*
X44739560Y-23895538D01*
X44623375Y-23991307D01*
X44520253Y-24077884D01*
X44435269Y-24150880D01*
X44373499Y-24205901D01*
X44340017Y-24238558D01*
X44335469Y-24245182D01*
X44349403Y-24269575D01*
X44387332Y-24321585D01*
X44443447Y-24393553D01*
X44511262Y-24476997D01*
X44600741Y-24587699D01*
X44662653Y-24672187D01*
X44700908Y-24738042D01*
X44719415Y-24792845D01*
X44722082Y-24844177D01*
X44717583Y-24877117D01*
X44714713Y-24912769D01*
X44723522Y-24949172D01*
X44748691Y-24994794D01*
X44794905Y-25058103D01*
X44866845Y-25147568D01*
X44867753Y-25148675D01*
X44935784Y-25228816D01*
X44995170Y-25293557D01*
X45038920Y-25335598D01*
X45058671Y-25348034D01*
X45082747Y-25331526D01*
X45131235Y-25286172D01*
X45198196Y-25217934D01*
X45277694Y-25132775D01*
X45324248Y-25081292D01*
X45422697Y-24972604D01*
X45499624Y-24893194D01*
X45563507Y-24837229D01*
X45622822Y-24798874D01*
X45686047Y-24772297D01*
X45761660Y-24751664D01*
X45822477Y-24738468D01*
X45882033Y-24723918D01*
X45931479Y-24703975D01*
X45977151Y-24672666D01*
X46025383Y-24624018D01*
X46082510Y-24552056D01*
X46154869Y-24450808D01*
X46205833Y-24377010D01*
X46262280Y-24295665D01*
X46330336Y-24198816D01*
X46390560Y-24114031D01*
X46447679Y-24033971D01*
X46522532Y-23928755D01*
X46609743Y-23805968D01*
X46703935Y-23673198D01*
X46799733Y-23538032D01*
X46891759Y-23408056D01*
X46974638Y-23290858D01*
X47042993Y-23194023D01*
X47091448Y-23125139D01*
X47100617Y-23112037D01*
X47157328Y-23030918D01*
X47222678Y-22937552D01*
X47262254Y-22881066D01*
X47318967Y-22799666D01*
X47374759Y-22718794D01*
X47406560Y-22672167D01*
X47458379Y-22598821D01*
X47518066Y-22518804D01*
X47536169Y-22495490D01*
X47587993Y-22425434D01*
X47633661Y-22356762D01*
X47646568Y-22334934D01*
X47684410Y-22274514D01*
X47735675Y-22201632D01*
X47759413Y-22170274D01*
X47813840Y-22098512D01*
X47878438Y-22010649D01*
X47926030Y-21944278D01*
X47985133Y-21867981D01*
X48030017Y-21828425D01*
X48064339Y-21820302D01*
X48087818Y-21823995D01*
X48105714Y-21829700D01*
X48116213Y-21840448D01*
X48117503Y-21859274D01*
X48107769Y-21889212D01*
X48085199Y-21933293D01*
X48047980Y-21994552D01*
X47994299Y-22076022D01*
X47922341Y-22180737D01*
X47830295Y-22311728D01*
X47716347Y-22472031D01*
X47578683Y-22664679D01*
X47462913Y-22826442D01*
X47379658Y-22943362D01*
X47302775Y-23052441D01*
X47237526Y-23146128D01*
X47189174Y-23216871D01*
X47164105Y-23255250D01*
X47116390Y-23327889D01*
X47065543Y-23397592D01*
X47064638Y-23398742D01*
X46985467Y-23502729D01*
X46898027Y-23622955D01*
X46818800Y-23736671D01*
X46806196Y-23755423D01*
X46769239Y-23809861D01*
X46716779Y-23885476D01*
X46646021Y-23986245D01*
X46554173Y-24116146D01*
X46438438Y-24279156D01*
X46425196Y-24297780D01*
X46371114Y-24374394D01*
X46308835Y-24463413D01*
X46275105Y-24511972D01*
X46190479Y-24633275D01*
X46103404Y-24756363D01*
X46018333Y-24875125D01*
X45939716Y-24983449D01*
X45872006Y-25075224D01*
X45819653Y-25144338D01*
X45787108Y-25184679D01*
X45779756Y-25192081D01*
X45731893Y-25213706D01*
X45704485Y-25201567D01*
X45696724Y-25162896D01*
X45707801Y-25104925D01*
X45736908Y-25034885D01*
X45783237Y-24960007D01*
X45809415Y-24926747D01*
X45833572Y-24887505D01*
X45820992Y-24872545D01*
X45774456Y-24882251D01*
X45705749Y-24912439D01*
X45600643Y-24980067D01*
X45534543Y-25062193D01*
X45500520Y-25168563D01*
X45495365Y-25208371D01*
X45497921Y-25295093D01*
X45516324Y-25399857D01*
X45545957Y-25505192D01*
X45582202Y-25593623D01*
X45608070Y-25634938D01*
X45632757Y-25665487D01*
X45676036Y-25719275D01*
X45718307Y-25771911D01*
X45849563Y-25908667D01*
X45998472Y-26018058D01*
X46157693Y-26097328D01*
X46319885Y-26143725D01*
X46477706Y-26154496D01*
X46623815Y-26126888D01*
X46644390Y-26119217D01*
X46729025Y-26067997D01*
X46796308Y-25994900D01*
X46839128Y-25911612D01*
X46850376Y-25829819D01*
X46842276Y-25794005D01*
X46828759Y-25776950D01*
X46805068Y-25785797D01*
X46763578Y-25824787D01*
X46738544Y-25851681D01*
X46669066Y-25914408D01*
X46606813Y-25946134D01*
X46559134Y-25944020D01*
X46541939Y-25927655D01*
X46536157Y-25910010D01*
X46541173Y-25887362D01*
X46560275Y-25856188D01*
X46596749Y-25812961D01*
X46653882Y-25754158D01*
X46734961Y-25676253D01*
X46843272Y-25575721D01*
X46982103Y-25449037D01*
X47021928Y-25412900D01*
X47195525Y-25255411D01*
X47340258Y-25123886D01*
X47461555Y-25013357D01*
X47564842Y-24918855D01*
X47655548Y-24835414D01*
X47739100Y-24758063D01*
X47820925Y-24681835D01*
X47836675Y-24667116D01*
X48060730Y-24458373D01*
X48278663Y-24256785D01*
X48487901Y-24064644D01*
X48685867Y-23884246D01*
X48869988Y-23717884D01*
X49037690Y-23567854D01*
X49186397Y-23436450D01*
X49313535Y-23325966D01*
X49416529Y-23238696D01*
X49492806Y-23176934D01*
X49539790Y-23142976D01*
X49553705Y-23136938D01*
X49585395Y-23162436D01*
X49595267Y-23189534D01*
X49584790Y-23225596D01*
X49543367Y-23279754D01*
X49468168Y-23355414D01*
X49422852Y-23397116D01*
X49141784Y-23653566D01*
X48896445Y-23882025D01*
X48819549Y-23954184D01*
X48735106Y-24033327D01*
X48696926Y-24069073D01*
X48657160Y-24105761D01*
X48587580Y-24169378D01*
X48492629Y-24255884D01*
X48376752Y-24361241D01*
X48244392Y-24481408D01*
X48099994Y-24612344D01*
X47948001Y-24750010D01*
X47926105Y-24769829D01*
X47775473Y-24906387D01*
X47633660Y-25035376D01*
X47504780Y-25153024D01*
X47392950Y-25255554D01*
X47302283Y-25339193D01*
X47236896Y-25400165D01*
X47200903Y-25434697D01*
X47197726Y-25437958D01*
X47136474Y-25495554D01*
X47068353Y-25550288D01*
X47064953Y-25552729D01*
X47023877Y-25585529D01*
X47001528Y-25619436D01*
X46992064Y-25669620D01*
X46989668Y-25748189D01*
X46982240Y-25844664D01*
X46964509Y-25939438D01*
X46949259Y-25988302D01*
X46919154Y-26040835D01*
X46861332Y-26121117D01*
X46780113Y-26223640D01*
X46679818Y-26342891D01*
X46598378Y-26435840D01*
X46502799Y-26543674D01*
X46417380Y-26640932D01*
X46347046Y-26721936D01*
X46296721Y-26781006D01*
X46271329Y-26812463D01*
X46269705Y-26814891D01*
X46276738Y-26845359D01*
X46312923Y-26905776D01*
X46375803Y-26992421D01*
X46442887Y-27077153D01*
X46525169Y-27177482D01*
X46587852Y-27246492D01*
X46641297Y-27288012D01*
X46695860Y-27305871D01*
X46761902Y-27303897D01*
X46849780Y-27285919D01*
X46943826Y-27262320D01*
X47116832Y-27227318D01*
X47261504Y-27220533D01*
X47386929Y-27245000D01*
X47502194Y-27303754D01*
X47616387Y-27399829D01*
X47728935Y-27524545D01*
X47838464Y-27667029D01*
X47911045Y-27788420D01*
X47947652Y-27893984D01*
X47949259Y-27988988D01*
X47916841Y-28078697D01*
X47851371Y-28168377D01*
X47848593Y-28171469D01*
X47807464Y-28211775D01*
X47736541Y-28275723D01*
X47642059Y-28358068D01*
X47530254Y-28453561D01*
X47407360Y-28556956D01*
X47279612Y-28663005D01*
X47153247Y-28766462D01*
X47034498Y-28862078D01*
X46933196Y-28941821D01*
X46793934Y-29033905D01*
X46668200Y-29082877D01*
X46553869Y-29089076D01*
X46448821Y-29052839D01*
X46407587Y-29025525D01*
X46338735Y-28963606D01*
X46257201Y-28876058D01*
X46173201Y-28775451D01*
X46096955Y-28674356D01*
X46038681Y-28585344D01*
X46018128Y-28546389D01*
X45982030Y-28436799D01*
X45974752Y-28326854D01*
X46122675Y-28326854D01*
X46131021Y-28410539D01*
X46164038Y-28493035D01*
X46221984Y-28583962D01*
X46260848Y-28636198D01*
X46376333Y-28777937D01*
X46473325Y-28877444D01*
X46551887Y-28934776D01*
X46604954Y-28950394D01*
X46658667Y-28938490D01*
X46722810Y-28909464D01*
X46730976Y-28904658D01*
X46775933Y-28873264D01*
X46849499Y-28817373D01*
X46945073Y-28742372D01*
X47056057Y-28653648D01*
X47175851Y-28556589D01*
X47297856Y-28456582D01*
X47415471Y-28359017D01*
X47522098Y-28269279D01*
X47611137Y-28192758D01*
X47675988Y-28134840D01*
X47689424Y-28122201D01*
X47754209Y-28051614D01*
X47790928Y-27985832D01*
X47798367Y-27918267D01*
X47775311Y-27842330D01*
X47720547Y-27751432D01*
X47632862Y-27638985D01*
X47591408Y-27590105D01*
X47503201Y-27495161D01*
X47427498Y-27432138D01*
X47354150Y-27392713D01*
X47347648Y-27390164D01*
X47302467Y-27373824D01*
X47263279Y-27364521D01*
X47220143Y-27362834D01*
X47163120Y-27369343D01*
X47082267Y-27384628D01*
X46967644Y-27409269D01*
X46948616Y-27413437D01*
X46782311Y-27452141D01*
X46653265Y-27490397D01*
X46553103Y-27534841D01*
X46473450Y-27592110D01*
X46405928Y-27668840D01*
X46342163Y-27771669D01*
X46273779Y-27907231D01*
X46243093Y-27972460D01*
X46178968Y-28117435D01*
X46138743Y-28232360D01*
X46122675Y-28326854D01*
X45974752Y-28326854D01*
X45974406Y-28321637D01*
X45996127Y-28192639D01*
X46048065Y-28041544D01*
X46078944Y-27969852D01*
X46121282Y-27873109D01*
X46155288Y-27789965D01*
X46176965Y-27730544D01*
X46182742Y-27707011D01*
X46169074Y-27678986D01*
X46132993Y-27625197D01*
X46081878Y-27555164D01*
X46023109Y-27478408D01*
X45964067Y-27404449D01*
X45912132Y-27342809D01*
X45874685Y-27303008D01*
X45862248Y-27293574D01*
X45842339Y-27307762D01*
X45798270Y-27350770D01*
X45736020Y-27416427D01*
X45661570Y-27498561D01*
X45639706Y-27523268D01*
X45436346Y-27754374D01*
X45261069Y-27953397D01*
X45111222Y-28122722D01*
X44984152Y-28264737D01*
X44877207Y-28381825D01*
X44787732Y-28476373D01*
X44713077Y-28550767D01*
X44650587Y-28607393D01*
X44597610Y-28648635D01*
X44551493Y-28676881D01*
X44509584Y-28694515D01*
X44469229Y-28703923D01*
X44427777Y-28707491D01*
X44382573Y-28707605D01*
X44330965Y-28706651D01*
X44323924Y-28706575D01*
X44133644Y-28689315D01*
X43962944Y-28638967D01*
X43919833Y-28620044D01*
X43746493Y-28520618D01*
X43592092Y-28396473D01*
X43460184Y-28253618D01*
X43354325Y-28098066D01*
X43278068Y-27935826D01*
X43234970Y-27772910D01*
X43233321Y-27732192D01*
X43368468Y-27732192D01*
X43402461Y-27878252D01*
X43469620Y-28027764D01*
X43568182Y-28173353D01*
X43574583Y-28181227D01*
X43702203Y-28312788D01*
X43846988Y-28421546D01*
X44001355Y-28504498D01*
X44157723Y-28558644D01*
X44308510Y-28580982D01*
X44446135Y-28568511D01*
X44504821Y-28549477D01*
X44539769Y-28525894D01*
X44596516Y-28474775D01*
X44676110Y-28394985D01*
X44779605Y-28285386D01*
X44908052Y-28144841D01*
X45062501Y-27972215D01*
X45244005Y-27766370D01*
X45453614Y-27526168D01*
X45490014Y-27484260D01*
X45545180Y-27421008D01*
X45624826Y-27330089D01*
X45722848Y-27218436D01*
X45771538Y-27163054D01*
X45975548Y-27163054D01*
X45989169Y-27192558D01*
X46025570Y-27245847D01*
X46076986Y-27313451D01*
X46135654Y-27385898D01*
X46193806Y-27453718D01*
X46243679Y-27507440D01*
X46277506Y-27537592D01*
X46285382Y-27540950D01*
X46314988Y-27526166D01*
X46365601Y-27489104D01*
X46407361Y-27454175D01*
X46504979Y-27368385D01*
X46341071Y-27166523D01*
X46273913Y-27085877D01*
X46216326Y-27020551D01*
X46174931Y-26977814D01*
X46157172Y-26964662D01*
X46129378Y-26980988D01*
X46085634Y-27021397D01*
X46037710Y-27073033D01*
X45997374Y-27123041D01*
X45976395Y-27158564D01*
X45975548Y-27163054D01*
X45771538Y-27163054D01*
X45833143Y-27092983D01*
X45949608Y-26960665D01*
X46066136Y-26828417D01*
X46176626Y-26703173D01*
X46274973Y-26591866D01*
X46355072Y-26501433D01*
X46363277Y-26492190D01*
X46425579Y-26420190D01*
X46474100Y-26360620D01*
X46501967Y-26322094D01*
X46506014Y-26313235D01*
X46485580Y-26301611D01*
X46434808Y-26295366D01*
X46417842Y-26295025D01*
X46268373Y-26276008D01*
X46106598Y-26222739D01*
X45943421Y-26140894D01*
X45789744Y-26036145D01*
X45656471Y-25914169D01*
X45630874Y-25885470D01*
X45527951Y-25746337D01*
X45443394Y-25594916D01*
X45385736Y-25447320D01*
X45373439Y-25399314D01*
X45352462Y-25326024D01*
X45330465Y-25294045D01*
X45320981Y-25293893D01*
X45299331Y-25313944D01*
X45250726Y-25365306D01*
X45178371Y-25444319D01*
X45085472Y-25547322D01*
X44975233Y-25670654D01*
X44850861Y-25810653D01*
X44715560Y-25963658D01*
X44572537Y-26126009D01*
X44424996Y-26294045D01*
X44276143Y-26464104D01*
X44129182Y-26632525D01*
X43987321Y-26795648D01*
X43853763Y-26949811D01*
X43731715Y-27091353D01*
X43624381Y-27216613D01*
X43534968Y-27321931D01*
X43466679Y-27403645D01*
X43422722Y-27458093D01*
X43407028Y-27479927D01*
X43369403Y-27596958D01*
X43368468Y-27732192D01*
X43233321Y-27732192D01*
X43228585Y-27615328D01*
X43253535Y-27493426D01*
X43266793Y-27459601D01*
X43286075Y-27422743D01*
X43314679Y-27378708D01*
X43355899Y-27323350D01*
X43413033Y-27252524D01*
X43489376Y-27162083D01*
X43588224Y-27047883D01*
X43712874Y-26905777D01*
X43793214Y-26814686D01*
X43977853Y-26605616D01*
X44134246Y-26428451D01*
X44264667Y-26280437D01*
X44371393Y-26158819D01*
X44456697Y-26060846D01*
X44522856Y-25983761D01*
X44572144Y-25924813D01*
X44606837Y-25881246D01*
X44629209Y-25850308D01*
X44641536Y-25829244D01*
X44646093Y-25815301D01*
X44645155Y-25805725D01*
X44640997Y-25797762D01*
X44637794Y-25792416D01*
X44615056Y-25759930D01*
X44569101Y-25700346D01*
X44506433Y-25621913D01*
X44433553Y-25532881D01*
X44427451Y-25525518D01*
X44334021Y-25417013D01*
X44265252Y-25346607D01*
X44220552Y-25313732D01*
X44205262Y-25311697D01*
X44145365Y-25313316D01*
X44070907Y-25276673D01*
X44016695Y-25231158D01*
X44385973Y-25231158D01*
X44395290Y-25256976D01*
X44406197Y-25270768D01*
X44435607Y-25306144D01*
X44486310Y-25367547D01*
X44550319Y-25445294D01*
X44598690Y-25504162D01*
X44664221Y-25582130D01*
X44719671Y-25644667D01*
X44758277Y-25684349D01*
X44772324Y-25694662D01*
X44795481Y-25678133D01*
X44835645Y-25635913D01*
X44862695Y-25603652D01*
X44905120Y-25544672D01*
X44931512Y-25496068D01*
X44935833Y-25479493D01*
X44921875Y-25449093D01*
X44884049Y-25392165D01*
X44828424Y-25317343D01*
X44772614Y-25247264D01*
X44698557Y-25157677D01*
X44645410Y-25100780D01*
X44604138Y-25074106D01*
X44565703Y-25075191D01*
X44521069Y-25101567D01*
X44461200Y-25150768D01*
X44450924Y-25159477D01*
X44402784Y-25202973D01*
X44385973Y-25231158D01*
X44016695Y-25231158D01*
X43980381Y-25200670D01*
X43872280Y-25084207D01*
X43838958Y-25044562D01*
X43767879Y-24960568D01*
X43705682Y-24890910D01*
X43659022Y-24842784D01*
X43634550Y-24823384D01*
X43634422Y-24823356D01*
X43609647Y-24835858D01*
X43554972Y-24873868D01*
X43475889Y-24933222D01*
X43377887Y-25009759D01*
X43266456Y-25099315D01*
X43215699Y-25140856D01*
X43099378Y-25235212D01*
X42993299Y-25318696D01*
X42903146Y-25387039D01*
X42834604Y-25435974D01*
X42793360Y-25461231D01*
X42785589Y-25463753D01*
X42759760Y-25446596D01*
X42710404Y-25398846D01*
X42642706Y-25326083D01*
X42561849Y-25233887D01*
X42473018Y-25127838D01*
X42469188Y-25123162D01*
X42358055Y-24987349D01*
X42234648Y-24836538D01*
X42110669Y-24685027D01*
X41997817Y-24547115D01*
X41944852Y-24482389D01*
X41840085Y-24354215D01*
X41723914Y-24211855D01*
X41608781Y-24070570D01*
X41507126Y-23945619D01*
X41483604Y-23916662D01*
X41398413Y-23811955D01*
X41293111Y-23682861D01*
X41176919Y-23540665D01*
X41059057Y-23396652D01*
X40955321Y-23270116D01*
X40862565Y-23155484D01*
X40780663Y-23051194D01*
X40713957Y-22963029D01*
X40675826Y-22909466D01*
X40857310Y-22909466D01*
X40876338Y-22941108D01*
X40896822Y-22965880D01*
X40943805Y-23023246D01*
X41014649Y-23109969D01*
X41106716Y-23222813D01*
X41217367Y-23358541D01*
X41343964Y-23513919D01*
X41483868Y-23685708D01*
X41634443Y-23870674D01*
X41793048Y-24065580D01*
X41794003Y-24066753D01*
X41987712Y-24304677D01*
X42154527Y-24509131D01*
X42296559Y-24682583D01*
X42415919Y-24827500D01*
X42514718Y-24946350D01*
X42595067Y-25041598D01*
X42659077Y-25115713D01*
X42708860Y-25171162D01*
X42746526Y-25210412D01*
X42774186Y-25235931D01*
X42793952Y-25250186D01*
X42807934Y-25255643D01*
X42811497Y-25255934D01*
X42836661Y-25242180D01*
X42889361Y-25204849D01*
X42961578Y-25149845D01*
X43035346Y-25091154D01*
X43136531Y-25009192D01*
X43242708Y-24923270D01*
X43338104Y-24846147D01*
X43382969Y-24809919D01*
X43450179Y-24754149D01*
X43500706Y-24709298D01*
X43525931Y-24683111D01*
X43527287Y-24680202D01*
X43513449Y-24658757D01*
X43475138Y-24607777D01*
X43417158Y-24533444D01*
X43344315Y-24441937D01*
X43283702Y-24366845D01*
X43142357Y-24184812D01*
X43032608Y-24024276D01*
X42950232Y-23877587D01*
X42891003Y-23737091D01*
X42850697Y-23595140D01*
X42846292Y-23574561D01*
X42823943Y-23456312D01*
X42814577Y-23374025D01*
X42976644Y-23374025D01*
X42979057Y-23468766D01*
X43001831Y-23588610D01*
X43041444Y-23719137D01*
X43089530Y-23835844D01*
X43118586Y-23884856D01*
X43170952Y-23960734D01*
X43242632Y-24058524D01*
X43329626Y-24173268D01*
X43427937Y-24300013D01*
X43533566Y-24433802D01*
X43642515Y-24569680D01*
X43750785Y-24702692D01*
X43854380Y-24827881D01*
X43949299Y-24940293D01*
X44031546Y-25034972D01*
X44097122Y-25106962D01*
X44142028Y-25151308D01*
X44160772Y-25163571D01*
X44193515Y-25150422D01*
X44250912Y-25115698D01*
X44321407Y-25066487D01*
X44332077Y-25058534D01*
X44410419Y-24996092D01*
X44481920Y-24933027D01*
X44531201Y-24882911D01*
X44531478Y-24882582D01*
X44550031Y-24861597D01*
X44564222Y-24843506D01*
X44571654Y-24824536D01*
X44569928Y-24800909D01*
X44556648Y-24768852D01*
X44529415Y-24724588D01*
X44485833Y-24664342D01*
X44423502Y-24584339D01*
X44340027Y-24480803D01*
X44233009Y-24349960D01*
X44100050Y-24188033D01*
X44057368Y-24136025D01*
X43914427Y-23962831D01*
X43795340Y-23821623D01*
X43695496Y-23708021D01*
X43610286Y-23617644D01*
X43535097Y-23546111D01*
X43465320Y-23489043D01*
X43396344Y-23442060D01*
X43323559Y-23400780D01*
X43242352Y-23360823D01*
X43240489Y-23359950D01*
X43131372Y-23314876D01*
X43054513Y-23298340D01*
X43005687Y-23310568D01*
X42980667Y-23351786D01*
X42976644Y-23374025D01*
X42814577Y-23374025D01*
X42814324Y-23371808D01*
X42817791Y-23310301D01*
X42834703Y-23261042D01*
X42857966Y-23223492D01*
X42917968Y-23165389D01*
X42994549Y-23141469D01*
X43093767Y-23150936D01*
X43188348Y-23180084D01*
X43331959Y-23238970D01*
X43457621Y-23304687D01*
X43573157Y-23383489D01*
X43686390Y-23481629D01*
X43805145Y-23605360D01*
X43937244Y-23760936D01*
X43977560Y-23810895D01*
X44057429Y-23908395D01*
X44128816Y-23991208D01*
X44186258Y-24053329D01*
X44224290Y-24088755D01*
X44235825Y-24094663D01*
X44261599Y-24079138D01*
X44316888Y-24038836D01*
X44395626Y-23978416D01*
X44491741Y-23902537D01*
X44599167Y-23815857D01*
X44601349Y-23814078D01*
X44722731Y-23714111D01*
X44811770Y-23638047D01*
X44872735Y-23581644D01*
X44909897Y-23540658D01*
X44927525Y-23510847D01*
X44929891Y-23487969D01*
X44929844Y-23487717D01*
X44913707Y-23460706D01*
X44871099Y-23401983D01*
X44805034Y-23315246D01*
X44718524Y-23204195D01*
X44614584Y-23072530D01*
X44496227Y-22923951D01*
X44366467Y-22762157D01*
X44228318Y-22590849D01*
X44084792Y-22413727D01*
X43938905Y-22234490D01*
X43793669Y-22056838D01*
X43652098Y-21884472D01*
X43517206Y-21721090D01*
X43392006Y-21570393D01*
X43279513Y-21436080D01*
X43182739Y-21321853D01*
X43104699Y-21231409D01*
X43048406Y-21168450D01*
X43016873Y-21136674D01*
X43012384Y-21133651D01*
X42962784Y-21134432D01*
X42920020Y-21152957D01*
X42878803Y-21183352D01*
X42808201Y-21238516D01*
X42712111Y-21315221D01*
X42594431Y-21410240D01*
X42459061Y-21520348D01*
X42309897Y-21642316D01*
X42150840Y-21772920D01*
X41985786Y-21908931D01*
X41818635Y-22047123D01*
X41653284Y-22184270D01*
X41493632Y-22317145D01*
X41343577Y-22442521D01*
X41207018Y-22557171D01*
X41087852Y-22657870D01*
X40989979Y-22741390D01*
X40917296Y-22804504D01*
X40873702Y-22843987D01*
X40862515Y-22855969D01*
X40857310Y-22909466D01*
X40675826Y-22909466D01*
X40666787Y-22896770D01*
X40643494Y-22858198D01*
X40641786Y-22852495D01*
X40659031Y-22832022D01*
X40708649Y-22785619D01*
X40787007Y-22716274D01*
X40890470Y-22626974D01*
X41015403Y-22520706D01*
X41158172Y-22400459D01*
X41315142Y-22269218D01*
X41482680Y-22129972D01*
X41657150Y-21985707D01*
X41834919Y-21839411D01*
X42012351Y-21694071D01*
X42185813Y-21552675D01*
X42351670Y-21418210D01*
X42506288Y-21293663D01*
X42646032Y-21182022D01*
X42767268Y-21086273D01*
X42866361Y-21009404D01*
X42939677Y-20954403D01*
X42983582Y-20924256D01*
X42993652Y-20919382D01*
X43010106Y-20919075D01*
X43028810Y-20926318D01*
D13*
X54353560Y-40130520D02*
X61033560Y-40130520D01*
X61733560Y-33910520D02*
X60453560Y-33910520D01*
X61733560Y-32310520D02*
X61733560Y-33910520D01*
X62753560Y-32310520D02*
X61733560Y-32310520D01*
X62753560Y-36560520D02*
X62753560Y-32310520D01*
X54933560Y-33910520D02*
X54933560Y-31020520D01*
X53653560Y-33910520D02*
X54933560Y-33910520D01*
X53653560Y-32310520D02*
X53653560Y-33910520D01*
X52633560Y-32310520D02*
X53653560Y-32310520D01*
X52633560Y-36560520D02*
X52633560Y-32310520D01*
X56734956Y-19883360D02*
X57939084Y-19883360D01*
X56734956Y-18063360D02*
X57939084Y-18063360D01*
X27774440Y-17490760D02*
X30574440Y-17490760D01*
X30574440Y-17490760D02*
X30574440Y-19490760D01*
X30574440Y-19490760D02*
X27774440Y-19490760D01*
X27774440Y-19490760D02*
X27774440Y-17490760D01*
X56614600Y-46700960D02*
X60044600Y-46700960D01*
X61314600Y-42430960D02*
X59514600Y-42430960D01*
X61314600Y-43880960D02*
X61314600Y-42430960D01*
X57144600Y-42430960D02*
X57144600Y-41440960D01*
X55344600Y-42430960D02*
X57144600Y-42430960D01*
X55344600Y-43880960D02*
X55344600Y-42430960D01*
X56305800Y-29778160D02*
X60985800Y-29778160D01*
X61685800Y-23558160D02*
X60405800Y-23558160D01*
X61685800Y-21958160D02*
X61685800Y-23558160D01*
X62705800Y-21958160D02*
X61685800Y-21958160D01*
X62705800Y-26208160D02*
X62705800Y-21958160D01*
X56885800Y-23558160D02*
X56885800Y-20668160D01*
X55605800Y-23558160D02*
X56885800Y-23558160D01*
X55605800Y-21958160D02*
X55605800Y-23558160D01*
X54585800Y-21958160D02*
X55605800Y-21958160D01*
X54585800Y-26208160D02*
X54585800Y-21958160D01*
X21670000Y-45442000D02*
X21670000Y-46052000D01*
X21670000Y-45442000D02*
X14050000Y-45442000D01*
X38290000Y-45442000D02*
X37670000Y-45442000D01*
X38290000Y-43322000D02*
X38290000Y-45442000D01*
X38290000Y-29202000D02*
X38290000Y-31322000D01*
X37670000Y-29202000D02*
X38290000Y-29202000D01*
X14050000Y-29202000D02*
X21670000Y-29202000D01*
X14050000Y-45442000D02*
X14050000Y-29202000D01*
X38004160Y-25802564D02*
X38004160Y-24598436D01*
X36184160Y-25802564D02*
X36184160Y-24598436D01*
X48989200Y-16494200D02*
X50449200Y-16494200D01*
X48989200Y-19654200D02*
X51149200Y-19654200D01*
X48989200Y-19654200D02*
X48989200Y-18724200D01*
X48989200Y-16494200D02*
X48989200Y-17424200D01*
X34754736Y-20495500D02*
X35958864Y-20495500D01*
X34754736Y-18675500D02*
X35958864Y-18675500D01*
X34832536Y-17523700D02*
X36036664Y-17523700D01*
X34832536Y-15703700D02*
X36036664Y-15703700D01*
X33263160Y-24598436D02*
X33263160Y-25802564D01*
X35083160Y-24598436D02*
X35083160Y-25802564D01*
X26647996Y-26975040D02*
X27852124Y-26975040D01*
X26647996Y-25155040D02*
X27852124Y-25155040D01*
X26666436Y-24282640D02*
X27870564Y-24282640D01*
X26666436Y-22462640D02*
X27870564Y-22462640D01*
X56755760Y-14198040D02*
X58215760Y-14198040D01*
X56755760Y-17358040D02*
X58915760Y-17358040D01*
X56755760Y-17358040D02*
X56755760Y-16428040D01*
X56755760Y-14198040D02*
X56755760Y-15128040D01*
X49500200Y-31920764D02*
X49500200Y-30716636D01*
X47680200Y-31920764D02*
X47680200Y-30716636D01*
X49551000Y-37867564D02*
X49551000Y-36663436D01*
X47731000Y-37867564D02*
X47731000Y-36663436D01*
X45842000Y-30182600D02*
X45842000Y-31642600D01*
X42682000Y-30182600D02*
X42682000Y-32342600D01*
X42682000Y-30182600D02*
X43612000Y-30182600D01*
X45842000Y-30182600D02*
X44912000Y-30182600D01*
X60171920Y-15888116D02*
X60171920Y-17092244D01*
X61991920Y-15888116D02*
X61991920Y-17092244D01*
X42123000Y-19752000D02*
X42123000Y-16752000D01*
X38903000Y-18252000D02*
X38903000Y-16752000D01*
X41778600Y-37943764D02*
X41778600Y-36739636D01*
X39958600Y-37943764D02*
X39958600Y-36739636D01*
X44242400Y-37943764D02*
X44242400Y-36739636D01*
X42422400Y-37943764D02*
X42422400Y-36739636D01*
X43667000Y-17613436D02*
X43667000Y-18817564D01*
X45487000Y-17613436D02*
X45487000Y-18817564D01*
D14*
X19042226Y-22669820D02*
X19042226Y-23384106D01*
X18994607Y-23526963D01*
X18899369Y-23622201D01*
X18756512Y-23669820D01*
X18661274Y-23669820D01*
X19470798Y-22765059D02*
X19518417Y-22717440D01*
X19613655Y-22669820D01*
X19851750Y-22669820D01*
X19946988Y-22717440D01*
X19994607Y-22765059D01*
X20042226Y-22860297D01*
X20042226Y-22955535D01*
X19994607Y-23098392D01*
X19423179Y-23669820D01*
X20042226Y-23669820D01*
X56528175Y-35900180D02*
X56528175Y-34900180D01*
X56909127Y-34900180D01*
X57004365Y-34947800D01*
X57051984Y-34995419D01*
X57099603Y-35090657D01*
X57099603Y-35233514D01*
X57051984Y-35328752D01*
X57004365Y-35376371D01*
X56909127Y-35423990D01*
X56528175Y-35423990D01*
X57528175Y-35900180D02*
X57528175Y-34900180D01*
X57528175Y-35376371D02*
X58099603Y-35376371D01*
X58099603Y-35900180D02*
X58099603Y-34900180D01*
X58480556Y-34900180D02*
X59099603Y-34900180D01*
X58766270Y-35281133D01*
X58909127Y-35281133D01*
X59004365Y-35328752D01*
X59051984Y-35376371D01*
X59099603Y-35471609D01*
X59099603Y-35709704D01*
X59051984Y-35804942D01*
X59004365Y-35852561D01*
X58909127Y-35900180D01*
X58623413Y-35900180D01*
X58528175Y-35852561D01*
X58480556Y-35804942D01*
X57170353Y-17510502D02*
X57122734Y-17558121D01*
X56979877Y-17605740D01*
X56884639Y-17605740D01*
X56741781Y-17558121D01*
X56646543Y-17462883D01*
X56598924Y-17367645D01*
X56551305Y-17177169D01*
X56551305Y-17034312D01*
X56598924Y-16843836D01*
X56646543Y-16748598D01*
X56741781Y-16653360D01*
X56884639Y-16605740D01*
X56979877Y-16605740D01*
X57122734Y-16653360D01*
X57170353Y-16700979D01*
X58122734Y-17605740D02*
X57551305Y-17605740D01*
X57837020Y-17605740D02*
X57837020Y-16605740D01*
X57741781Y-16748598D01*
X57646543Y-16843836D01*
X57551305Y-16891455D01*
X28361426Y-15748580D02*
X28361426Y-16462866D01*
X28313807Y-16605723D01*
X28218569Y-16700961D01*
X28075712Y-16748580D01*
X27980474Y-16748580D01*
X28837617Y-16748580D02*
X28837617Y-15748580D01*
X29218569Y-15748580D01*
X29313807Y-15796200D01*
X29361426Y-15843819D01*
X29409045Y-15939057D01*
X29409045Y-16081914D01*
X29361426Y-16177152D01*
X29313807Y-16224771D01*
X29218569Y-16272390D01*
X28837617Y-16272390D01*
X30361426Y-16748580D02*
X29789998Y-16748580D01*
X30075712Y-16748580D02*
X30075712Y-15748580D01*
X29980474Y-15891438D01*
X29885236Y-15986676D01*
X29789998Y-16034295D01*
X57536664Y-45102720D02*
X57441426Y-45055100D01*
X57298569Y-45055100D01*
X57155712Y-45102720D01*
X57060474Y-45197958D01*
X57012855Y-45293196D01*
X56965236Y-45483672D01*
X56965236Y-45626529D01*
X57012855Y-45817005D01*
X57060474Y-45912243D01*
X57155712Y-46007481D01*
X57298569Y-46055100D01*
X57393807Y-46055100D01*
X57536664Y-46007481D01*
X57584283Y-45959862D01*
X57584283Y-45626529D01*
X57393807Y-45626529D01*
X58012855Y-46055100D02*
X58012855Y-45055100D01*
X58012855Y-45531291D02*
X58584283Y-45531291D01*
X58584283Y-46055100D02*
X58584283Y-45055100D01*
X59012855Y-45150339D02*
X59060474Y-45102720D01*
X59155712Y-45055100D01*
X59393807Y-45055100D01*
X59489045Y-45102720D01*
X59536664Y-45150339D01*
X59584283Y-45245577D01*
X59584283Y-45340815D01*
X59536664Y-45483672D01*
X58965236Y-46055100D01*
X59584283Y-46055100D01*
X57510135Y-25766140D02*
X57510135Y-24766140D01*
X57891087Y-24766140D01*
X57986325Y-24813760D01*
X58033944Y-24861379D01*
X58081563Y-24956617D01*
X58081563Y-25099474D01*
X58033944Y-25194712D01*
X57986325Y-25242331D01*
X57891087Y-25289950D01*
X57510135Y-25289950D01*
X58510135Y-25766140D02*
X58510135Y-24766140D01*
X58510135Y-25242331D02*
X59081563Y-25242331D01*
X59081563Y-25766140D02*
X59081563Y-24766140D01*
X59510135Y-24861379D02*
X59557754Y-24813760D01*
X59652992Y-24766140D01*
X59891087Y-24766140D01*
X59986325Y-24813760D01*
X60033944Y-24861379D01*
X60081563Y-24956617D01*
X60081563Y-25051855D01*
X60033944Y-25194712D01*
X59462516Y-25766140D01*
X60081563Y-25766140D01*
X39711380Y-30062904D02*
X40520904Y-30062904D01*
X40616142Y-30015285D01*
X40663761Y-29967666D01*
X40711380Y-29872428D01*
X40711380Y-29681952D01*
X40663761Y-29586714D01*
X40616142Y-29539095D01*
X40520904Y-29491476D01*
X39711380Y-29491476D01*
X39806619Y-29062904D02*
X39759000Y-29015285D01*
X39711380Y-28920047D01*
X39711380Y-28681952D01*
X39759000Y-28586714D01*
X39806619Y-28539095D01*
X39901857Y-28491476D01*
X39997095Y-28491476D01*
X40139952Y-28539095D01*
X40711380Y-29110523D01*
X40711380Y-28491476D01*
X32771340Y-26851466D02*
X32295150Y-27184800D01*
X32771340Y-27422895D02*
X31771340Y-27422895D01*
X31771340Y-27041942D01*
X31818960Y-26946704D01*
X31866579Y-26899085D01*
X31961817Y-26851466D01*
X32104674Y-26851466D01*
X32199912Y-26899085D01*
X32247531Y-26946704D01*
X32295150Y-27041942D01*
X32295150Y-27422895D01*
X31771340Y-25994323D02*
X31771340Y-26184800D01*
X31818960Y-26280038D01*
X31866579Y-26327657D01*
X32009436Y-26422895D01*
X32199912Y-26470514D01*
X32580864Y-26470514D01*
X32676102Y-26422895D01*
X32723721Y-26375276D01*
X32771340Y-26280038D01*
X32771340Y-26089561D01*
X32723721Y-25994323D01*
X32676102Y-25946704D01*
X32580864Y-25899085D01*
X32342769Y-25899085D01*
X32247531Y-25946704D01*
X32199912Y-25994323D01*
X32152293Y-26089561D01*
X32152293Y-26280038D01*
X32199912Y-26375276D01*
X32247531Y-26422895D01*
X32342769Y-26470514D01*
X49653961Y-21121819D02*
X49558723Y-21074200D01*
X49463485Y-20978961D01*
X49320628Y-20836104D01*
X49225390Y-20788485D01*
X49130152Y-20788485D01*
X49177771Y-21026580D02*
X49082533Y-20978961D01*
X48987295Y-20883723D01*
X48939676Y-20693247D01*
X48939676Y-20359914D01*
X48987295Y-20169438D01*
X49082533Y-20074200D01*
X49177771Y-20026580D01*
X49368247Y-20026580D01*
X49463485Y-20074200D01*
X49558723Y-20169438D01*
X49606342Y-20359914D01*
X49606342Y-20693247D01*
X49558723Y-20883723D01*
X49463485Y-20978961D01*
X49368247Y-21026580D01*
X49177771Y-21026580D01*
X49987295Y-20121819D02*
X50034914Y-20074200D01*
X50130152Y-20026580D01*
X50368247Y-20026580D01*
X50463485Y-20074200D01*
X50511104Y-20121819D01*
X50558723Y-20217057D01*
X50558723Y-20312295D01*
X50511104Y-20455152D01*
X49939676Y-21026580D01*
X50558723Y-21026580D01*
X35073293Y-22097820D02*
X34739960Y-21621630D01*
X34501864Y-22097820D02*
X34501864Y-21097820D01*
X34882817Y-21097820D01*
X34978055Y-21145440D01*
X35025674Y-21193059D01*
X35073293Y-21288297D01*
X35073293Y-21431154D01*
X35025674Y-21526392D01*
X34978055Y-21574011D01*
X34882817Y-21621630D01*
X34501864Y-21621630D01*
X35644721Y-21526392D02*
X35549483Y-21478773D01*
X35501864Y-21431154D01*
X35454245Y-21335916D01*
X35454245Y-21288297D01*
X35501864Y-21193059D01*
X35549483Y-21145440D01*
X35644721Y-21097820D01*
X35835198Y-21097820D01*
X35930436Y-21145440D01*
X35978055Y-21193059D01*
X36025674Y-21288297D01*
X36025674Y-21335916D01*
X35978055Y-21431154D01*
X35930436Y-21478773D01*
X35835198Y-21526392D01*
X35644721Y-21526392D01*
X35549483Y-21574011D01*
X35501864Y-21621630D01*
X35454245Y-21716868D01*
X35454245Y-21907344D01*
X35501864Y-22002582D01*
X35549483Y-22050201D01*
X35644721Y-22097820D01*
X35835198Y-22097820D01*
X35930436Y-22050201D01*
X35978055Y-22002582D01*
X36025674Y-21907344D01*
X36025674Y-21716868D01*
X35978055Y-21621630D01*
X35930436Y-21574011D01*
X35835198Y-21526392D01*
X35267933Y-15246080D02*
X34934600Y-14769890D01*
X34696504Y-15246080D02*
X34696504Y-14246080D01*
X35077457Y-14246080D01*
X35172695Y-14293700D01*
X35220314Y-14341319D01*
X35267933Y-14436557D01*
X35267933Y-14579414D01*
X35220314Y-14674652D01*
X35172695Y-14722271D01*
X35077457Y-14769890D01*
X34696504Y-14769890D01*
X35601266Y-14246080D02*
X36267933Y-14246080D01*
X35839361Y-15246080D01*
X39527740Y-26978466D02*
X39051550Y-27311800D01*
X39527740Y-27549895D02*
X38527740Y-27549895D01*
X38527740Y-27168942D01*
X38575360Y-27073704D01*
X38622979Y-27026085D01*
X38718217Y-26978466D01*
X38861074Y-26978466D01*
X38956312Y-27026085D01*
X39003931Y-27073704D01*
X39051550Y-27168942D01*
X39051550Y-27549895D01*
X38527740Y-26073704D02*
X38527740Y-26549895D01*
X39003931Y-26597514D01*
X38956312Y-26549895D01*
X38908693Y-26454657D01*
X38908693Y-26216561D01*
X38956312Y-26121323D01*
X39003931Y-26073704D01*
X39099169Y-26026085D01*
X39337264Y-26026085D01*
X39432502Y-26073704D01*
X39480121Y-26121323D01*
X39527740Y-26216561D01*
X39527740Y-26454657D01*
X39480121Y-26549895D01*
X39432502Y-26597514D01*
X30475893Y-26593620D02*
X30142560Y-26117430D01*
X29904464Y-26593620D02*
X29904464Y-25593620D01*
X30285417Y-25593620D01*
X30380655Y-25641240D01*
X30428274Y-25688859D01*
X30475893Y-25784097D01*
X30475893Y-25926954D01*
X30428274Y-26022192D01*
X30380655Y-26069811D01*
X30285417Y-26117430D01*
X29904464Y-26117430D01*
X31333036Y-25926954D02*
X31333036Y-26593620D01*
X31094940Y-25546001D02*
X30856845Y-26260287D01*
X31475893Y-26260287D01*
X30541933Y-24028220D02*
X30208600Y-23552030D01*
X29970504Y-24028220D02*
X29970504Y-23028220D01*
X30351457Y-23028220D01*
X30446695Y-23075840D01*
X30494314Y-23123459D01*
X30541933Y-23218697D01*
X30541933Y-23361554D01*
X30494314Y-23456792D01*
X30446695Y-23504411D01*
X30351457Y-23552030D01*
X29970504Y-23552030D01*
X30875266Y-23028220D02*
X31494314Y-23028220D01*
X31160980Y-23409173D01*
X31303838Y-23409173D01*
X31399076Y-23456792D01*
X31446695Y-23504411D01*
X31494314Y-23599649D01*
X31494314Y-23837744D01*
X31446695Y-23932982D01*
X31399076Y-23980601D01*
X31303838Y-24028220D01*
X31018123Y-24028220D01*
X30922885Y-23980601D01*
X30875266Y-23932982D01*
X54081775Y-14173780D02*
X54081775Y-14983304D01*
X54129394Y-15078542D01*
X54177013Y-15126161D01*
X54272251Y-15173780D01*
X54462727Y-15173780D01*
X54557965Y-15126161D01*
X54605584Y-15078542D01*
X54653203Y-14983304D01*
X54653203Y-14173780D01*
X55653203Y-15173780D02*
X55081775Y-15173780D01*
X55367489Y-15173780D02*
X55367489Y-14173780D01*
X55272251Y-14316638D01*
X55177013Y-14411876D01*
X55081775Y-14459495D01*
X47222580Y-31485366D02*
X46746390Y-31818700D01*
X47222580Y-32056795D02*
X46222580Y-32056795D01*
X46222580Y-31675842D01*
X46270200Y-31580604D01*
X46317819Y-31532985D01*
X46413057Y-31485366D01*
X46555914Y-31485366D01*
X46651152Y-31532985D01*
X46698771Y-31580604D01*
X46746390Y-31675842D01*
X46746390Y-32056795D01*
X46317819Y-31104414D02*
X46270200Y-31056795D01*
X46222580Y-30961557D01*
X46222580Y-30723461D01*
X46270200Y-30628223D01*
X46317819Y-30580604D01*
X46413057Y-30532985D01*
X46508295Y-30532985D01*
X46651152Y-30580604D01*
X47222580Y-31152033D01*
X47222580Y-30532985D01*
X47273380Y-37432166D02*
X46797190Y-37765500D01*
X47273380Y-38003595D02*
X46273380Y-38003595D01*
X46273380Y-37622642D01*
X46321000Y-37527404D01*
X46368619Y-37479785D01*
X46463857Y-37432166D01*
X46606714Y-37432166D01*
X46701952Y-37479785D01*
X46749571Y-37527404D01*
X46797190Y-37622642D01*
X46797190Y-38003595D01*
X47273380Y-36479785D02*
X47273380Y-37051214D01*
X47273380Y-36765500D02*
X46273380Y-36765500D01*
X46416238Y-36860738D01*
X46511476Y-36955976D01*
X46559095Y-37051214D01*
X42309619Y-31037838D02*
X42262000Y-31133076D01*
X42166761Y-31228314D01*
X42023904Y-31371171D01*
X41976285Y-31466409D01*
X41976285Y-31561647D01*
X42214380Y-31514028D02*
X42166761Y-31609266D01*
X42071523Y-31704504D01*
X41881047Y-31752123D01*
X41547714Y-31752123D01*
X41357238Y-31704504D01*
X41262000Y-31609266D01*
X41214380Y-31514028D01*
X41214380Y-31323552D01*
X41262000Y-31228314D01*
X41357238Y-31133076D01*
X41547714Y-31085457D01*
X41881047Y-31085457D01*
X42071523Y-31133076D01*
X42166761Y-31228314D01*
X42214380Y-31323552D01*
X42214380Y-31514028D01*
X42214380Y-30133076D02*
X42214380Y-30704504D01*
X42214380Y-30418790D02*
X41214380Y-30418790D01*
X41357238Y-30514028D01*
X41452476Y-30609266D01*
X41500095Y-30704504D01*
X60940653Y-20185822D02*
X60893034Y-20233441D01*
X60750177Y-20281060D01*
X60654939Y-20281060D01*
X60512081Y-20233441D01*
X60416843Y-20138203D01*
X60369224Y-20042965D01*
X60321605Y-19852489D01*
X60321605Y-19709632D01*
X60369224Y-19519156D01*
X60416843Y-19423918D01*
X60512081Y-19328680D01*
X60654939Y-19281060D01*
X60750177Y-19281060D01*
X60893034Y-19328680D01*
X60940653Y-19376299D01*
X61321605Y-19376299D02*
X61369224Y-19328680D01*
X61464462Y-19281060D01*
X61702558Y-19281060D01*
X61797796Y-19328680D01*
X61845415Y-19376299D01*
X61893034Y-19471537D01*
X61893034Y-19566775D01*
X61845415Y-19709632D01*
X61273986Y-20281060D01*
X61893034Y-20281060D01*
X39751095Y-14656380D02*
X39751095Y-15465904D01*
X39798714Y-15561142D01*
X39846333Y-15608761D01*
X39941571Y-15656380D01*
X40132047Y-15656380D01*
X40227285Y-15608761D01*
X40274904Y-15561142D01*
X40322523Y-15465904D01*
X40322523Y-14656380D01*
X40703476Y-14656380D02*
X41322523Y-14656380D01*
X40989190Y-15037333D01*
X41132047Y-15037333D01*
X41227285Y-15084952D01*
X41274904Y-15132571D01*
X41322523Y-15227809D01*
X41322523Y-15465904D01*
X41274904Y-15561142D01*
X41227285Y-15608761D01*
X41132047Y-15656380D01*
X40846333Y-15656380D01*
X40751095Y-15608761D01*
X40703476Y-15561142D01*
X41174942Y-41100866D02*
X41222561Y-41148485D01*
X41270180Y-41291342D01*
X41270180Y-41386580D01*
X41222561Y-41529438D01*
X41127323Y-41624676D01*
X41032085Y-41672295D01*
X40841609Y-41719914D01*
X40698752Y-41719914D01*
X40508276Y-41672295D01*
X40413038Y-41624676D01*
X40317800Y-41529438D01*
X40270180Y-41386580D01*
X40270180Y-41291342D01*
X40317800Y-41148485D01*
X40365419Y-41100866D01*
X40270180Y-40767533D02*
X40270180Y-40148485D01*
X40651133Y-40481819D01*
X40651133Y-40338961D01*
X40698752Y-40243723D01*
X40746371Y-40196104D01*
X40841609Y-40148485D01*
X41079704Y-40148485D01*
X41174942Y-40196104D01*
X41222561Y-40243723D01*
X41270180Y-40338961D01*
X41270180Y-40624676D01*
X41222561Y-40719914D01*
X41174942Y-40767533D01*
X43791142Y-40923066D02*
X43838761Y-40970685D01*
X43886380Y-41113542D01*
X43886380Y-41208780D01*
X43838761Y-41351638D01*
X43743523Y-41446876D01*
X43648285Y-41494495D01*
X43457809Y-41542114D01*
X43314952Y-41542114D01*
X43124476Y-41494495D01*
X43029238Y-41446876D01*
X42934000Y-41351638D01*
X42886380Y-41208780D01*
X42886380Y-41113542D01*
X42934000Y-40970685D01*
X42981619Y-40923066D01*
X43219714Y-40065923D02*
X43886380Y-40065923D01*
X42838761Y-40304019D02*
X43553047Y-40542114D01*
X43553047Y-39923066D01*
X46754142Y-18382166D02*
X46801761Y-18429785D01*
X46849380Y-18572642D01*
X46849380Y-18667880D01*
X46801761Y-18810738D01*
X46706523Y-18905976D01*
X46611285Y-18953595D01*
X46420809Y-19001214D01*
X46277952Y-19001214D01*
X46087476Y-18953595D01*
X45992238Y-18905976D01*
X45897000Y-18810738D01*
X45849380Y-18667880D01*
X45849380Y-18572642D01*
X45897000Y-18429785D01*
X45944619Y-18382166D01*
X45849380Y-17477404D02*
X45849380Y-17953595D01*
X46325571Y-18001214D01*
X46277952Y-17953595D01*
X46230333Y-17858357D01*
X46230333Y-17620261D01*
X46277952Y-17525023D01*
X46325571Y-17477404D01*
X46420809Y-17429785D01*
X46658904Y-17429785D01*
X46754142Y-17477404D01*
X46801761Y-17525023D01*
X46849380Y-17620261D01*
X46849380Y-17858357D01*
X46801761Y-17953595D01*
X46754142Y-18001214D01*
M02*
