G04 #@! TF.GenerationSoftware,KiCad,Pcbnew,(5.1.9-0-10_14)*
G04 #@! TF.CreationDate,2021-09-10T21:54:05+01:00*
G04 #@! TF.ProjectId,esp12f-si7021-v1.3,65737031-3266-42d7-9369-373032312d76,rev?*
G04 #@! TF.SameCoordinates,Original*
G04 #@! TF.FileFunction,Legend,Bot*
G04 #@! TF.FilePolarity,Positive*
%FSLAX46Y46*%
G04 Gerber Fmt 4.6, Leading zero omitted, Abs format (unit mm)*
G04 Created by KiCad (PCBNEW (5.1.9-0-10_14)) date 2021-09-10 21:54:05*
%MOMM*%
%LPD*%
G01*
G04 APERTURE LIST*
%ADD10C,0.100000*%
%ADD11C,0.153000*%
%ADD12C,0.150000*%
G04 APERTURE END LIST*
D10*
G36*
X49707800Y-46877800D02*
G01*
X13970000Y-46954000D01*
X13970000Y-38318000D01*
X49707800Y-38241800D01*
X49707800Y-46877800D01*
G37*
X49707800Y-46877800D02*
X13970000Y-46954000D01*
X13970000Y-38318000D01*
X49707800Y-38241800D01*
X49707800Y-46877800D01*
D11*
X62531047Y-45390380D02*
X62531047Y-46104666D01*
X62578666Y-46247523D01*
X62673904Y-46342761D01*
X62816761Y-46390380D01*
X62912000Y-46390380D01*
X61578666Y-46390380D02*
X62054857Y-46390380D01*
X62054857Y-45390380D01*
X60673904Y-46295142D02*
X60721523Y-46342761D01*
X60864380Y-46390380D01*
X60959619Y-46390380D01*
X61102476Y-46342761D01*
X61197714Y-46247523D01*
X61245333Y-46152285D01*
X61292952Y-45961809D01*
X61292952Y-45818952D01*
X61245333Y-45628476D01*
X61197714Y-45533238D01*
X61102476Y-45438000D01*
X60959619Y-45390380D01*
X60864380Y-45390380D01*
X60721523Y-45438000D01*
X60673904Y-45485619D01*
X59959619Y-45390380D02*
X59959619Y-46104666D01*
X60007238Y-46247523D01*
X60102476Y-46342761D01*
X60245333Y-46390380D01*
X60340571Y-46390380D01*
X59007238Y-46390380D02*
X59483428Y-46390380D01*
X59483428Y-45390380D01*
X58102476Y-46295142D02*
X58150095Y-46342761D01*
X58292952Y-46390380D01*
X58388190Y-46390380D01*
X58531047Y-46342761D01*
X58626285Y-46247523D01*
X58673904Y-46152285D01*
X58721523Y-45961809D01*
X58721523Y-45818952D01*
X58673904Y-45628476D01*
X58626285Y-45533238D01*
X58531047Y-45438000D01*
X58388190Y-45390380D01*
X58292952Y-45390380D01*
X58150095Y-45438000D01*
X58102476Y-45485619D01*
X57388190Y-45390380D02*
X57388190Y-46104666D01*
X57435809Y-46247523D01*
X57531047Y-46342761D01*
X57673904Y-46390380D01*
X57769142Y-46390380D01*
X56435809Y-46390380D02*
X56912000Y-46390380D01*
X56912000Y-45390380D01*
X55531047Y-46295142D02*
X55578666Y-46342761D01*
X55721523Y-46390380D01*
X55816761Y-46390380D01*
X55959619Y-46342761D01*
X56054857Y-46247523D01*
X56102476Y-46152285D01*
X56150095Y-45961809D01*
X56150095Y-45818952D01*
X56102476Y-45628476D01*
X56054857Y-45533238D01*
X55959619Y-45438000D01*
X55816761Y-45390380D01*
X55721523Y-45390380D01*
X55578666Y-45438000D01*
X55531047Y-45485619D01*
X54816761Y-45390380D02*
X54816761Y-46104666D01*
X54864380Y-46247523D01*
X54959619Y-46342761D01*
X55102476Y-46390380D01*
X55197714Y-46390380D01*
X53864380Y-46390380D02*
X54340571Y-46390380D01*
X54340571Y-45390380D01*
X52959619Y-46295142D02*
X53007238Y-46342761D01*
X53150095Y-46390380D01*
X53245333Y-46390380D01*
X53388190Y-46342761D01*
X53483428Y-46247523D01*
X53531047Y-46152285D01*
X53578666Y-45961809D01*
X53578666Y-45818952D01*
X53531047Y-45628476D01*
X53483428Y-45533238D01*
X53388190Y-45438000D01*
X53245333Y-45390380D01*
X53150095Y-45390380D01*
X53007238Y-45438000D01*
X52959619Y-45485619D01*
D12*
X23066333Y-15164380D02*
X23066333Y-15878666D01*
X23113952Y-16021523D01*
X23209190Y-16116761D01*
X23352047Y-16164380D01*
X23447285Y-16164380D01*
X22637761Y-15259619D02*
X22590142Y-15212000D01*
X22494904Y-15164380D01*
X22256809Y-15164380D01*
X22161571Y-15212000D01*
X22113952Y-15259619D01*
X22066333Y-15354857D01*
X22066333Y-15450095D01*
X22113952Y-15592952D01*
X22685380Y-16164380D01*
X22066333Y-16164380D01*
X19248380Y-21387380D02*
X18772190Y-21054047D01*
X19248380Y-20815952D02*
X18248380Y-20815952D01*
X18248380Y-21196904D01*
X18296000Y-21292142D01*
X18343619Y-21339761D01*
X18438857Y-21387380D01*
X18581714Y-21387380D01*
X18676952Y-21339761D01*
X18724571Y-21292142D01*
X18772190Y-21196904D01*
X18772190Y-20815952D01*
X19200761Y-21768333D02*
X19248380Y-21911190D01*
X19248380Y-22149285D01*
X19200761Y-22244523D01*
X19153142Y-22292142D01*
X19057904Y-22339761D01*
X18962666Y-22339761D01*
X18867428Y-22292142D01*
X18819809Y-22244523D01*
X18772190Y-22149285D01*
X18724571Y-21958809D01*
X18676952Y-21863571D01*
X18629333Y-21815952D01*
X18534095Y-21768333D01*
X18438857Y-21768333D01*
X18343619Y-21815952D01*
X18296000Y-21863571D01*
X18248380Y-21958809D01*
X18248380Y-22196904D01*
X18296000Y-22339761D01*
X18248380Y-22625476D02*
X18248380Y-23196904D01*
X19248380Y-22911190D02*
X18248380Y-22911190D01*
X16962380Y-20760333D02*
X15962380Y-20760333D01*
X15962380Y-20998428D01*
X16010000Y-21141285D01*
X16105238Y-21236523D01*
X16200476Y-21284142D01*
X16390952Y-21331761D01*
X16533809Y-21331761D01*
X16724285Y-21284142D01*
X16819523Y-21236523D01*
X16914761Y-21141285D01*
X16962380Y-20998428D01*
X16962380Y-20760333D01*
X16962380Y-22236523D02*
X16962380Y-21760333D01*
X15962380Y-21760333D01*
X21090000Y-21173095D02*
X21042380Y-21077857D01*
X21042380Y-20935000D01*
X21090000Y-20792142D01*
X21185238Y-20696904D01*
X21280476Y-20649285D01*
X21470952Y-20601666D01*
X21613809Y-20601666D01*
X21804285Y-20649285D01*
X21899523Y-20696904D01*
X21994761Y-20792142D01*
X22042380Y-20935000D01*
X22042380Y-21030238D01*
X21994761Y-21173095D01*
X21947142Y-21220714D01*
X21613809Y-21220714D01*
X21613809Y-21030238D01*
X22042380Y-21649285D02*
X21042380Y-21649285D01*
X22042380Y-22220714D01*
X21042380Y-22220714D01*
X22042380Y-22696904D02*
X21042380Y-22696904D01*
X21042380Y-22935000D01*
X21090000Y-23077857D01*
X21185238Y-23173095D01*
X21280476Y-23220714D01*
X21470952Y-23268333D01*
X21613809Y-23268333D01*
X21804285Y-23220714D01*
X21899523Y-23173095D01*
X21994761Y-23077857D01*
X22042380Y-22935000D01*
X22042380Y-22696904D01*
X24582380Y-21458761D02*
X24106190Y-21125428D01*
X24582380Y-20887333D02*
X23582380Y-20887333D01*
X23582380Y-21268285D01*
X23630000Y-21363523D01*
X23677619Y-21411142D01*
X23772857Y-21458761D01*
X23915714Y-21458761D01*
X24010952Y-21411142D01*
X24058571Y-21363523D01*
X24106190Y-21268285D01*
X24106190Y-20887333D01*
X24582380Y-21792095D02*
X23915714Y-22315904D01*
X23915714Y-21792095D02*
X24582380Y-22315904D01*
X26249380Y-20863523D02*
X26249380Y-21434952D01*
X27249380Y-21149238D02*
X26249380Y-21149238D01*
X27249380Y-21673047D02*
X26582714Y-22196857D01*
X26582714Y-21673047D02*
X27249380Y-22196857D01*
X28662380Y-20569904D02*
X28662380Y-21188952D01*
X29043333Y-20855619D01*
X29043333Y-20998476D01*
X29090952Y-21093714D01*
X29138571Y-21141333D01*
X29233809Y-21188952D01*
X29471904Y-21188952D01*
X29567142Y-21141333D01*
X29614761Y-21093714D01*
X29662380Y-20998476D01*
X29662380Y-20712761D01*
X29614761Y-20617523D01*
X29567142Y-20569904D01*
X28662380Y-21474666D02*
X29662380Y-21808000D01*
X28662380Y-22141333D01*
X28662380Y-22379428D02*
X28662380Y-22998476D01*
X29043333Y-22665142D01*
X29043333Y-22808000D01*
X29090952Y-22903238D01*
X29138571Y-22950857D01*
X29233809Y-22998476D01*
X29471904Y-22998476D01*
X29567142Y-22950857D01*
X29614761Y-22903238D01*
X29662380Y-22808000D01*
X29662380Y-22522285D01*
X29614761Y-22427047D01*
X29567142Y-22379428D01*
M02*
