G04 #@! TF.GenerationSoftware,KiCad,Pcbnew,(5.1.9-0-10_14)*
G04 #@! TF.CreationDate,2021-09-10T21:54:05+01:00*
G04 #@! TF.ProjectId,esp12f-si7021-v1.3,65737031-3266-42d7-9369-373032312d76,rev?*
G04 #@! TF.SameCoordinates,Original*
G04 #@! TF.FileFunction,Copper,L1,Top*
G04 #@! TF.FilePolarity,Positive*
%FSLAX46Y46*%
G04 Gerber Fmt 4.6, Leading zero omitted, Abs format (unit mm)*
G04 Created by KiCad (PCBNEW (5.1.9-0-10_14)) date 2021-09-10 21:54:05*
%MOMM*%
%LPD*%
G01*
G04 APERTURE LIST*
G04 #@! TA.AperFunction,SMDPad,CuDef*
%ADD10R,4.000000X1.500000*%
G04 #@! TD*
G04 #@! TA.AperFunction,SMDPad,CuDef*
%ADD11R,1.000000X2.500000*%
G04 #@! TD*
G04 #@! TA.AperFunction,SMDPad,CuDef*
%ADD12R,1.800000X1.000000*%
G04 #@! TD*
G04 #@! TA.AperFunction,SMDPad,CuDef*
%ADD13R,0.900000X0.800000*%
G04 #@! TD*
G04 #@! TA.AperFunction,SMDPad,CuDef*
%ADD14R,0.800000X0.900000*%
G04 #@! TD*
G04 #@! TA.AperFunction,ViaPad*
%ADD15C,0.800000*%
G04 #@! TD*
G04 #@! TA.AperFunction,Conductor*
%ADD16C,0.750000*%
G04 #@! TD*
G04 #@! TA.AperFunction,Conductor*
%ADD17C,0.250000*%
G04 #@! TD*
G04 #@! TA.AperFunction,Conductor*
%ADD18C,0.254000*%
G04 #@! TD*
G04 #@! TA.AperFunction,Conductor*
%ADD19C,0.100000*%
G04 #@! TD*
G04 APERTURE END LIST*
G04 #@! TA.AperFunction,SMDPad,CuDef*
G36*
G01*
X24501000Y-22914000D02*
X23251000Y-22914000D01*
G75*
G02*
X23001000Y-22664000I0J250000D01*
G01*
X23001000Y-21864000D01*
G75*
G02*
X23251000Y-21614000I250000J0D01*
G01*
X24501000Y-21614000D01*
G75*
G02*
X24751000Y-21864000I0J-250000D01*
G01*
X24751000Y-22664000D01*
G75*
G02*
X24501000Y-22914000I-250000J0D01*
G01*
G37*
G04 #@! TD.AperFunction*
G04 #@! TA.AperFunction,SMDPad,CuDef*
G36*
G01*
X24501000Y-26014000D02*
X23251000Y-26014000D01*
G75*
G02*
X23001000Y-25764000I0J250000D01*
G01*
X23001000Y-24964000D01*
G75*
G02*
X23251000Y-24714000I250000J0D01*
G01*
X24501000Y-24714000D01*
G75*
G02*
X24751000Y-24964000I0J-250000D01*
G01*
X24751000Y-25764000D01*
G75*
G02*
X24501000Y-26014000I-250000J0D01*
G01*
G37*
G04 #@! TD.AperFunction*
G04 #@! TA.AperFunction,SMDPad,CuDef*
G36*
G01*
X49452500Y-42524001D02*
X49452500Y-41223999D01*
G75*
G02*
X49702499Y-40974000I249999J0D01*
G01*
X50527501Y-40974000D01*
G75*
G02*
X50777500Y-41223999I0J-249999D01*
G01*
X50777500Y-42524001D01*
G75*
G02*
X50527501Y-42774000I-249999J0D01*
G01*
X49702499Y-42774000D01*
G75*
G02*
X49452500Y-42524001I0J249999D01*
G01*
G37*
G04 #@! TD.AperFunction*
G04 #@! TA.AperFunction,SMDPad,CuDef*
G36*
G01*
X46327500Y-42524001D02*
X46327500Y-41223999D01*
G75*
G02*
X46577499Y-40974000I249999J0D01*
G01*
X47402501Y-40974000D01*
G75*
G02*
X47652500Y-41223999I0J-249999D01*
G01*
X47652500Y-42524001D01*
G75*
G02*
X47402501Y-42774000I-249999J0D01*
G01*
X46577499Y-42774000D01*
G75*
G02*
X46327500Y-42524001I0J249999D01*
G01*
G37*
G04 #@! TD.AperFunction*
G04 #@! TA.AperFunction,SMDPad,CuDef*
G36*
G01*
X35697000Y-18861500D02*
X36947000Y-18861500D01*
G75*
G02*
X37197000Y-19111500I0J-250000D01*
G01*
X37197000Y-19911500D01*
G75*
G02*
X36947000Y-20161500I-250000J0D01*
G01*
X35697000Y-20161500D01*
G75*
G02*
X35447000Y-19911500I0J250000D01*
G01*
X35447000Y-19111500D01*
G75*
G02*
X35697000Y-18861500I250000J0D01*
G01*
G37*
G04 #@! TD.AperFunction*
G04 #@! TA.AperFunction,SMDPad,CuDef*
G36*
G01*
X35697000Y-15761500D02*
X36947000Y-15761500D01*
G75*
G02*
X37197000Y-16011500I0J-250000D01*
G01*
X37197000Y-16811500D01*
G75*
G02*
X36947000Y-17061500I-250000J0D01*
G01*
X35697000Y-17061500D01*
G75*
G02*
X35447000Y-16811500I0J250000D01*
G01*
X35447000Y-16011500D01*
G75*
G02*
X35697000Y-15761500I250000J0D01*
G01*
G37*
G04 #@! TD.AperFunction*
G04 #@! TA.AperFunction,SMDPad,CuDef*
G36*
G01*
X32649000Y-18861500D02*
X33899000Y-18861500D01*
G75*
G02*
X34149000Y-19111500I0J-250000D01*
G01*
X34149000Y-19911500D01*
G75*
G02*
X33899000Y-20161500I-250000J0D01*
G01*
X32649000Y-20161500D01*
G75*
G02*
X32399000Y-19911500I0J250000D01*
G01*
X32399000Y-19111500D01*
G75*
G02*
X32649000Y-18861500I250000J0D01*
G01*
G37*
G04 #@! TD.AperFunction*
G04 #@! TA.AperFunction,SMDPad,CuDef*
G36*
G01*
X32649000Y-15761500D02*
X33899000Y-15761500D01*
G75*
G02*
X34149000Y-16011500I0J-250000D01*
G01*
X34149000Y-16811500D01*
G75*
G02*
X33899000Y-17061500I-250000J0D01*
G01*
X32649000Y-17061500D01*
G75*
G02*
X32399000Y-16811500I0J250000D01*
G01*
X32399000Y-16011500D01*
G75*
G02*
X32649000Y-15761500I250000J0D01*
G01*
G37*
G04 #@! TD.AperFunction*
G04 #@! TA.AperFunction,SMDPad,CuDef*
G36*
G01*
X36947000Y-22903500D02*
X35697000Y-22903500D01*
G75*
G02*
X35447000Y-22653500I0J250000D01*
G01*
X35447000Y-21853500D01*
G75*
G02*
X35697000Y-21603500I250000J0D01*
G01*
X36947000Y-21603500D01*
G75*
G02*
X37197000Y-21853500I0J-250000D01*
G01*
X37197000Y-22653500D01*
G75*
G02*
X36947000Y-22903500I-250000J0D01*
G01*
G37*
G04 #@! TD.AperFunction*
G04 #@! TA.AperFunction,SMDPad,CuDef*
G36*
G01*
X36947000Y-26003500D02*
X35697000Y-26003500D01*
G75*
G02*
X35447000Y-25753500I0J250000D01*
G01*
X35447000Y-24953500D01*
G75*
G02*
X35697000Y-24703500I250000J0D01*
G01*
X36947000Y-24703500D01*
G75*
G02*
X37197000Y-24953500I0J-250000D01*
G01*
X37197000Y-25753500D01*
G75*
G02*
X36947000Y-26003500I-250000J0D01*
G01*
G37*
G04 #@! TD.AperFunction*
G04 #@! TA.AperFunction,SMDPad,CuDef*
G36*
G01*
X32649000Y-24703500D02*
X33899000Y-24703500D01*
G75*
G02*
X34149000Y-24953500I0J-250000D01*
G01*
X34149000Y-25753500D01*
G75*
G02*
X33899000Y-26003500I-250000J0D01*
G01*
X32649000Y-26003500D01*
G75*
G02*
X32399000Y-25753500I0J250000D01*
G01*
X32399000Y-24953500D01*
G75*
G02*
X32649000Y-24703500I250000J0D01*
G01*
G37*
G04 #@! TD.AperFunction*
G04 #@! TA.AperFunction,SMDPad,CuDef*
G36*
G01*
X32649000Y-21603500D02*
X33899000Y-21603500D01*
G75*
G02*
X34149000Y-21853500I0J-250000D01*
G01*
X34149000Y-22653500D01*
G75*
G02*
X33899000Y-22903500I-250000J0D01*
G01*
X32649000Y-22903500D01*
G75*
G02*
X32399000Y-22653500I0J250000D01*
G01*
X32399000Y-21853500D01*
G75*
G02*
X32649000Y-21603500I250000J0D01*
G01*
G37*
G04 #@! TD.AperFunction*
G04 #@! TA.AperFunction,SMDPad,CuDef*
G36*
G01*
X29601000Y-24703500D02*
X30851000Y-24703500D01*
G75*
G02*
X31101000Y-24953500I0J-250000D01*
G01*
X31101000Y-25753500D01*
G75*
G02*
X30851000Y-26003500I-250000J0D01*
G01*
X29601000Y-26003500D01*
G75*
G02*
X29351000Y-25753500I0J250000D01*
G01*
X29351000Y-24953500D01*
G75*
G02*
X29601000Y-24703500I250000J0D01*
G01*
G37*
G04 #@! TD.AperFunction*
G04 #@! TA.AperFunction,SMDPad,CuDef*
G36*
G01*
X29601000Y-21603500D02*
X30851000Y-21603500D01*
G75*
G02*
X31101000Y-21853500I0J-250000D01*
G01*
X31101000Y-22653500D01*
G75*
G02*
X30851000Y-22903500I-250000J0D01*
G01*
X29601000Y-22903500D01*
G75*
G02*
X29351000Y-22653500I0J250000D01*
G01*
X29351000Y-21853500D01*
G75*
G02*
X29601000Y-21603500I250000J0D01*
G01*
G37*
G04 #@! TD.AperFunction*
G04 #@! TA.AperFunction,SMDPad,CuDef*
G36*
G01*
X26553000Y-24703500D02*
X27803000Y-24703500D01*
G75*
G02*
X28053000Y-24953500I0J-250000D01*
G01*
X28053000Y-25753500D01*
G75*
G02*
X27803000Y-26003500I-250000J0D01*
G01*
X26553000Y-26003500D01*
G75*
G02*
X26303000Y-25753500I0J250000D01*
G01*
X26303000Y-24953500D01*
G75*
G02*
X26553000Y-24703500I250000J0D01*
G01*
G37*
G04 #@! TD.AperFunction*
G04 #@! TA.AperFunction,SMDPad,CuDef*
G36*
G01*
X26553000Y-21603500D02*
X27803000Y-21603500D01*
G75*
G02*
X28053000Y-21853500I0J-250000D01*
G01*
X28053000Y-22653500D01*
G75*
G02*
X27803000Y-22903500I-250000J0D01*
G01*
X26553000Y-22903500D01*
G75*
G02*
X26303000Y-22653500I0J250000D01*
G01*
X26303000Y-21853500D01*
G75*
G02*
X26553000Y-21603500I250000J0D01*
G01*
G37*
G04 #@! TD.AperFunction*
G04 #@! TA.AperFunction,SMDPad,CuDef*
G36*
G01*
X49215200Y-30418700D02*
X47965200Y-30418700D01*
G75*
G02*
X47715200Y-30168700I0J250000D01*
G01*
X47715200Y-29368700D01*
G75*
G02*
X47965200Y-29118700I250000J0D01*
G01*
X49215200Y-29118700D01*
G75*
G02*
X49465200Y-29368700I0J-250000D01*
G01*
X49465200Y-30168700D01*
G75*
G02*
X49215200Y-30418700I-250000J0D01*
G01*
G37*
G04 #@! TD.AperFunction*
G04 #@! TA.AperFunction,SMDPad,CuDef*
G36*
G01*
X49215200Y-33518700D02*
X47965200Y-33518700D01*
G75*
G02*
X47715200Y-33268700I0J250000D01*
G01*
X47715200Y-32468700D01*
G75*
G02*
X47965200Y-32218700I250000J0D01*
G01*
X49215200Y-32218700D01*
G75*
G02*
X49465200Y-32468700I0J-250000D01*
G01*
X49465200Y-33268700D01*
G75*
G02*
X49215200Y-33518700I-250000J0D01*
G01*
G37*
G04 #@! TD.AperFunction*
G04 #@! TA.AperFunction,SMDPad,CuDef*
G36*
G01*
X49266000Y-36365500D02*
X48016000Y-36365500D01*
G75*
G02*
X47766000Y-36115500I0J250000D01*
G01*
X47766000Y-35315500D01*
G75*
G02*
X48016000Y-35065500I250000J0D01*
G01*
X49266000Y-35065500D01*
G75*
G02*
X49516000Y-35315500I0J-250000D01*
G01*
X49516000Y-36115500D01*
G75*
G02*
X49266000Y-36365500I-250000J0D01*
G01*
G37*
G04 #@! TD.AperFunction*
G04 #@! TA.AperFunction,SMDPad,CuDef*
G36*
G01*
X49266000Y-39465500D02*
X48016000Y-39465500D01*
G75*
G02*
X47766000Y-39215500I0J250000D01*
G01*
X47766000Y-38415500D01*
G75*
G02*
X48016000Y-38165500I250000J0D01*
G01*
X49266000Y-38165500D01*
G75*
G02*
X49516000Y-38415500I0J-250000D01*
G01*
X49516000Y-39215500D01*
G75*
G02*
X49266000Y-39465500I-250000J0D01*
G01*
G37*
G04 #@! TD.AperFunction*
G04 #@! TA.AperFunction,SMDPad,CuDef*
G36*
G01*
X43926999Y-18861500D02*
X45227001Y-18861500D01*
G75*
G02*
X45477000Y-19111499I0J-249999D01*
G01*
X45477000Y-19936501D01*
G75*
G02*
X45227001Y-20186500I-249999J0D01*
G01*
X43926999Y-20186500D01*
G75*
G02*
X43677000Y-19936501I0J249999D01*
G01*
X43677000Y-19111499D01*
G75*
G02*
X43926999Y-18861500I249999J0D01*
G01*
G37*
G04 #@! TD.AperFunction*
G04 #@! TA.AperFunction,SMDPad,CuDef*
G36*
G01*
X43926999Y-15736500D02*
X45227001Y-15736500D01*
G75*
G02*
X45477000Y-15986499I0J-249999D01*
G01*
X45477000Y-16811501D01*
G75*
G02*
X45227001Y-17061500I-249999J0D01*
G01*
X43926999Y-17061500D01*
G75*
G02*
X43677000Y-16811501I0J249999D01*
G01*
X43677000Y-15986499D01*
G75*
G02*
X43926999Y-15736500I249999J0D01*
G01*
G37*
G04 #@! TD.AperFunction*
G04 #@! TA.AperFunction,SMDPad,CuDef*
G36*
G01*
X43982401Y-36441700D02*
X42682399Y-36441700D01*
G75*
G02*
X42432400Y-36191701I0J249999D01*
G01*
X42432400Y-35366699D01*
G75*
G02*
X42682399Y-35116700I249999J0D01*
G01*
X43982401Y-35116700D01*
G75*
G02*
X44232400Y-35366699I0J-249999D01*
G01*
X44232400Y-36191701D01*
G75*
G02*
X43982401Y-36441700I-249999J0D01*
G01*
G37*
G04 #@! TD.AperFunction*
G04 #@! TA.AperFunction,SMDPad,CuDef*
G36*
G01*
X43982401Y-39566700D02*
X42682399Y-39566700D01*
G75*
G02*
X42432400Y-39316701I0J249999D01*
G01*
X42432400Y-38491699D01*
G75*
G02*
X42682399Y-38241700I249999J0D01*
G01*
X43982401Y-38241700D01*
G75*
G02*
X44232400Y-38491699I0J-249999D01*
G01*
X44232400Y-39316701D01*
G75*
G02*
X43982401Y-39566700I-249999J0D01*
G01*
G37*
G04 #@! TD.AperFunction*
G04 #@! TA.AperFunction,SMDPad,CuDef*
G36*
G01*
X41518601Y-36441700D02*
X40218599Y-36441700D01*
G75*
G02*
X39968600Y-36191701I0J249999D01*
G01*
X39968600Y-35366699D01*
G75*
G02*
X40218599Y-35116700I249999J0D01*
G01*
X41518601Y-35116700D01*
G75*
G02*
X41768600Y-35366699I0J-249999D01*
G01*
X41768600Y-36191701D01*
G75*
G02*
X41518601Y-36441700I-249999J0D01*
G01*
G37*
G04 #@! TD.AperFunction*
G04 #@! TA.AperFunction,SMDPad,CuDef*
G36*
G01*
X41518601Y-39566700D02*
X40218599Y-39566700D01*
G75*
G02*
X39968600Y-39316701I0J249999D01*
G01*
X39968600Y-38491699D01*
G75*
G02*
X40218599Y-38241700I249999J0D01*
G01*
X41518601Y-38241700D01*
G75*
G02*
X41768600Y-38491699I0J-249999D01*
G01*
X41768600Y-39316701D01*
G75*
G02*
X41518601Y-39566700I-249999J0D01*
G01*
G37*
G04 #@! TD.AperFunction*
G04 #@! TA.AperFunction,SMDPad,CuDef*
G36*
G01*
X60431919Y-17390180D02*
X61731921Y-17390180D01*
G75*
G02*
X61981920Y-17640179I0J-249999D01*
G01*
X61981920Y-18465181D01*
G75*
G02*
X61731921Y-18715180I-249999J0D01*
G01*
X60431919Y-18715180D01*
G75*
G02*
X60181920Y-18465181I0J249999D01*
G01*
X60181920Y-17640179D01*
G75*
G02*
X60431919Y-17390180I249999J0D01*
G01*
G37*
G04 #@! TD.AperFunction*
G04 #@! TA.AperFunction,SMDPad,CuDef*
G36*
G01*
X60431919Y-14265180D02*
X61731921Y-14265180D01*
G75*
G02*
X61981920Y-14515179I0J-249999D01*
G01*
X61981920Y-15340181D01*
G75*
G02*
X61731921Y-15590180I-249999J0D01*
G01*
X60431919Y-15590180D01*
G75*
G02*
X60181920Y-15340181I0J249999D01*
G01*
X60181920Y-14515179D01*
G75*
G02*
X60431919Y-14265180I249999J0D01*
G01*
G37*
G04 #@! TD.AperFunction*
G04 #@! TA.AperFunction,SMDPad,CuDef*
G36*
G01*
X58237020Y-19623361D02*
X58237020Y-18323359D01*
G75*
G02*
X58487019Y-18073360I249999J0D01*
G01*
X59312021Y-18073360D01*
G75*
G02*
X59562020Y-18323359I0J-249999D01*
G01*
X59562020Y-19623361D01*
G75*
G02*
X59312021Y-19873360I-249999J0D01*
G01*
X58487019Y-19873360D01*
G75*
G02*
X58237020Y-19623361I0J249999D01*
G01*
G37*
G04 #@! TD.AperFunction*
G04 #@! TA.AperFunction,SMDPad,CuDef*
G36*
G01*
X55112020Y-19623361D02*
X55112020Y-18323359D01*
G75*
G02*
X55362019Y-18073360I249999J0D01*
G01*
X56187021Y-18073360D01*
G75*
G02*
X56437020Y-18323359I0J-249999D01*
G01*
X56437020Y-19623361D01*
G75*
G02*
X56187021Y-19873360I-249999J0D01*
G01*
X55362019Y-19873360D01*
G75*
G02*
X55112020Y-19623361I0J249999D01*
G01*
G37*
G04 #@! TD.AperFunction*
D10*
X40513000Y-17998000D03*
G04 #@! TA.AperFunction,SMDPad,CuDef*
G36*
G01*
X39613000Y-16948000D02*
X39413000Y-16948000D01*
G75*
G02*
X39313000Y-16848000I0J100000D01*
G01*
X39313000Y-15848000D01*
G75*
G02*
X39413000Y-15748000I100000J0D01*
G01*
X39613000Y-15748000D01*
G75*
G02*
X39713000Y-15848000I0J-100000D01*
G01*
X39713000Y-16848000D01*
G75*
G02*
X39613000Y-16948000I-100000J0D01*
G01*
G37*
G04 #@! TD.AperFunction*
G04 #@! TA.AperFunction,SMDPad,CuDef*
G36*
G01*
X40613000Y-16948000D02*
X40413000Y-16948000D01*
G75*
G02*
X40313000Y-16848000I0J100000D01*
G01*
X40313000Y-15848000D01*
G75*
G02*
X40413000Y-15748000I100000J0D01*
G01*
X40613000Y-15748000D01*
G75*
G02*
X40713000Y-15848000I0J-100000D01*
G01*
X40713000Y-16848000D01*
G75*
G02*
X40613000Y-16948000I-100000J0D01*
G01*
G37*
G04 #@! TD.AperFunction*
G04 #@! TA.AperFunction,SMDPad,CuDef*
G36*
G01*
X41613000Y-16948000D02*
X41413000Y-16948000D01*
G75*
G02*
X41313000Y-16848000I0J100000D01*
G01*
X41313000Y-15848000D01*
G75*
G02*
X41413000Y-15748000I100000J0D01*
G01*
X41613000Y-15748000D01*
G75*
G02*
X41713000Y-15848000I0J-100000D01*
G01*
X41713000Y-16848000D01*
G75*
G02*
X41613000Y-16948000I-100000J0D01*
G01*
G37*
G04 #@! TD.AperFunction*
G04 #@! TA.AperFunction,SMDPad,CuDef*
G36*
G01*
X41613000Y-20248000D02*
X41413000Y-20248000D01*
G75*
G02*
X41313000Y-20148000I0J100000D01*
G01*
X41313000Y-19148000D01*
G75*
G02*
X41413000Y-19048000I100000J0D01*
G01*
X41613000Y-19048000D01*
G75*
G02*
X41713000Y-19148000I0J-100000D01*
G01*
X41713000Y-20148000D01*
G75*
G02*
X41613000Y-20248000I-100000J0D01*
G01*
G37*
G04 #@! TD.AperFunction*
G04 #@! TA.AperFunction,SMDPad,CuDef*
G36*
G01*
X40613000Y-20248000D02*
X40413000Y-20248000D01*
G75*
G02*
X40313000Y-20148000I0J100000D01*
G01*
X40313000Y-19148000D01*
G75*
G02*
X40413000Y-19048000I100000J0D01*
G01*
X40613000Y-19048000D01*
G75*
G02*
X40713000Y-19148000I0J-100000D01*
G01*
X40713000Y-20148000D01*
G75*
G02*
X40613000Y-20248000I-100000J0D01*
G01*
G37*
G04 #@! TD.AperFunction*
G04 #@! TA.AperFunction,SMDPad,CuDef*
G36*
G01*
X39613000Y-20248000D02*
X39413000Y-20248000D01*
G75*
G02*
X39313000Y-20148000I0J100000D01*
G01*
X39313000Y-19148000D01*
G75*
G02*
X39413000Y-19048000I100000J0D01*
G01*
X39613000Y-19048000D01*
G75*
G02*
X39713000Y-19148000I0J-100000D01*
G01*
X39713000Y-20148000D01*
G75*
G02*
X39613000Y-20248000I-100000J0D01*
G01*
G37*
G04 #@! TD.AperFunction*
G04 #@! TA.AperFunction,SMDPad,CuDef*
G36*
G01*
X61293560Y-39970520D02*
X61293560Y-37070520D01*
G75*
G02*
X61543560Y-36820520I250000J0D01*
G01*
X62543560Y-36820520D01*
G75*
G02*
X62793560Y-37070520I0J-250000D01*
G01*
X62793560Y-39970520D01*
G75*
G02*
X62543560Y-40220520I-250000J0D01*
G01*
X61543560Y-40220520D01*
G75*
G02*
X61293560Y-39970520I0J250000D01*
G01*
G37*
G04 #@! TD.AperFunction*
G04 #@! TA.AperFunction,SMDPad,CuDef*
G36*
G01*
X52593560Y-39970520D02*
X52593560Y-37070520D01*
G75*
G02*
X52843560Y-36820520I250000J0D01*
G01*
X53843560Y-36820520D01*
G75*
G02*
X54093560Y-37070520I0J-250000D01*
G01*
X54093560Y-39970520D01*
G75*
G02*
X53843560Y-40220520I-250000J0D01*
G01*
X52843560Y-40220520D01*
G75*
G02*
X52593560Y-39970520I0J250000D01*
G01*
G37*
G04 #@! TD.AperFunction*
G04 #@! TA.AperFunction,SMDPad,CuDef*
G36*
G01*
X59193560Y-34270520D02*
X59193560Y-31270520D01*
G75*
G02*
X59443560Y-31020520I250000J0D01*
G01*
X59943560Y-31020520D01*
G75*
G02*
X60193560Y-31270520I0J-250000D01*
G01*
X60193560Y-34270520D01*
G75*
G02*
X59943560Y-34520520I-250000J0D01*
G01*
X59443560Y-34520520D01*
G75*
G02*
X59193560Y-34270520I0J250000D01*
G01*
G37*
G04 #@! TD.AperFunction*
G04 #@! TA.AperFunction,SMDPad,CuDef*
G36*
G01*
X57193560Y-34270520D02*
X57193560Y-31270520D01*
G75*
G02*
X57443560Y-31020520I250000J0D01*
G01*
X57943560Y-31020520D01*
G75*
G02*
X58193560Y-31270520I0J-250000D01*
G01*
X58193560Y-34270520D01*
G75*
G02*
X57943560Y-34520520I-250000J0D01*
G01*
X57443560Y-34520520D01*
G75*
G02*
X57193560Y-34270520I0J250000D01*
G01*
G37*
G04 #@! TD.AperFunction*
G04 #@! TA.AperFunction,SMDPad,CuDef*
G36*
G01*
X55193560Y-34270520D02*
X55193560Y-31270520D01*
G75*
G02*
X55443560Y-31020520I250000J0D01*
G01*
X55943560Y-31020520D01*
G75*
G02*
X56193560Y-31270520I0J-250000D01*
G01*
X56193560Y-34270520D01*
G75*
G02*
X55943560Y-34520520I-250000J0D01*
G01*
X55443560Y-34520520D01*
G75*
G02*
X55193560Y-34270520I0J250000D01*
G01*
G37*
G04 #@! TD.AperFunction*
G04 #@! TA.AperFunction,SMDPad,CuDef*
G36*
G01*
X60304600Y-46590960D02*
X60304600Y-44390960D01*
G75*
G02*
X60554600Y-44140960I250000J0D01*
G01*
X61054600Y-44140960D01*
G75*
G02*
X61304600Y-44390960I0J-250000D01*
G01*
X61304600Y-46590960D01*
G75*
G02*
X61054600Y-46840960I-250000J0D01*
G01*
X60554600Y-46840960D01*
G75*
G02*
X60304600Y-46590960I0J250000D01*
G01*
G37*
G04 #@! TD.AperFunction*
G04 #@! TA.AperFunction,SMDPad,CuDef*
G36*
G01*
X55354600Y-46590960D02*
X55354600Y-44390960D01*
G75*
G02*
X55604600Y-44140960I250000J0D01*
G01*
X56104600Y-44140960D01*
G75*
G02*
X56354600Y-44390960I0J-250000D01*
G01*
X56354600Y-46590960D01*
G75*
G02*
X56104600Y-46840960I-250000J0D01*
G01*
X55604600Y-46840960D01*
G75*
G02*
X55354600Y-46590960I0J250000D01*
G01*
G37*
G04 #@! TD.AperFunction*
G04 #@! TA.AperFunction,SMDPad,CuDef*
G36*
G01*
X58654600Y-42990960D02*
X58654600Y-41590960D01*
G75*
G02*
X58804600Y-41440960I150000J0D01*
G01*
X59104600Y-41440960D01*
G75*
G02*
X59254600Y-41590960I0J-150000D01*
G01*
X59254600Y-42990960D01*
G75*
G02*
X59104600Y-43140960I-150000J0D01*
G01*
X58804600Y-43140960D01*
G75*
G02*
X58654600Y-42990960I0J150000D01*
G01*
G37*
G04 #@! TD.AperFunction*
G04 #@! TA.AperFunction,SMDPad,CuDef*
G36*
G01*
X57404600Y-42990960D02*
X57404600Y-41590960D01*
G75*
G02*
X57554600Y-41440960I150000J0D01*
G01*
X57854600Y-41440960D01*
G75*
G02*
X58004600Y-41590960I0J-150000D01*
G01*
X58004600Y-42990960D01*
G75*
G02*
X57854600Y-43140960I-150000J0D01*
G01*
X57554600Y-43140960D01*
G75*
G02*
X57404600Y-42990960I0J150000D01*
G01*
G37*
G04 #@! TD.AperFunction*
G04 #@! TA.AperFunction,SMDPad,CuDef*
G36*
G01*
X61245800Y-29618160D02*
X61245800Y-26718160D01*
G75*
G02*
X61495800Y-26468160I250000J0D01*
G01*
X62495800Y-26468160D01*
G75*
G02*
X62745800Y-26718160I0J-250000D01*
G01*
X62745800Y-29618160D01*
G75*
G02*
X62495800Y-29868160I-250000J0D01*
G01*
X61495800Y-29868160D01*
G75*
G02*
X61245800Y-29618160I0J250000D01*
G01*
G37*
G04 #@! TD.AperFunction*
G04 #@! TA.AperFunction,SMDPad,CuDef*
G36*
G01*
X54545800Y-29618160D02*
X54545800Y-26718160D01*
G75*
G02*
X54795800Y-26468160I250000J0D01*
G01*
X55795800Y-26468160D01*
G75*
G02*
X56045800Y-26718160I0J-250000D01*
G01*
X56045800Y-29618160D01*
G75*
G02*
X55795800Y-29868160I-250000J0D01*
G01*
X54795800Y-29868160D01*
G75*
G02*
X54545800Y-29618160I0J250000D01*
G01*
G37*
G04 #@! TD.AperFunction*
G04 #@! TA.AperFunction,SMDPad,CuDef*
G36*
G01*
X59145800Y-23918160D02*
X59145800Y-20918160D01*
G75*
G02*
X59395800Y-20668160I250000J0D01*
G01*
X59895800Y-20668160D01*
G75*
G02*
X60145800Y-20918160I0J-250000D01*
G01*
X60145800Y-23918160D01*
G75*
G02*
X59895800Y-24168160I-250000J0D01*
G01*
X59395800Y-24168160D01*
G75*
G02*
X59145800Y-23918160I0J250000D01*
G01*
G37*
G04 #@! TD.AperFunction*
G04 #@! TA.AperFunction,SMDPad,CuDef*
G36*
G01*
X57145800Y-23918160D02*
X57145800Y-20918160D01*
G75*
G02*
X57395800Y-20668160I250000J0D01*
G01*
X57895800Y-20668160D01*
G75*
G02*
X58145800Y-20918160I0J-250000D01*
G01*
X58145800Y-23918160D01*
G75*
G02*
X57895800Y-24168160I-250000J0D01*
G01*
X57395800Y-24168160D01*
G75*
G02*
X57145800Y-23918160I0J250000D01*
G01*
G37*
G04 #@! TD.AperFunction*
D11*
X22670000Y-29722000D03*
X24670000Y-29722000D03*
X26670000Y-29722000D03*
X28670000Y-29722000D03*
X30670000Y-29722000D03*
X32670000Y-29722000D03*
X34670000Y-29722000D03*
X36670000Y-29722000D03*
D12*
X38170000Y-32322000D03*
X38170000Y-34322000D03*
X38170000Y-36322000D03*
X38170000Y-38322000D03*
X38170000Y-40322000D03*
X38170000Y-42322000D03*
D11*
X36670000Y-44922000D03*
X34670000Y-44922000D03*
X32670000Y-44922000D03*
X30670000Y-44922000D03*
X28670000Y-44922000D03*
X26670000Y-44922000D03*
X24670000Y-44922000D03*
X22670000Y-44922000D03*
D13*
X56515760Y-15778040D03*
X58515760Y-14828040D03*
X58515760Y-16728040D03*
D14*
X44262000Y-29942600D03*
X45212000Y-31942600D03*
X43312000Y-31942600D03*
D15*
X29210000Y-15839000D03*
X24130000Y-15839000D03*
X19050000Y-15839000D03*
X16510000Y-15839000D03*
X28702000Y-47081000D03*
X23876000Y-23840000D03*
X44551600Y-21503200D03*
X39024560Y-23662200D03*
X40513000Y-21630200D03*
X48666400Y-27878600D03*
X33121600Y-41518400D03*
X26568400Y-41518400D03*
X23749000Y-32730000D03*
X33451800Y-33746000D03*
X23545800Y-38267200D03*
X28829000Y-32958600D03*
X48793400Y-23814600D03*
X15290800Y-46496800D03*
X46329600Y-34381000D03*
X47777400Y-15635800D03*
X53019960Y-16433360D03*
X38866531Y-28872009D03*
X51531520Y-21559080D03*
X51531520Y-24373400D03*
X39065200Y-26532400D03*
X41737280Y-26120920D03*
X44922440Y-23448840D03*
X47802800Y-19903000D03*
X35209480Y-35681480D03*
X28630880Y-37992880D03*
X30840680Y-41640320D03*
X31201360Y-37992880D03*
X31150560Y-32750320D03*
X41584880Y-30108720D03*
X26228040Y-35407160D03*
X20518120Y-46608560D03*
X41798240Y-23514880D03*
X52456080Y-41640320D03*
X61269880Y-22676680D03*
X55361840Y-22676680D03*
X52451000Y-45938000D03*
X57693560Y-36138680D03*
X62108080Y-33121160D03*
X62301120Y-43921240D03*
X52684680Y-33476760D03*
X58171080Y-39969000D03*
X61020960Y-19994440D03*
X58328560Y-45755120D03*
X16637000Y-25618000D03*
X44577000Y-46065000D03*
X44577000Y-41620000D03*
X21590000Y-15839000D03*
X28575000Y-20538000D03*
X21590000Y-21554000D03*
X19431000Y-23205000D03*
X26670000Y-15839000D03*
D16*
X44704000Y-19830000D02*
X44577000Y-19703000D01*
X38005002Y-29722000D02*
X37920000Y-29722000D01*
X42024300Y-33741298D02*
X38005002Y-29722000D01*
X36670000Y-29722000D02*
X37920000Y-29722000D01*
X40513000Y-21630200D02*
X40513000Y-19952000D01*
X44577000Y-21477800D02*
X44551600Y-21503200D01*
X44577000Y-19703000D02*
X44577000Y-21477800D01*
X38973760Y-23713000D02*
X39024560Y-23662200D01*
X37094160Y-23713000D02*
X38973760Y-23713000D01*
X48666400Y-29755000D02*
X48590200Y-29831200D01*
X48666400Y-27878600D02*
X48666400Y-29755000D01*
X40868600Y-34896998D02*
X40868600Y-35854200D01*
X42024300Y-33741298D02*
X40868600Y-34896998D01*
X43332400Y-35049398D02*
X43332400Y-35854200D01*
X42024300Y-33741298D02*
X43332400Y-35049398D01*
X59220760Y-17036800D02*
X58912000Y-16728040D01*
X59220760Y-18973360D02*
X59220760Y-17036800D01*
X60161640Y-17977680D02*
X58912000Y-16728040D01*
X61478160Y-17977680D02*
X60161640Y-17977680D01*
X38016540Y-29722000D02*
X38466532Y-29272008D01*
X37920000Y-29722000D02*
X38016540Y-29722000D01*
X38466532Y-29272008D02*
X38866531Y-28872009D01*
X59664600Y-19813440D02*
X58824520Y-18973360D01*
X59664600Y-22737640D02*
X59664600Y-19813440D01*
X59193560Y-32270520D02*
X59693560Y-32770520D01*
X59145800Y-32222760D02*
X59193560Y-32270520D01*
X59145800Y-22918160D02*
X59145800Y-32222760D01*
X59645800Y-22418160D02*
X59145800Y-22918160D01*
X61011360Y-22418160D02*
X61269880Y-22676680D01*
X59645800Y-22418160D02*
X61011360Y-22418160D01*
X59693560Y-34138680D02*
X59693560Y-32770520D01*
X57693560Y-36138680D02*
X59693560Y-34138680D01*
X58954600Y-40752520D02*
X58954600Y-42290960D01*
X58171080Y-39969000D02*
X58954600Y-40752520D01*
X59693560Y-40013560D02*
X59693560Y-32770520D01*
X58954600Y-40752520D02*
X59693560Y-40013560D01*
X61020960Y-18038640D02*
X61081920Y-17977680D01*
X61020960Y-19994440D02*
X61020960Y-18038640D01*
X37094160Y-23088160D02*
X36322000Y-22316000D01*
X37094160Y-23713000D02*
X37094160Y-23088160D01*
D17*
X52222400Y-41874000D02*
X52456080Y-41640320D01*
X50115000Y-41874000D02*
X52222400Y-41874000D01*
X23909999Y-46497001D02*
X26594999Y-46497001D01*
X26594999Y-46497001D02*
X26670000Y-46422000D01*
X23844999Y-43168799D02*
X23844999Y-46432001D01*
X23844999Y-46432001D02*
X23909999Y-46497001D01*
X27495001Y-39518797D02*
X23844999Y-43168799D01*
X26670000Y-46422000D02*
X26670000Y-44922000D01*
X27432000Y-25037000D02*
X27495001Y-25100001D01*
X27495001Y-25100001D02*
X27495001Y-39518797D01*
X32670000Y-27316160D02*
X33298160Y-26688000D01*
X32670000Y-29722000D02*
X32670000Y-27316160D01*
X33274000Y-26663840D02*
X33298160Y-26688000D01*
X33274000Y-25291000D02*
X33274000Y-26663840D01*
D16*
X36670000Y-44922000D02*
X37920000Y-44922000D01*
X40868600Y-39541700D02*
X42024300Y-40697400D01*
X40868600Y-38829200D02*
X40868600Y-39541700D01*
X42024300Y-40697400D02*
X42426200Y-40697400D01*
X43332400Y-39791200D02*
X43332400Y-38829200D01*
X42426200Y-40697400D02*
X43332400Y-39791200D01*
X42024300Y-41442667D02*
X42024300Y-40697400D01*
X38544967Y-44922000D02*
X42024300Y-41442667D01*
X37920000Y-44922000D02*
X38544967Y-44922000D01*
X58064700Y-14376980D02*
X58515760Y-14828040D01*
X49151980Y-14376980D02*
X58064700Y-14376980D01*
X30480000Y-22135000D02*
X31319800Y-22135000D01*
X30407000Y-22062000D02*
X30480000Y-22135000D01*
X27432000Y-22062000D02*
X30407000Y-22062000D01*
X44577000Y-14569000D02*
X44384980Y-14376980D01*
X44577000Y-16728000D02*
X44577000Y-14569000D01*
X49151980Y-14376980D02*
X44384980Y-14376980D01*
D17*
X37011000Y-16702600D02*
X36922100Y-16613700D01*
X36209600Y-16613700D02*
X36922100Y-16613700D01*
D16*
X33274000Y-14565960D02*
X33462980Y-14376980D01*
X33462980Y-14376980D02*
X35308820Y-14376980D01*
X33274000Y-16474000D02*
X33274000Y-14565960D01*
X36895020Y-14376980D02*
X35308820Y-14376980D01*
X31455001Y-14909001D02*
X30922980Y-14376980D01*
X31455001Y-21159999D02*
X31455001Y-14909001D01*
X30480000Y-22135000D02*
X31455001Y-21159999D01*
X30922980Y-14376980D02*
X33462980Y-14376980D01*
X30480000Y-22135000D02*
X32595160Y-22135000D01*
X36322000Y-14950000D02*
X36895020Y-14376980D01*
X36322000Y-16474000D02*
X36322000Y-14950000D01*
X40513000Y-14569000D02*
X40705020Y-14376980D01*
X40705020Y-14376980D02*
X36895020Y-14376980D01*
X40513000Y-16348000D02*
X40513000Y-14569000D01*
X44384980Y-14376980D02*
X40705020Y-14376980D01*
X41529000Y-44922000D02*
X38544967Y-44922000D01*
X42885050Y-43565950D02*
X41529000Y-44922000D01*
X57254288Y-43715970D02*
X57104268Y-43565950D01*
X59404912Y-43715970D02*
X57254288Y-43715970D01*
X57104268Y-43565950D02*
X42885050Y-43565950D01*
X60718550Y-34662274D02*
X60718550Y-42402332D01*
X58515760Y-14828040D02*
X60907280Y-14828040D01*
X60768570Y-34612254D02*
X60718550Y-34662274D01*
X62193650Y-24853566D02*
X60670790Y-26376426D01*
X62531930Y-24853566D02*
X62193650Y-24853566D01*
X60670790Y-30260574D02*
X60768570Y-30358354D01*
X62611000Y-17569070D02*
X62531930Y-24853566D01*
X60670790Y-26376426D02*
X60670790Y-30260574D01*
X61081920Y-15002680D02*
X61956920Y-15002680D01*
X60907280Y-14828040D02*
X61081920Y-15002680D01*
X60768570Y-30358354D02*
X60768570Y-34612254D01*
X60718550Y-42402332D02*
X59404912Y-43715970D01*
X61956920Y-15002680D02*
X62611000Y-17569070D01*
X30672020Y-14376980D02*
X30922980Y-14376980D01*
X29210000Y-15839000D02*
X30672020Y-14376980D01*
D17*
X43536999Y-30652601D02*
X43536999Y-29232599D01*
X45136999Y-31167599D02*
X44051997Y-31167599D01*
X44051997Y-31167599D02*
X43536999Y-30652601D01*
X45212000Y-31242600D02*
X45136999Y-31167599D01*
X45212000Y-31942600D02*
X45212000Y-31242600D01*
D16*
X56245760Y-16444280D02*
X56912000Y-15778040D01*
X56245760Y-18973360D02*
X56245760Y-16444280D01*
X57664600Y-20788440D02*
X55849520Y-18973360D01*
X57664600Y-22737640D02*
X57664600Y-20788440D01*
X55693560Y-40279920D02*
X55693560Y-32770520D01*
X57704600Y-42290960D02*
X55693560Y-40279920D01*
X55693560Y-31020520D02*
X57652920Y-29061160D01*
X57652920Y-29061160D02*
X57652920Y-24622320D01*
X55693560Y-32770520D02*
X55693560Y-31020520D01*
X57652920Y-24622320D02*
X57664600Y-22737640D01*
X57664600Y-25631720D02*
X57652920Y-24622320D01*
D17*
X52415440Y-29492400D02*
X55693560Y-32770520D01*
X50076639Y-27153599D02*
X52415440Y-29492400D01*
X45615999Y-27153599D02*
X50076639Y-27153599D01*
X43536999Y-29232599D02*
X45615999Y-27153599D01*
X46463200Y-29942600D02*
X47802800Y-31282200D01*
X44262000Y-29942600D02*
X46463200Y-29942600D01*
X49841010Y-38427990D02*
X49516000Y-38753000D01*
X49841010Y-32156320D02*
X49841010Y-38427990D01*
X48966890Y-31282200D02*
X49841010Y-32156320D01*
X49516000Y-38753000D02*
X48641000Y-38753000D01*
X47802800Y-31282200D02*
X48966890Y-31282200D01*
X44704000Y-36794000D02*
X44704000Y-34000000D01*
X44704000Y-34000000D02*
X43312000Y-32642600D01*
X43940289Y-37147001D02*
X44704000Y-36794000D01*
X43312000Y-32642600D02*
X43312000Y-31942600D01*
X37359997Y-37147001D02*
X43940289Y-37147001D01*
X34670000Y-39836998D02*
X37359997Y-37147001D01*
X34670000Y-44922000D02*
X34670000Y-39836998D01*
X34670000Y-29722000D02*
X34670000Y-28728261D01*
X34670000Y-28222000D02*
X36322000Y-26570000D01*
X36322000Y-26570000D02*
X36322000Y-25291000D01*
X34670000Y-29722000D02*
X34670000Y-28222000D01*
X26670000Y-29722000D02*
X26670000Y-28972000D01*
X34275010Y-18447990D02*
X33274000Y-19449000D01*
X39513000Y-16602000D02*
X38639190Y-16602000D01*
X35211490Y-17511510D02*
X34275010Y-18447990D01*
X37729680Y-17511510D02*
X35211490Y-17511510D01*
X38639190Y-16602000D02*
X37729680Y-17511510D01*
X34474010Y-20649010D02*
X33274000Y-19449000D01*
X34137180Y-23353510D02*
X34474010Y-23016680D01*
X33310800Y-23353510D02*
X34137180Y-23353510D01*
X31844999Y-24819311D02*
X33310800Y-23353510D01*
X31844999Y-30882003D02*
X31844999Y-24819311D01*
X29909999Y-31297001D02*
X31430001Y-31297001D01*
X29844999Y-28561997D02*
X29844999Y-31232001D01*
X29025990Y-27742988D02*
X29844999Y-28561997D01*
X29025990Y-25238300D02*
X29025990Y-27742988D01*
X28041180Y-24253490D02*
X29025990Y-25238300D01*
X31430001Y-31297001D02*
X31844999Y-30882003D01*
X26314820Y-24253490D02*
X28041180Y-24253490D01*
X25977990Y-24590320D02*
X26314820Y-24253490D01*
X25977990Y-29029990D02*
X25977990Y-24590320D01*
X34474010Y-23016680D02*
X34474010Y-20649010D01*
X29844999Y-31232001D02*
X29909999Y-31297001D01*
X26670000Y-29722000D02*
X25977990Y-29029990D01*
X36960800Y-19702000D02*
X36844300Y-19585500D01*
X36131800Y-19585500D02*
X36844300Y-19585500D01*
X33844999Y-28293121D02*
X34412610Y-27725510D01*
X33844999Y-30882003D02*
X33844999Y-28293121D01*
X37046500Y-19702000D02*
X39513000Y-19702000D01*
X35121990Y-25421010D02*
X35121990Y-21193510D01*
X28670000Y-31222000D02*
X29195012Y-31747012D01*
X32979990Y-31747012D02*
X33844999Y-30882003D01*
X34412610Y-26130390D02*
X35121990Y-25421010D01*
X29195012Y-31747012D02*
X32979990Y-31747012D01*
X36830000Y-19485500D02*
X37046500Y-19702000D01*
X35121990Y-21193510D02*
X36830000Y-19485500D01*
X34412610Y-27725510D02*
X34412610Y-26130390D01*
X28670000Y-29722000D02*
X28670000Y-31222000D01*
X22670000Y-29722000D02*
X22670000Y-27206000D01*
X25044979Y-14213979D02*
X26670000Y-15839000D01*
X15789199Y-14213979D02*
X25044979Y-14213979D01*
X14884981Y-15118197D02*
X15789199Y-14213979D01*
X14884981Y-20055981D02*
X14884981Y-15118197D01*
X22035000Y-27206000D02*
X14884981Y-20055981D01*
X22670000Y-27206000D02*
X22035000Y-27206000D01*
X30822900Y-29569100D02*
X30670000Y-29722000D01*
X30670000Y-25300000D02*
X30480000Y-25110000D01*
X25953049Y-23120109D02*
X26186450Y-23353510D01*
X25953049Y-20111951D02*
X25953049Y-23120109D01*
X30226000Y-25291000D02*
X30226000Y-24348000D01*
X30670000Y-25735000D02*
X30670000Y-29722000D01*
X30226000Y-25291000D02*
X30670000Y-25735000D01*
X27777610Y-23353510D02*
X26186450Y-23353510D01*
X28772100Y-24348000D02*
X27777610Y-23353510D01*
X30226000Y-24348000D02*
X28772100Y-24348000D01*
X20500990Y-19829990D02*
X16510000Y-15839000D01*
X25671088Y-19829990D02*
X20500990Y-19829990D01*
X25953049Y-20111951D02*
X25671088Y-19829990D01*
X24670000Y-29722000D02*
X24670000Y-28972000D01*
X24670000Y-29722000D02*
X24670000Y-26666000D01*
X21082000Y-24408190D02*
X21082000Y-22951000D01*
X23339810Y-26666000D02*
X21082000Y-24408190D01*
X24670000Y-26666000D02*
X23339810Y-26666000D01*
X21082000Y-23078000D02*
X21082000Y-22951000D01*
X15975599Y-14663989D02*
X22954989Y-14663989D01*
X15334989Y-17203989D02*
X15334990Y-15304598D01*
X22954989Y-14663989D02*
X24130000Y-15839000D01*
X15334990Y-15304598D02*
X15975599Y-14663989D01*
X21082000Y-22951000D02*
X15334989Y-17203989D01*
X40005420Y-37791690D02*
X39395001Y-38402109D01*
X48641000Y-35778000D02*
X48641000Y-32857000D01*
X48641000Y-36490500D02*
X47339810Y-37791690D01*
X48641000Y-32857000D02*
X48590200Y-32806200D01*
X48641000Y-35778000D02*
X48641000Y-36490500D01*
X24745001Y-43346999D02*
X24670000Y-43422000D01*
X39395001Y-39082001D02*
X38980003Y-39496999D01*
X37009999Y-39496999D02*
X35495001Y-41011997D01*
X39395001Y-38402109D02*
X39395001Y-39082001D01*
X29430001Y-43346999D02*
X24745001Y-43346999D01*
X24670000Y-43422000D02*
X24670000Y-44922000D01*
X38980003Y-39496999D02*
X37009999Y-39496999D01*
X47339810Y-37791690D02*
X40005420Y-37791690D01*
X29844999Y-43761997D02*
X29430001Y-43346999D01*
X35495001Y-41011997D02*
X35495001Y-46432001D01*
X29844999Y-46432001D02*
X29844999Y-43761997D01*
X35495001Y-46432001D02*
X35430001Y-46497001D01*
X29909999Y-46497001D02*
X29844999Y-46432001D01*
X35430001Y-46497001D02*
X29909999Y-46497001D01*
X46990000Y-41874000D02*
X46990000Y-37683000D01*
X23876000Y-22264000D02*
X23876000Y-20280000D01*
X25527980Y-23915980D02*
X23876000Y-22264000D01*
X25444344Y-35117854D02*
X25527980Y-35034218D01*
X25444344Y-36838344D02*
X25444344Y-35117854D01*
X22351795Y-44603795D02*
X25444344Y-36838344D01*
X25527980Y-35034218D02*
X25527980Y-23915980D01*
X25444344Y-36838344D02*
X25503039Y-36690961D01*
X16161999Y-15113999D02*
X18324999Y-15113999D01*
X15784999Y-16187001D02*
X15784999Y-15490999D01*
X18324999Y-15113999D02*
X19050000Y-15839000D01*
X19877998Y-20280000D02*
X15784999Y-16187001D01*
X15784999Y-15490999D02*
X16161999Y-15113999D01*
X23876000Y-20280000D02*
X19877998Y-20280000D01*
X28670000Y-45893412D02*
X28670000Y-44922000D01*
X23876000Y-23840000D02*
X23876000Y-25364000D01*
X28670000Y-47049000D02*
X28702000Y-47081000D01*
X28670000Y-44922000D02*
X28670000Y-47049000D01*
D18*
X62815001Y-47031000D02*
X61821519Y-47031000D01*
X61875072Y-46930810D01*
X61925608Y-46764214D01*
X61942672Y-46590960D01*
X61942672Y-44390960D01*
X61925608Y-44217706D01*
X61875072Y-44051110D01*
X61793005Y-43897574D01*
X61682562Y-43762998D01*
X61547986Y-43652555D01*
X61394450Y-43570488D01*
X61227854Y-43519952D01*
X61054600Y-43502888D01*
X61046350Y-43502888D01*
X61397649Y-43151589D01*
X61436183Y-43119965D01*
X61562397Y-42966172D01*
X61656182Y-42790712D01*
X61680051Y-42712026D01*
X61713935Y-42600327D01*
X61733436Y-42402332D01*
X61728550Y-42352724D01*
X61728550Y-40858592D01*
X62543560Y-40858592D01*
X62716814Y-40841528D01*
X62815001Y-40811744D01*
X62815001Y-47031000D01*
G04 #@! TA.AperFunction,Conductor*
D19*
G36*
X62815001Y-47031000D02*
G01*
X61821519Y-47031000D01*
X61875072Y-46930810D01*
X61925608Y-46764214D01*
X61942672Y-46590960D01*
X61942672Y-44390960D01*
X61925608Y-44217706D01*
X61875072Y-44051110D01*
X61793005Y-43897574D01*
X61682562Y-43762998D01*
X61547986Y-43652555D01*
X61394450Y-43570488D01*
X61227854Y-43519952D01*
X61054600Y-43502888D01*
X61046350Y-43502888D01*
X61397649Y-43151589D01*
X61436183Y-43119965D01*
X61562397Y-42966172D01*
X61656182Y-42790712D01*
X61680051Y-42712026D01*
X61713935Y-42600327D01*
X61733436Y-42402332D01*
X61728550Y-42352724D01*
X61728550Y-40858592D01*
X62543560Y-40858592D01*
X62716814Y-40841528D01*
X62815001Y-40811744D01*
X62815001Y-47031000D01*
G37*
G04 #@! TD.AperFunction*
D18*
X21531928Y-45894282D02*
X21531928Y-46172000D01*
X21544188Y-46296482D01*
X21580498Y-46416180D01*
X21639463Y-46526494D01*
X21718815Y-46623185D01*
X21815506Y-46702537D01*
X21925820Y-46761502D01*
X22045518Y-46797812D01*
X22170000Y-46810072D01*
X23170000Y-46810072D01*
X23184561Y-46808638D01*
X23210025Y-46856277D01*
X23272993Y-46933003D01*
X23304999Y-46972002D01*
X23333997Y-46995800D01*
X23346195Y-47007998D01*
X23365072Y-47031000D01*
X14274000Y-47031000D01*
X14274000Y-45803178D01*
X21531928Y-45894282D01*
G04 #@! TA.AperFunction,Conductor*
D19*
G36*
X21531928Y-45894282D02*
G01*
X21531928Y-46172000D01*
X21544188Y-46296482D01*
X21580498Y-46416180D01*
X21639463Y-46526494D01*
X21718815Y-46623185D01*
X21815506Y-46702537D01*
X21925820Y-46761502D01*
X22045518Y-46797812D01*
X22170000Y-46810072D01*
X23170000Y-46810072D01*
X23184561Y-46808638D01*
X23210025Y-46856277D01*
X23272993Y-46933003D01*
X23304999Y-46972002D01*
X23333997Y-46995800D01*
X23346195Y-47007998D01*
X23365072Y-47031000D01*
X14274000Y-47031000D01*
X14274000Y-45803178D01*
X21531928Y-45894282D01*
G37*
G04 #@! TD.AperFunction*
D18*
X59666528Y-46590960D02*
X59683592Y-46764214D01*
X59734128Y-46930810D01*
X59787681Y-47031000D01*
X56871519Y-47031000D01*
X56925072Y-46930810D01*
X56975608Y-46764214D01*
X56992672Y-46590960D01*
X56992672Y-44692055D01*
X57056294Y-44711355D01*
X57204680Y-44725970D01*
X57204682Y-44725970D01*
X57254287Y-44730856D01*
X57303892Y-44725970D01*
X59355304Y-44725970D01*
X59404912Y-44730856D01*
X59602906Y-44711355D01*
X59602909Y-44711354D01*
X59666528Y-44692055D01*
X59666528Y-46590960D01*
G04 #@! TA.AperFunction,Conductor*
D19*
G36*
X59666528Y-46590960D02*
G01*
X59683592Y-46764214D01*
X59734128Y-46930810D01*
X59787681Y-47031000D01*
X56871519Y-47031000D01*
X56925072Y-46930810D01*
X56975608Y-46764214D01*
X56992672Y-46590960D01*
X56992672Y-44692055D01*
X57056294Y-44711355D01*
X57204680Y-44725970D01*
X57204682Y-44725970D01*
X57254287Y-44730856D01*
X57303892Y-44725970D01*
X59355304Y-44725970D01*
X59404912Y-44730856D01*
X59602906Y-44711355D01*
X59602909Y-44711354D01*
X59666528Y-44692055D01*
X59666528Y-46590960D01*
G37*
G04 #@! TD.AperFunction*
D18*
X54716528Y-46590960D02*
X54733592Y-46764214D01*
X54784128Y-46930810D01*
X54837681Y-47031000D01*
X37573214Y-47031000D01*
X37609998Y-46632366D01*
X37621185Y-46623185D01*
X37700537Y-46526494D01*
X37759502Y-46416180D01*
X37795812Y-46296482D01*
X37808072Y-46172000D01*
X37808072Y-45932000D01*
X38495359Y-45932000D01*
X38544967Y-45936886D01*
X38594575Y-45932000D01*
X41479392Y-45932000D01*
X41529000Y-45936886D01*
X41726994Y-45917385D01*
X41810677Y-45892000D01*
X41917380Y-45859632D01*
X42092840Y-45765847D01*
X42246633Y-45639633D01*
X42278261Y-45601094D01*
X43303405Y-44575950D01*
X54716528Y-44575950D01*
X54716528Y-46590960D01*
G04 #@! TA.AperFunction,Conductor*
D19*
G36*
X54716528Y-46590960D02*
G01*
X54733592Y-46764214D01*
X54784128Y-46930810D01*
X54837681Y-47031000D01*
X37573214Y-47031000D01*
X37609998Y-46632366D01*
X37621185Y-46623185D01*
X37700537Y-46526494D01*
X37759502Y-46416180D01*
X37795812Y-46296482D01*
X37808072Y-46172000D01*
X37808072Y-45932000D01*
X38495359Y-45932000D01*
X38544967Y-45936886D01*
X38594575Y-45932000D01*
X41479392Y-45932000D01*
X41529000Y-45936886D01*
X41726994Y-45917385D01*
X41810677Y-45892000D01*
X41917380Y-45859632D01*
X42092840Y-45765847D01*
X42246633Y-45639633D01*
X42278261Y-45601094D01*
X43303405Y-44575950D01*
X54716528Y-44575950D01*
X54716528Y-46590960D01*
G37*
G04 #@! TD.AperFunction*
D18*
X46230000Y-40407616D02*
X46084113Y-40485595D01*
X45949538Y-40596038D01*
X45839095Y-40730613D01*
X45757028Y-40884149D01*
X45706492Y-41050745D01*
X45689428Y-41223999D01*
X45689428Y-42524001D01*
X45692575Y-42555950D01*
X42934654Y-42555950D01*
X42885049Y-42551064D01*
X42835444Y-42555950D01*
X42835442Y-42555950D01*
X42687056Y-42570565D01*
X42496670Y-42628318D01*
X42321210Y-42722103D01*
X42167417Y-42848317D01*
X42135789Y-42886856D01*
X41110645Y-43912000D01*
X40983322Y-43912000D01*
X42703400Y-42191923D01*
X42741933Y-42160300D01*
X42868147Y-42006507D01*
X42961932Y-41831047D01*
X42983181Y-41760999D01*
X43019685Y-41640662D01*
X43026103Y-41575497D01*
X44043222Y-40514423D01*
X44050033Y-40508833D01*
X44058680Y-40498297D01*
X44512000Y-40025385D01*
X44610362Y-39944662D01*
X44720805Y-39810087D01*
X44723862Y-39804368D01*
X45212241Y-39294883D01*
X45227625Y-39275309D01*
X45238894Y-39253109D01*
X45245616Y-39229137D01*
X45247079Y-39195959D01*
X45190854Y-38551690D01*
X46230001Y-38551690D01*
X46230000Y-40407616D01*
G04 #@! TA.AperFunction,Conductor*
D19*
G36*
X46230000Y-40407616D02*
G01*
X46084113Y-40485595D01*
X45949538Y-40596038D01*
X45839095Y-40730613D01*
X45757028Y-40884149D01*
X45706492Y-41050745D01*
X45689428Y-41223999D01*
X45689428Y-42524001D01*
X45692575Y-42555950D01*
X42934654Y-42555950D01*
X42885049Y-42551064D01*
X42835444Y-42555950D01*
X42835442Y-42555950D01*
X42687056Y-42570565D01*
X42496670Y-42628318D01*
X42321210Y-42722103D01*
X42167417Y-42848317D01*
X42135789Y-42886856D01*
X41110645Y-43912000D01*
X40983322Y-43912000D01*
X42703400Y-42191923D01*
X42741933Y-42160300D01*
X42868147Y-42006507D01*
X42961932Y-41831047D01*
X42983181Y-41760999D01*
X43019685Y-41640662D01*
X43026103Y-41575497D01*
X44043222Y-40514423D01*
X44050033Y-40508833D01*
X44058680Y-40498297D01*
X44512000Y-40025385D01*
X44610362Y-39944662D01*
X44720805Y-39810087D01*
X44723862Y-39804368D01*
X45212241Y-39294883D01*
X45227625Y-39275309D01*
X45238894Y-39253109D01*
X45245616Y-39229137D01*
X45247079Y-39195959D01*
X45190854Y-38551690D01*
X46230001Y-38551690D01*
X46230000Y-40407616D01*
G37*
G04 #@! TD.AperFunction*
D18*
X55427688Y-15849034D02*
X55401914Y-15880440D01*
X55308128Y-16055901D01*
X55250375Y-16246286D01*
X55230874Y-16444280D01*
X55235761Y-16493897D01*
X55235761Y-17447723D01*
X55188765Y-17452352D01*
X55022169Y-17502888D01*
X54868633Y-17584955D01*
X54734058Y-17695398D01*
X54623615Y-17829973D01*
X54541548Y-17983509D01*
X54491012Y-18150105D01*
X54473948Y-18323359D01*
X54473948Y-19623361D01*
X54491012Y-19796615D01*
X54541548Y-19963211D01*
X54623615Y-20116747D01*
X54734058Y-20251322D01*
X54868633Y-20361765D01*
X55022169Y-20443832D01*
X55188765Y-20494368D01*
X55362019Y-20511432D01*
X55959237Y-20511432D01*
X56507728Y-21059924D01*
X56507728Y-23918160D01*
X56524792Y-24091414D01*
X56575328Y-24258010D01*
X56644358Y-24387156D01*
X56643227Y-24569602D01*
X56642921Y-24572712D01*
X56642921Y-24578562D01*
X56642414Y-24584402D01*
X56642884Y-24625015D01*
X56642632Y-24665667D01*
X56642921Y-24668800D01*
X56642921Y-26466159D01*
X56616272Y-26378310D01*
X56534205Y-26224774D01*
X56423762Y-26090198D01*
X56289186Y-25979755D01*
X56135650Y-25897688D01*
X55969054Y-25847152D01*
X55795800Y-25830088D01*
X54795800Y-25830088D01*
X54622546Y-25847152D01*
X54455950Y-25897688D01*
X54302414Y-25979755D01*
X54167838Y-26090198D01*
X54057395Y-26224774D01*
X53975328Y-26378310D01*
X53924792Y-26544906D01*
X53907728Y-26718160D01*
X53907728Y-29618160D01*
X53924792Y-29791414D01*
X53975328Y-29958010D01*
X53997693Y-29999852D01*
X52979244Y-28981402D01*
X52979239Y-28981397D01*
X50640443Y-26642602D01*
X50616640Y-26613598D01*
X50500915Y-26518625D01*
X50368886Y-26448053D01*
X50225625Y-26404596D01*
X50113972Y-26393599D01*
X50113961Y-26393599D01*
X50076639Y-26389923D01*
X50039317Y-26393599D01*
X45653321Y-26393599D01*
X45615999Y-26389923D01*
X45578676Y-26393599D01*
X45578666Y-26393599D01*
X45467013Y-26404596D01*
X45348500Y-26440546D01*
X45323752Y-26448053D01*
X45191722Y-26518625D01*
X45111488Y-26584472D01*
X45075998Y-26613598D01*
X45052200Y-26642596D01*
X43025997Y-28668800D01*
X42996999Y-28692598D01*
X42973201Y-28721596D01*
X42973200Y-28721597D01*
X42902025Y-28808323D01*
X42831453Y-28940353D01*
X42811752Y-29005301D01*
X42787997Y-29083613D01*
X42784541Y-29118700D01*
X42773323Y-29232599D01*
X42777000Y-29269931D01*
X42776999Y-30615278D01*
X42773323Y-30652601D01*
X42776999Y-30689923D01*
X42776999Y-30689933D01*
X42787996Y-30801586D01*
X42807187Y-30864851D01*
X42787518Y-30866788D01*
X42667820Y-30903098D01*
X42557506Y-30962063D01*
X42460815Y-31041415D01*
X42381463Y-31138106D01*
X42322498Y-31248420D01*
X42286188Y-31368118D01*
X42273928Y-31492600D01*
X42273928Y-32004842D01*
X37675029Y-28031420D01*
X37654686Y-28017069D01*
X37631933Y-28006962D01*
X37607646Y-28001488D01*
X37597316Y-28001226D01*
X37524494Y-27941463D01*
X37414180Y-27882498D01*
X37294482Y-27846188D01*
X37170000Y-27833928D01*
X36955750Y-27837000D01*
X36797000Y-27995750D01*
X36797000Y-29595000D01*
X36817000Y-29595000D01*
X36817000Y-29667915D01*
X36717734Y-29907752D01*
X36710513Y-29931578D01*
X36708080Y-29956355D01*
X36710527Y-29981131D01*
X36717761Y-30004953D01*
X36729503Y-30026907D01*
X36746577Y-30047404D01*
X36797000Y-30096398D01*
X36797000Y-31397397D01*
X36739463Y-31467506D01*
X36680498Y-31577820D01*
X36644188Y-31697518D01*
X36631928Y-31822000D01*
X36631928Y-32822000D01*
X36644188Y-32946482D01*
X36680498Y-33066180D01*
X36739463Y-33176494D01*
X36818815Y-33273185D01*
X36878296Y-33322000D01*
X36818815Y-33370815D01*
X36739463Y-33467506D01*
X36680498Y-33577820D01*
X36644188Y-33697518D01*
X36631928Y-33822000D01*
X36631928Y-34822000D01*
X36644188Y-34946482D01*
X36680498Y-35066180D01*
X36739463Y-35176494D01*
X36818815Y-35273185D01*
X36878296Y-35322000D01*
X36818815Y-35370815D01*
X36739463Y-35467506D01*
X36680498Y-35577820D01*
X36644188Y-35697518D01*
X36631928Y-35822000D01*
X36631928Y-36800268D01*
X34158998Y-39273199D01*
X34130000Y-39296997D01*
X34106202Y-39325995D01*
X34106201Y-39325996D01*
X34035026Y-39412722D01*
X33964454Y-39544752D01*
X33934180Y-39644556D01*
X33930542Y-39656551D01*
X33920998Y-39688013D01*
X33906324Y-39836998D01*
X33910001Y-39874330D01*
X33910000Y-43090954D01*
X33815506Y-43141463D01*
X33718815Y-43220815D01*
X33670000Y-43280296D01*
X33621185Y-43220815D01*
X33524494Y-43141463D01*
X33414180Y-43082498D01*
X33294482Y-43046188D01*
X33170000Y-43033928D01*
X32170000Y-43033928D01*
X32045518Y-43046188D01*
X31925820Y-43082498D01*
X31815506Y-43141463D01*
X31718815Y-43220815D01*
X31670000Y-43280296D01*
X31621185Y-43220815D01*
X31524494Y-43141463D01*
X31414180Y-43082498D01*
X31294482Y-43046188D01*
X31170000Y-43033928D01*
X30191731Y-43033928D01*
X29993805Y-42836002D01*
X29970002Y-42806998D01*
X29854277Y-42712025D01*
X29722248Y-42641453D01*
X29578987Y-42597996D01*
X29467334Y-42586999D01*
X29467323Y-42586999D01*
X29430001Y-42583323D01*
X29392679Y-42586999D01*
X25501600Y-42586999D01*
X28006004Y-40082596D01*
X28035002Y-40058798D01*
X28129975Y-39943073D01*
X28200547Y-39811044D01*
X28244004Y-39667783D01*
X28255001Y-39556130D01*
X28255001Y-39556121D01*
X28258677Y-39518798D01*
X28255001Y-39481475D01*
X28255001Y-31881802D01*
X28631212Y-32258014D01*
X28655011Y-32287013D01*
X28684009Y-32310811D01*
X28770735Y-32381986D01*
X28895297Y-32448566D01*
X28902765Y-32452558D01*
X29046026Y-32496015D01*
X29157679Y-32507012D01*
X29157688Y-32507012D01*
X29195011Y-32510688D01*
X29232334Y-32507012D01*
X32942668Y-32507012D01*
X32979990Y-32510688D01*
X33017312Y-32507012D01*
X33017323Y-32507012D01*
X33128976Y-32496015D01*
X33272237Y-32452558D01*
X33404266Y-32381986D01*
X33519991Y-32287013D01*
X33543793Y-32258010D01*
X34191733Y-31610072D01*
X35170000Y-31610072D01*
X35294482Y-31597812D01*
X35414180Y-31561502D01*
X35524494Y-31502537D01*
X35621185Y-31423185D01*
X35670000Y-31363704D01*
X35718815Y-31423185D01*
X35815506Y-31502537D01*
X35925820Y-31561502D01*
X36045518Y-31597812D01*
X36170000Y-31610072D01*
X36384250Y-31607000D01*
X36543000Y-31448250D01*
X36543000Y-29849000D01*
X36523000Y-29849000D01*
X36523000Y-29595000D01*
X36543000Y-29595000D01*
X36543000Y-27995750D01*
X36384250Y-27837000D01*
X36170000Y-27833928D01*
X36128818Y-27837984D01*
X36833004Y-27133798D01*
X36862001Y-27110001D01*
X36956974Y-26994276D01*
X37027546Y-26862247D01*
X37071003Y-26718986D01*
X37079917Y-26628481D01*
X37120254Y-26624508D01*
X37286850Y-26573972D01*
X37440386Y-26491905D01*
X37574962Y-26381462D01*
X37685405Y-26246886D01*
X37767472Y-26093350D01*
X37818008Y-25926754D01*
X37835072Y-25753500D01*
X37835072Y-24953500D01*
X37818008Y-24780246D01*
X37767472Y-24613650D01*
X37685405Y-24460114D01*
X37574962Y-24325538D01*
X37440386Y-24215095D01*
X37286850Y-24133028D01*
X37120254Y-24082492D01*
X36947000Y-24065428D01*
X35881990Y-24065428D01*
X35881990Y-23539304D01*
X36036250Y-23538500D01*
X36195000Y-23379750D01*
X36195000Y-22380500D01*
X36449000Y-22380500D01*
X36449000Y-23379750D01*
X36607750Y-23538500D01*
X37197000Y-23541572D01*
X37321482Y-23529312D01*
X37441180Y-23493002D01*
X37551494Y-23434037D01*
X37648185Y-23354685D01*
X37727537Y-23257994D01*
X37786502Y-23147680D01*
X37822812Y-23027982D01*
X37835072Y-22903500D01*
X37832000Y-22539250D01*
X37673250Y-22380500D01*
X36449000Y-22380500D01*
X36195000Y-22380500D01*
X36175000Y-22380500D01*
X36175000Y-22126500D01*
X36195000Y-22126500D01*
X36195000Y-22106500D01*
X36449000Y-22106500D01*
X36449000Y-22126500D01*
X37673250Y-22126500D01*
X37832000Y-21967750D01*
X37835072Y-21603500D01*
X37822812Y-21479018D01*
X37786502Y-21359320D01*
X37727537Y-21249006D01*
X37648185Y-21152315D01*
X37551494Y-21072963D01*
X37441180Y-21013998D01*
X37321482Y-20977688D01*
X37197000Y-20965428D01*
X36607750Y-20968500D01*
X36449002Y-21127248D01*
X36449002Y-20968500D01*
X36421802Y-20968500D01*
X36590730Y-20799572D01*
X36947000Y-20799572D01*
X37120254Y-20782508D01*
X37286850Y-20731972D01*
X37440386Y-20649905D01*
X37574962Y-20539462D01*
X37638533Y-20462000D01*
X38747975Y-20462000D01*
X38799316Y-20558051D01*
X38891104Y-20669896D01*
X39002949Y-20761684D01*
X39130552Y-20829890D01*
X39269009Y-20871890D01*
X39413000Y-20886072D01*
X39613000Y-20886072D01*
X39756991Y-20871890D01*
X39895448Y-20829890D01*
X39975709Y-20786989D01*
X40058659Y-20833189D01*
X40177711Y-20871564D01*
X40281250Y-20883000D01*
X40440000Y-20724250D01*
X40440000Y-19775000D01*
X40366000Y-19775000D01*
X40366000Y-19521000D01*
X40440000Y-19521000D01*
X40440000Y-19501000D01*
X40586000Y-19501000D01*
X40586000Y-19521000D01*
X40660000Y-19521000D01*
X40660000Y-19775000D01*
X40586000Y-19775000D01*
X40586000Y-20724250D01*
X40744750Y-20883000D01*
X40848289Y-20871564D01*
X40967341Y-20833189D01*
X41050291Y-20786989D01*
X41130552Y-20829890D01*
X41269009Y-20871890D01*
X41413000Y-20886072D01*
X41613000Y-20886072D01*
X41756991Y-20871890D01*
X41895448Y-20829890D01*
X42023051Y-20761684D01*
X42134896Y-20669896D01*
X42226684Y-20558051D01*
X42294890Y-20430448D01*
X42336890Y-20291991D01*
X42347280Y-20186500D01*
X43038928Y-20186500D01*
X43051188Y-20310982D01*
X43087498Y-20430680D01*
X43146463Y-20540994D01*
X43225815Y-20637685D01*
X43322506Y-20717037D01*
X43432820Y-20776002D01*
X43552518Y-20812312D01*
X43677000Y-20824572D01*
X44291250Y-20821500D01*
X44450000Y-20662750D01*
X44450000Y-19651000D01*
X44704000Y-19651000D01*
X44704000Y-20662750D01*
X44862750Y-20821500D01*
X45477000Y-20824572D01*
X45601482Y-20812312D01*
X45721180Y-20776002D01*
X45831494Y-20717037D01*
X45928185Y-20637685D01*
X46007537Y-20540994D01*
X46066502Y-20430680D01*
X46102812Y-20310982D01*
X46115072Y-20186500D01*
X46112000Y-19809750D01*
X45953250Y-19651000D01*
X44704000Y-19651000D01*
X44450000Y-19651000D01*
X43200750Y-19651000D01*
X43042000Y-19809750D01*
X43038928Y-20186500D01*
X42347280Y-20186500D01*
X42351072Y-20148000D01*
X42351072Y-19386072D01*
X42513000Y-19386072D01*
X42637482Y-19373812D01*
X42757180Y-19337502D01*
X42867494Y-19278537D01*
X42964185Y-19199185D01*
X43040919Y-19105684D01*
X43042000Y-19238250D01*
X43200750Y-19397000D01*
X44450000Y-19397000D01*
X44450000Y-18385250D01*
X44704000Y-18385250D01*
X44704000Y-19397000D01*
X45953250Y-19397000D01*
X46112000Y-19238250D01*
X46115072Y-18861500D01*
X46102812Y-18737018D01*
X46066502Y-18617320D01*
X46007537Y-18507006D01*
X45928185Y-18410315D01*
X45831494Y-18330963D01*
X45721180Y-18271998D01*
X45601482Y-18235688D01*
X45477000Y-18223428D01*
X44862750Y-18226500D01*
X44704000Y-18385250D01*
X44450000Y-18385250D01*
X44291250Y-18226500D01*
X43677000Y-18223428D01*
X43552518Y-18235688D01*
X43432820Y-18271998D01*
X43322506Y-18330963D01*
X43225815Y-18410315D01*
X43151072Y-18501390D01*
X43151072Y-17248000D01*
X43149465Y-17231679D01*
X43188595Y-17304887D01*
X43299038Y-17439462D01*
X43433613Y-17549905D01*
X43587149Y-17631972D01*
X43753745Y-17682508D01*
X43926999Y-17699572D01*
X44300505Y-17699572D01*
X44379006Y-17723385D01*
X44577000Y-17742886D01*
X44774993Y-17723385D01*
X44853494Y-17699572D01*
X45227001Y-17699572D01*
X45400255Y-17682508D01*
X45566851Y-17631972D01*
X45720387Y-17549905D01*
X45854962Y-17439462D01*
X45965405Y-17304887D01*
X46047472Y-17151351D01*
X46098008Y-16984755D01*
X46115072Y-16811501D01*
X46115072Y-15986499D01*
X46098008Y-15813245D01*
X46047472Y-15646649D01*
X45965405Y-15493113D01*
X45878304Y-15386980D01*
X55427688Y-15386980D01*
X55427688Y-15849034D01*
G04 #@! TA.AperFunction,Conductor*
D19*
G36*
X55427688Y-15849034D02*
G01*
X55401914Y-15880440D01*
X55308128Y-16055901D01*
X55250375Y-16246286D01*
X55230874Y-16444280D01*
X55235761Y-16493897D01*
X55235761Y-17447723D01*
X55188765Y-17452352D01*
X55022169Y-17502888D01*
X54868633Y-17584955D01*
X54734058Y-17695398D01*
X54623615Y-17829973D01*
X54541548Y-17983509D01*
X54491012Y-18150105D01*
X54473948Y-18323359D01*
X54473948Y-19623361D01*
X54491012Y-19796615D01*
X54541548Y-19963211D01*
X54623615Y-20116747D01*
X54734058Y-20251322D01*
X54868633Y-20361765D01*
X55022169Y-20443832D01*
X55188765Y-20494368D01*
X55362019Y-20511432D01*
X55959237Y-20511432D01*
X56507728Y-21059924D01*
X56507728Y-23918160D01*
X56524792Y-24091414D01*
X56575328Y-24258010D01*
X56644358Y-24387156D01*
X56643227Y-24569602D01*
X56642921Y-24572712D01*
X56642921Y-24578562D01*
X56642414Y-24584402D01*
X56642884Y-24625015D01*
X56642632Y-24665667D01*
X56642921Y-24668800D01*
X56642921Y-26466159D01*
X56616272Y-26378310D01*
X56534205Y-26224774D01*
X56423762Y-26090198D01*
X56289186Y-25979755D01*
X56135650Y-25897688D01*
X55969054Y-25847152D01*
X55795800Y-25830088D01*
X54795800Y-25830088D01*
X54622546Y-25847152D01*
X54455950Y-25897688D01*
X54302414Y-25979755D01*
X54167838Y-26090198D01*
X54057395Y-26224774D01*
X53975328Y-26378310D01*
X53924792Y-26544906D01*
X53907728Y-26718160D01*
X53907728Y-29618160D01*
X53924792Y-29791414D01*
X53975328Y-29958010D01*
X53997693Y-29999852D01*
X52979244Y-28981402D01*
X52979239Y-28981397D01*
X50640443Y-26642602D01*
X50616640Y-26613598D01*
X50500915Y-26518625D01*
X50368886Y-26448053D01*
X50225625Y-26404596D01*
X50113972Y-26393599D01*
X50113961Y-26393599D01*
X50076639Y-26389923D01*
X50039317Y-26393599D01*
X45653321Y-26393599D01*
X45615999Y-26389923D01*
X45578676Y-26393599D01*
X45578666Y-26393599D01*
X45467013Y-26404596D01*
X45348500Y-26440546D01*
X45323752Y-26448053D01*
X45191722Y-26518625D01*
X45111488Y-26584472D01*
X45075998Y-26613598D01*
X45052200Y-26642596D01*
X43025997Y-28668800D01*
X42996999Y-28692598D01*
X42973201Y-28721596D01*
X42973200Y-28721597D01*
X42902025Y-28808323D01*
X42831453Y-28940353D01*
X42811752Y-29005301D01*
X42787997Y-29083613D01*
X42784541Y-29118700D01*
X42773323Y-29232599D01*
X42777000Y-29269931D01*
X42776999Y-30615278D01*
X42773323Y-30652601D01*
X42776999Y-30689923D01*
X42776999Y-30689933D01*
X42787996Y-30801586D01*
X42807187Y-30864851D01*
X42787518Y-30866788D01*
X42667820Y-30903098D01*
X42557506Y-30962063D01*
X42460815Y-31041415D01*
X42381463Y-31138106D01*
X42322498Y-31248420D01*
X42286188Y-31368118D01*
X42273928Y-31492600D01*
X42273928Y-32004842D01*
X37675029Y-28031420D01*
X37654686Y-28017069D01*
X37631933Y-28006962D01*
X37607646Y-28001488D01*
X37597316Y-28001226D01*
X37524494Y-27941463D01*
X37414180Y-27882498D01*
X37294482Y-27846188D01*
X37170000Y-27833928D01*
X36955750Y-27837000D01*
X36797000Y-27995750D01*
X36797000Y-29595000D01*
X36817000Y-29595000D01*
X36817000Y-29667915D01*
X36717734Y-29907752D01*
X36710513Y-29931578D01*
X36708080Y-29956355D01*
X36710527Y-29981131D01*
X36717761Y-30004953D01*
X36729503Y-30026907D01*
X36746577Y-30047404D01*
X36797000Y-30096398D01*
X36797000Y-31397397D01*
X36739463Y-31467506D01*
X36680498Y-31577820D01*
X36644188Y-31697518D01*
X36631928Y-31822000D01*
X36631928Y-32822000D01*
X36644188Y-32946482D01*
X36680498Y-33066180D01*
X36739463Y-33176494D01*
X36818815Y-33273185D01*
X36878296Y-33322000D01*
X36818815Y-33370815D01*
X36739463Y-33467506D01*
X36680498Y-33577820D01*
X36644188Y-33697518D01*
X36631928Y-33822000D01*
X36631928Y-34822000D01*
X36644188Y-34946482D01*
X36680498Y-35066180D01*
X36739463Y-35176494D01*
X36818815Y-35273185D01*
X36878296Y-35322000D01*
X36818815Y-35370815D01*
X36739463Y-35467506D01*
X36680498Y-35577820D01*
X36644188Y-35697518D01*
X36631928Y-35822000D01*
X36631928Y-36800268D01*
X34158998Y-39273199D01*
X34130000Y-39296997D01*
X34106202Y-39325995D01*
X34106201Y-39325996D01*
X34035026Y-39412722D01*
X33964454Y-39544752D01*
X33934180Y-39644556D01*
X33930542Y-39656551D01*
X33920998Y-39688013D01*
X33906324Y-39836998D01*
X33910001Y-39874330D01*
X33910000Y-43090954D01*
X33815506Y-43141463D01*
X33718815Y-43220815D01*
X33670000Y-43280296D01*
X33621185Y-43220815D01*
X33524494Y-43141463D01*
X33414180Y-43082498D01*
X33294482Y-43046188D01*
X33170000Y-43033928D01*
X32170000Y-43033928D01*
X32045518Y-43046188D01*
X31925820Y-43082498D01*
X31815506Y-43141463D01*
X31718815Y-43220815D01*
X31670000Y-43280296D01*
X31621185Y-43220815D01*
X31524494Y-43141463D01*
X31414180Y-43082498D01*
X31294482Y-43046188D01*
X31170000Y-43033928D01*
X30191731Y-43033928D01*
X29993805Y-42836002D01*
X29970002Y-42806998D01*
X29854277Y-42712025D01*
X29722248Y-42641453D01*
X29578987Y-42597996D01*
X29467334Y-42586999D01*
X29467323Y-42586999D01*
X29430001Y-42583323D01*
X29392679Y-42586999D01*
X25501600Y-42586999D01*
X28006004Y-40082596D01*
X28035002Y-40058798D01*
X28129975Y-39943073D01*
X28200547Y-39811044D01*
X28244004Y-39667783D01*
X28255001Y-39556130D01*
X28255001Y-39556121D01*
X28258677Y-39518798D01*
X28255001Y-39481475D01*
X28255001Y-31881802D01*
X28631212Y-32258014D01*
X28655011Y-32287013D01*
X28684009Y-32310811D01*
X28770735Y-32381986D01*
X28895297Y-32448566D01*
X28902765Y-32452558D01*
X29046026Y-32496015D01*
X29157679Y-32507012D01*
X29157688Y-32507012D01*
X29195011Y-32510688D01*
X29232334Y-32507012D01*
X32942668Y-32507012D01*
X32979990Y-32510688D01*
X33017312Y-32507012D01*
X33017323Y-32507012D01*
X33128976Y-32496015D01*
X33272237Y-32452558D01*
X33404266Y-32381986D01*
X33519991Y-32287013D01*
X33543793Y-32258010D01*
X34191733Y-31610072D01*
X35170000Y-31610072D01*
X35294482Y-31597812D01*
X35414180Y-31561502D01*
X35524494Y-31502537D01*
X35621185Y-31423185D01*
X35670000Y-31363704D01*
X35718815Y-31423185D01*
X35815506Y-31502537D01*
X35925820Y-31561502D01*
X36045518Y-31597812D01*
X36170000Y-31610072D01*
X36384250Y-31607000D01*
X36543000Y-31448250D01*
X36543000Y-29849000D01*
X36523000Y-29849000D01*
X36523000Y-29595000D01*
X36543000Y-29595000D01*
X36543000Y-27995750D01*
X36384250Y-27837000D01*
X36170000Y-27833928D01*
X36128818Y-27837984D01*
X36833004Y-27133798D01*
X36862001Y-27110001D01*
X36956974Y-26994276D01*
X37027546Y-26862247D01*
X37071003Y-26718986D01*
X37079917Y-26628481D01*
X37120254Y-26624508D01*
X37286850Y-26573972D01*
X37440386Y-26491905D01*
X37574962Y-26381462D01*
X37685405Y-26246886D01*
X37767472Y-26093350D01*
X37818008Y-25926754D01*
X37835072Y-25753500D01*
X37835072Y-24953500D01*
X37818008Y-24780246D01*
X37767472Y-24613650D01*
X37685405Y-24460114D01*
X37574962Y-24325538D01*
X37440386Y-24215095D01*
X37286850Y-24133028D01*
X37120254Y-24082492D01*
X36947000Y-24065428D01*
X35881990Y-24065428D01*
X35881990Y-23539304D01*
X36036250Y-23538500D01*
X36195000Y-23379750D01*
X36195000Y-22380500D01*
X36449000Y-22380500D01*
X36449000Y-23379750D01*
X36607750Y-23538500D01*
X37197000Y-23541572D01*
X37321482Y-23529312D01*
X37441180Y-23493002D01*
X37551494Y-23434037D01*
X37648185Y-23354685D01*
X37727537Y-23257994D01*
X37786502Y-23147680D01*
X37822812Y-23027982D01*
X37835072Y-22903500D01*
X37832000Y-22539250D01*
X37673250Y-22380500D01*
X36449000Y-22380500D01*
X36195000Y-22380500D01*
X36175000Y-22380500D01*
X36175000Y-22126500D01*
X36195000Y-22126500D01*
X36195000Y-22106500D01*
X36449000Y-22106500D01*
X36449000Y-22126500D01*
X37673250Y-22126500D01*
X37832000Y-21967750D01*
X37835072Y-21603500D01*
X37822812Y-21479018D01*
X37786502Y-21359320D01*
X37727537Y-21249006D01*
X37648185Y-21152315D01*
X37551494Y-21072963D01*
X37441180Y-21013998D01*
X37321482Y-20977688D01*
X37197000Y-20965428D01*
X36607750Y-20968500D01*
X36449002Y-21127248D01*
X36449002Y-20968500D01*
X36421802Y-20968500D01*
X36590730Y-20799572D01*
X36947000Y-20799572D01*
X37120254Y-20782508D01*
X37286850Y-20731972D01*
X37440386Y-20649905D01*
X37574962Y-20539462D01*
X37638533Y-20462000D01*
X38747975Y-20462000D01*
X38799316Y-20558051D01*
X38891104Y-20669896D01*
X39002949Y-20761684D01*
X39130552Y-20829890D01*
X39269009Y-20871890D01*
X39413000Y-20886072D01*
X39613000Y-20886072D01*
X39756991Y-20871890D01*
X39895448Y-20829890D01*
X39975709Y-20786989D01*
X40058659Y-20833189D01*
X40177711Y-20871564D01*
X40281250Y-20883000D01*
X40440000Y-20724250D01*
X40440000Y-19775000D01*
X40366000Y-19775000D01*
X40366000Y-19521000D01*
X40440000Y-19521000D01*
X40440000Y-19501000D01*
X40586000Y-19501000D01*
X40586000Y-19521000D01*
X40660000Y-19521000D01*
X40660000Y-19775000D01*
X40586000Y-19775000D01*
X40586000Y-20724250D01*
X40744750Y-20883000D01*
X40848289Y-20871564D01*
X40967341Y-20833189D01*
X41050291Y-20786989D01*
X41130552Y-20829890D01*
X41269009Y-20871890D01*
X41413000Y-20886072D01*
X41613000Y-20886072D01*
X41756991Y-20871890D01*
X41895448Y-20829890D01*
X42023051Y-20761684D01*
X42134896Y-20669896D01*
X42226684Y-20558051D01*
X42294890Y-20430448D01*
X42336890Y-20291991D01*
X42347280Y-20186500D01*
X43038928Y-20186500D01*
X43051188Y-20310982D01*
X43087498Y-20430680D01*
X43146463Y-20540994D01*
X43225815Y-20637685D01*
X43322506Y-20717037D01*
X43432820Y-20776002D01*
X43552518Y-20812312D01*
X43677000Y-20824572D01*
X44291250Y-20821500D01*
X44450000Y-20662750D01*
X44450000Y-19651000D01*
X44704000Y-19651000D01*
X44704000Y-20662750D01*
X44862750Y-20821500D01*
X45477000Y-20824572D01*
X45601482Y-20812312D01*
X45721180Y-20776002D01*
X45831494Y-20717037D01*
X45928185Y-20637685D01*
X46007537Y-20540994D01*
X46066502Y-20430680D01*
X46102812Y-20310982D01*
X46115072Y-20186500D01*
X46112000Y-19809750D01*
X45953250Y-19651000D01*
X44704000Y-19651000D01*
X44450000Y-19651000D01*
X43200750Y-19651000D01*
X43042000Y-19809750D01*
X43038928Y-20186500D01*
X42347280Y-20186500D01*
X42351072Y-20148000D01*
X42351072Y-19386072D01*
X42513000Y-19386072D01*
X42637482Y-19373812D01*
X42757180Y-19337502D01*
X42867494Y-19278537D01*
X42964185Y-19199185D01*
X43040919Y-19105684D01*
X43042000Y-19238250D01*
X43200750Y-19397000D01*
X44450000Y-19397000D01*
X44450000Y-18385250D01*
X44704000Y-18385250D01*
X44704000Y-19397000D01*
X45953250Y-19397000D01*
X46112000Y-19238250D01*
X46115072Y-18861500D01*
X46102812Y-18737018D01*
X46066502Y-18617320D01*
X46007537Y-18507006D01*
X45928185Y-18410315D01*
X45831494Y-18330963D01*
X45721180Y-18271998D01*
X45601482Y-18235688D01*
X45477000Y-18223428D01*
X44862750Y-18226500D01*
X44704000Y-18385250D01*
X44450000Y-18385250D01*
X44291250Y-18226500D01*
X43677000Y-18223428D01*
X43552518Y-18235688D01*
X43432820Y-18271998D01*
X43322506Y-18330963D01*
X43225815Y-18410315D01*
X43151072Y-18501390D01*
X43151072Y-17248000D01*
X43149465Y-17231679D01*
X43188595Y-17304887D01*
X43299038Y-17439462D01*
X43433613Y-17549905D01*
X43587149Y-17631972D01*
X43753745Y-17682508D01*
X43926999Y-17699572D01*
X44300505Y-17699572D01*
X44379006Y-17723385D01*
X44577000Y-17742886D01*
X44774993Y-17723385D01*
X44853494Y-17699572D01*
X45227001Y-17699572D01*
X45400255Y-17682508D01*
X45566851Y-17631972D01*
X45720387Y-17549905D01*
X45854962Y-17439462D01*
X45965405Y-17304887D01*
X46047472Y-17151351D01*
X46098008Y-16984755D01*
X46115072Y-16811501D01*
X46115072Y-15986499D01*
X46098008Y-15813245D01*
X46047472Y-15646649D01*
X45965405Y-15493113D01*
X45878304Y-15386980D01*
X55427688Y-15386980D01*
X55427688Y-15849034D01*
G37*
G04 #@! TD.AperFunction*
D18*
X23718815Y-31423185D02*
X23815506Y-31502537D01*
X23925820Y-31561502D01*
X24045518Y-31597812D01*
X24170000Y-31610072D01*
X24767980Y-31610072D01*
X24767980Y-34771013D01*
X24738798Y-34825608D01*
X24720712Y-34885233D01*
X24695342Y-34968868D01*
X24685140Y-35072454D01*
X24680668Y-35117854D01*
X24684345Y-35155186D01*
X24684344Y-36692576D01*
X22158484Y-43035062D01*
X22045518Y-43046188D01*
X21925820Y-43082498D01*
X21922033Y-43084522D01*
X21995139Y-31582530D01*
X22045518Y-31597812D01*
X22170000Y-31610072D01*
X23170000Y-31610072D01*
X23294482Y-31597812D01*
X23414180Y-31561502D01*
X23524494Y-31502537D01*
X23621185Y-31423185D01*
X23670000Y-31363704D01*
X23718815Y-31423185D01*
G04 #@! TA.AperFunction,Conductor*
D19*
G36*
X23718815Y-31423185D02*
G01*
X23815506Y-31502537D01*
X23925820Y-31561502D01*
X24045518Y-31597812D01*
X24170000Y-31610072D01*
X24767980Y-31610072D01*
X24767980Y-34771013D01*
X24738798Y-34825608D01*
X24720712Y-34885233D01*
X24695342Y-34968868D01*
X24685140Y-35072454D01*
X24680668Y-35117854D01*
X24684345Y-35155186D01*
X24684344Y-36692576D01*
X22158484Y-43035062D01*
X22045518Y-43046188D01*
X21925820Y-43082498D01*
X21922033Y-43084522D01*
X21995139Y-31582530D01*
X22045518Y-31597812D01*
X22170000Y-31610072D01*
X23170000Y-31610072D01*
X23294482Y-31597812D01*
X23414180Y-31561502D01*
X23524494Y-31502537D01*
X23621185Y-31423185D01*
X23670000Y-31363704D01*
X23718815Y-31423185D01*
G37*
G04 #@! TD.AperFunction*
D18*
X51904437Y-30056199D02*
X54555488Y-32707250D01*
X54555488Y-34270520D01*
X54572552Y-34443774D01*
X54623088Y-34610370D01*
X54683561Y-34723506D01*
X54683560Y-36795047D01*
X54664032Y-36730670D01*
X54581965Y-36577134D01*
X54471522Y-36442558D01*
X54336946Y-36332115D01*
X54183410Y-36250048D01*
X54016814Y-36199512D01*
X53843560Y-36182448D01*
X52843560Y-36182448D01*
X52670306Y-36199512D01*
X52503710Y-36250048D01*
X52350174Y-36332115D01*
X52215598Y-36442558D01*
X52105155Y-36577134D01*
X52023088Y-36730670D01*
X51972552Y-36897266D01*
X51955488Y-37070520D01*
X51955488Y-39970520D01*
X51972552Y-40143774D01*
X52023088Y-40310370D01*
X52105155Y-40463906D01*
X52215598Y-40598482D01*
X52350174Y-40708925D01*
X52503710Y-40790992D01*
X52670306Y-40841528D01*
X52843560Y-40858592D01*
X53843560Y-40858592D01*
X54016814Y-40841528D01*
X54183410Y-40790992D01*
X54336946Y-40708925D01*
X54471522Y-40598482D01*
X54581965Y-40463906D01*
X54664032Y-40310370D01*
X54681273Y-40253534D01*
X54678674Y-40279920D01*
X54698175Y-40477914D01*
X54722040Y-40556586D01*
X54755928Y-40668299D01*
X54849713Y-40843760D01*
X54975927Y-40997553D01*
X55014466Y-41029181D01*
X56541235Y-42555950D01*
X51414481Y-42555950D01*
X51412500Y-42159750D01*
X51253750Y-42001000D01*
X50242000Y-42001000D01*
X50242000Y-42021000D01*
X49988000Y-42021000D01*
X49988000Y-42001000D01*
X48976250Y-42001000D01*
X48817500Y-42159750D01*
X48815519Y-42555950D01*
X48287425Y-42555950D01*
X48290572Y-42524001D01*
X48290572Y-41223999D01*
X48273508Y-41050745D01*
X48250228Y-40974000D01*
X48814428Y-40974000D01*
X48817500Y-41588250D01*
X48976250Y-41747000D01*
X49988000Y-41747000D01*
X49988000Y-40497750D01*
X50242000Y-40497750D01*
X50242000Y-41747000D01*
X51253750Y-41747000D01*
X51412500Y-41588250D01*
X51415572Y-40974000D01*
X51403312Y-40849518D01*
X51367002Y-40729820D01*
X51308037Y-40619506D01*
X51228685Y-40522815D01*
X51131994Y-40443463D01*
X51021680Y-40384498D01*
X50901982Y-40348188D01*
X50777500Y-40335928D01*
X50400750Y-40339000D01*
X50242000Y-40497750D01*
X49988000Y-40497750D01*
X49829250Y-40339000D01*
X49452500Y-40335928D01*
X49328018Y-40348188D01*
X49208320Y-40384498D01*
X49098006Y-40443463D01*
X49001315Y-40522815D01*
X48921963Y-40619506D01*
X48862998Y-40729820D01*
X48826688Y-40849518D01*
X48814428Y-40974000D01*
X48250228Y-40974000D01*
X48222972Y-40884149D01*
X48140905Y-40730613D01*
X48030462Y-40596038D01*
X47895887Y-40485595D01*
X47750000Y-40407616D01*
X47750000Y-40058374D01*
X47842746Y-40086508D01*
X48016000Y-40103572D01*
X49266000Y-40103572D01*
X49439254Y-40086508D01*
X49605850Y-40035972D01*
X49759386Y-39953905D01*
X49893962Y-39843462D01*
X50004405Y-39708886D01*
X50086472Y-39555350D01*
X50137008Y-39388754D01*
X50154072Y-39215500D01*
X50154072Y-39189729D01*
X50352007Y-38991794D01*
X50381011Y-38967991D01*
X50475984Y-38852266D01*
X50546556Y-38720237D01*
X50590013Y-38576976D01*
X50601010Y-38465323D01*
X50604687Y-38427990D01*
X50601010Y-38390657D01*
X50601010Y-32193642D01*
X50604686Y-32156319D01*
X50601010Y-32118996D01*
X50601010Y-32118987D01*
X50590013Y-32007334D01*
X50546556Y-31864073D01*
X50475984Y-31732044D01*
X50381011Y-31616319D01*
X50352014Y-31592522D01*
X49747381Y-30987890D01*
X49819694Y-30949237D01*
X49916385Y-30869885D01*
X49995737Y-30773194D01*
X50054702Y-30662880D01*
X50091012Y-30543182D01*
X50103272Y-30418700D01*
X50100200Y-30054450D01*
X49941450Y-29895700D01*
X48717200Y-29895700D01*
X48717200Y-29915700D01*
X48463200Y-29915700D01*
X48463200Y-29895700D01*
X48443200Y-29895700D01*
X48443200Y-29641700D01*
X48463200Y-29641700D01*
X48463200Y-28642450D01*
X48717200Y-28642450D01*
X48717200Y-29641700D01*
X49941450Y-29641700D01*
X50100200Y-29482950D01*
X50103272Y-29118700D01*
X50091012Y-28994218D01*
X50054702Y-28874520D01*
X49995737Y-28764206D01*
X49916385Y-28667515D01*
X49819694Y-28588163D01*
X49709380Y-28529198D01*
X49589682Y-28492888D01*
X49465200Y-28480628D01*
X48875950Y-28483700D01*
X48717200Y-28642450D01*
X48463200Y-28642450D01*
X48304450Y-28483700D01*
X47715200Y-28480628D01*
X47590718Y-28492888D01*
X47471020Y-28529198D01*
X47360706Y-28588163D01*
X47264015Y-28667515D01*
X47184663Y-28764206D01*
X47125698Y-28874520D01*
X47089388Y-28994218D01*
X47077128Y-29118700D01*
X47080200Y-29482950D01*
X47238948Y-29641698D01*
X47237099Y-29641698D01*
X47027003Y-29431602D01*
X47003201Y-29402599D01*
X46887476Y-29307626D01*
X46755447Y-29237054D01*
X46612186Y-29193597D01*
X46500533Y-29182600D01*
X46500522Y-29182600D01*
X46463200Y-29178924D01*
X46425878Y-29182600D01*
X45216320Y-29182600D01*
X45192537Y-29138106D01*
X45113185Y-29041415D01*
X45016494Y-28962063D01*
X44929068Y-28915332D01*
X45930801Y-27913599D01*
X49761838Y-27913599D01*
X51904437Y-30056199D01*
G04 #@! TA.AperFunction,Conductor*
D19*
G36*
X51904437Y-30056199D02*
G01*
X54555488Y-32707250D01*
X54555488Y-34270520D01*
X54572552Y-34443774D01*
X54623088Y-34610370D01*
X54683561Y-34723506D01*
X54683560Y-36795047D01*
X54664032Y-36730670D01*
X54581965Y-36577134D01*
X54471522Y-36442558D01*
X54336946Y-36332115D01*
X54183410Y-36250048D01*
X54016814Y-36199512D01*
X53843560Y-36182448D01*
X52843560Y-36182448D01*
X52670306Y-36199512D01*
X52503710Y-36250048D01*
X52350174Y-36332115D01*
X52215598Y-36442558D01*
X52105155Y-36577134D01*
X52023088Y-36730670D01*
X51972552Y-36897266D01*
X51955488Y-37070520D01*
X51955488Y-39970520D01*
X51972552Y-40143774D01*
X52023088Y-40310370D01*
X52105155Y-40463906D01*
X52215598Y-40598482D01*
X52350174Y-40708925D01*
X52503710Y-40790992D01*
X52670306Y-40841528D01*
X52843560Y-40858592D01*
X53843560Y-40858592D01*
X54016814Y-40841528D01*
X54183410Y-40790992D01*
X54336946Y-40708925D01*
X54471522Y-40598482D01*
X54581965Y-40463906D01*
X54664032Y-40310370D01*
X54681273Y-40253534D01*
X54678674Y-40279920D01*
X54698175Y-40477914D01*
X54722040Y-40556586D01*
X54755928Y-40668299D01*
X54849713Y-40843760D01*
X54975927Y-40997553D01*
X55014466Y-41029181D01*
X56541235Y-42555950D01*
X51414481Y-42555950D01*
X51412500Y-42159750D01*
X51253750Y-42001000D01*
X50242000Y-42001000D01*
X50242000Y-42021000D01*
X49988000Y-42021000D01*
X49988000Y-42001000D01*
X48976250Y-42001000D01*
X48817500Y-42159750D01*
X48815519Y-42555950D01*
X48287425Y-42555950D01*
X48290572Y-42524001D01*
X48290572Y-41223999D01*
X48273508Y-41050745D01*
X48250228Y-40974000D01*
X48814428Y-40974000D01*
X48817500Y-41588250D01*
X48976250Y-41747000D01*
X49988000Y-41747000D01*
X49988000Y-40497750D01*
X50242000Y-40497750D01*
X50242000Y-41747000D01*
X51253750Y-41747000D01*
X51412500Y-41588250D01*
X51415572Y-40974000D01*
X51403312Y-40849518D01*
X51367002Y-40729820D01*
X51308037Y-40619506D01*
X51228685Y-40522815D01*
X51131994Y-40443463D01*
X51021680Y-40384498D01*
X50901982Y-40348188D01*
X50777500Y-40335928D01*
X50400750Y-40339000D01*
X50242000Y-40497750D01*
X49988000Y-40497750D01*
X49829250Y-40339000D01*
X49452500Y-40335928D01*
X49328018Y-40348188D01*
X49208320Y-40384498D01*
X49098006Y-40443463D01*
X49001315Y-40522815D01*
X48921963Y-40619506D01*
X48862998Y-40729820D01*
X48826688Y-40849518D01*
X48814428Y-40974000D01*
X48250228Y-40974000D01*
X48222972Y-40884149D01*
X48140905Y-40730613D01*
X48030462Y-40596038D01*
X47895887Y-40485595D01*
X47750000Y-40407616D01*
X47750000Y-40058374D01*
X47842746Y-40086508D01*
X48016000Y-40103572D01*
X49266000Y-40103572D01*
X49439254Y-40086508D01*
X49605850Y-40035972D01*
X49759386Y-39953905D01*
X49893962Y-39843462D01*
X50004405Y-39708886D01*
X50086472Y-39555350D01*
X50137008Y-39388754D01*
X50154072Y-39215500D01*
X50154072Y-39189729D01*
X50352007Y-38991794D01*
X50381011Y-38967991D01*
X50475984Y-38852266D01*
X50546556Y-38720237D01*
X50590013Y-38576976D01*
X50601010Y-38465323D01*
X50604687Y-38427990D01*
X50601010Y-38390657D01*
X50601010Y-32193642D01*
X50604686Y-32156319D01*
X50601010Y-32118996D01*
X50601010Y-32118987D01*
X50590013Y-32007334D01*
X50546556Y-31864073D01*
X50475984Y-31732044D01*
X50381011Y-31616319D01*
X50352014Y-31592522D01*
X49747381Y-30987890D01*
X49819694Y-30949237D01*
X49916385Y-30869885D01*
X49995737Y-30773194D01*
X50054702Y-30662880D01*
X50091012Y-30543182D01*
X50103272Y-30418700D01*
X50100200Y-30054450D01*
X49941450Y-29895700D01*
X48717200Y-29895700D01*
X48717200Y-29915700D01*
X48463200Y-29915700D01*
X48463200Y-29895700D01*
X48443200Y-29895700D01*
X48443200Y-29641700D01*
X48463200Y-29641700D01*
X48463200Y-28642450D01*
X48717200Y-28642450D01*
X48717200Y-29641700D01*
X49941450Y-29641700D01*
X50100200Y-29482950D01*
X50103272Y-29118700D01*
X50091012Y-28994218D01*
X50054702Y-28874520D01*
X49995737Y-28764206D01*
X49916385Y-28667515D01*
X49819694Y-28588163D01*
X49709380Y-28529198D01*
X49589682Y-28492888D01*
X49465200Y-28480628D01*
X48875950Y-28483700D01*
X48717200Y-28642450D01*
X48463200Y-28642450D01*
X48304450Y-28483700D01*
X47715200Y-28480628D01*
X47590718Y-28492888D01*
X47471020Y-28529198D01*
X47360706Y-28588163D01*
X47264015Y-28667515D01*
X47184663Y-28764206D01*
X47125698Y-28874520D01*
X47089388Y-28994218D01*
X47077128Y-29118700D01*
X47080200Y-29482950D01*
X47238948Y-29641698D01*
X47237099Y-29641698D01*
X47027003Y-29431602D01*
X47003201Y-29402599D01*
X46887476Y-29307626D01*
X46755447Y-29237054D01*
X46612186Y-29193597D01*
X46500533Y-29182600D01*
X46500522Y-29182600D01*
X46463200Y-29178924D01*
X46425878Y-29182600D01*
X45216320Y-29182600D01*
X45192537Y-29138106D01*
X45113185Y-29041415D01*
X45016494Y-28962063D01*
X44929068Y-28915332D01*
X45930801Y-27913599D01*
X49761838Y-27913599D01*
X51904437Y-30056199D01*
G37*
G04 #@! TD.AperFunction*
D18*
X59758571Y-34347563D02*
X59723165Y-34464280D01*
X59703664Y-34662274D01*
X59708550Y-34711882D01*
X59708551Y-40993145D01*
X59705785Y-40989775D01*
X59609094Y-40910423D01*
X59498780Y-40851458D01*
X59379082Y-40815148D01*
X59254600Y-40802888D01*
X59240350Y-40805960D01*
X59081600Y-40964710D01*
X59081600Y-42163960D01*
X59101600Y-42163960D01*
X59101600Y-42417960D01*
X59081600Y-42417960D01*
X59081600Y-42437960D01*
X58827600Y-42437960D01*
X58827600Y-42417960D01*
X58807600Y-42417960D01*
X58807600Y-42163960D01*
X58827600Y-42163960D01*
X58827600Y-40964710D01*
X58668850Y-40805960D01*
X58654600Y-40802888D01*
X58530118Y-40815148D01*
X58410420Y-40851458D01*
X58300106Y-40910423D01*
X58278425Y-40928216D01*
X58156182Y-40862876D01*
X58008345Y-40818031D01*
X57854600Y-40802888D01*
X57644883Y-40802888D01*
X56703560Y-39861565D01*
X56703560Y-34760922D01*
X56705155Y-34763906D01*
X56815598Y-34898482D01*
X56950174Y-35008925D01*
X57103710Y-35090992D01*
X57270306Y-35141528D01*
X57443560Y-35158592D01*
X57943560Y-35158592D01*
X58116814Y-35141528D01*
X58283410Y-35090992D01*
X58436946Y-35008925D01*
X58571522Y-34898482D01*
X58634529Y-34821707D01*
X58663023Y-34875014D01*
X58742375Y-34971705D01*
X58839066Y-35051057D01*
X58949380Y-35110022D01*
X59069078Y-35146332D01*
X59193560Y-35158592D01*
X59407810Y-35155520D01*
X59566560Y-34996770D01*
X59566560Y-32897520D01*
X59546560Y-32897520D01*
X59546560Y-32643520D01*
X59566560Y-32643520D01*
X59566560Y-32623520D01*
X59758571Y-32623520D01*
X59758571Y-34347563D01*
G04 #@! TA.AperFunction,Conductor*
D19*
G36*
X59758571Y-34347563D02*
G01*
X59723165Y-34464280D01*
X59703664Y-34662274D01*
X59708550Y-34711882D01*
X59708551Y-40993145D01*
X59705785Y-40989775D01*
X59609094Y-40910423D01*
X59498780Y-40851458D01*
X59379082Y-40815148D01*
X59254600Y-40802888D01*
X59240350Y-40805960D01*
X59081600Y-40964710D01*
X59081600Y-42163960D01*
X59101600Y-42163960D01*
X59101600Y-42417960D01*
X59081600Y-42417960D01*
X59081600Y-42437960D01*
X58827600Y-42437960D01*
X58827600Y-42417960D01*
X58807600Y-42417960D01*
X58807600Y-42163960D01*
X58827600Y-42163960D01*
X58827600Y-40964710D01*
X58668850Y-40805960D01*
X58654600Y-40802888D01*
X58530118Y-40815148D01*
X58410420Y-40851458D01*
X58300106Y-40910423D01*
X58278425Y-40928216D01*
X58156182Y-40862876D01*
X58008345Y-40818031D01*
X57854600Y-40802888D01*
X57644883Y-40802888D01*
X56703560Y-39861565D01*
X56703560Y-34760922D01*
X56705155Y-34763906D01*
X56815598Y-34898482D01*
X56950174Y-35008925D01*
X57103710Y-35090992D01*
X57270306Y-35141528D01*
X57443560Y-35158592D01*
X57943560Y-35158592D01*
X58116814Y-35141528D01*
X58283410Y-35090992D01*
X58436946Y-35008925D01*
X58571522Y-34898482D01*
X58634529Y-34821707D01*
X58663023Y-34875014D01*
X58742375Y-34971705D01*
X58839066Y-35051057D01*
X58949380Y-35110022D01*
X59069078Y-35146332D01*
X59193560Y-35158592D01*
X59407810Y-35155520D01*
X59566560Y-34996770D01*
X59566560Y-32897520D01*
X59546560Y-32897520D01*
X59546560Y-32643520D01*
X59566560Y-32643520D01*
X59566560Y-32623520D01*
X59758571Y-32623520D01*
X59758571Y-34347563D01*
G37*
G04 #@! TD.AperFunction*
D18*
X26735002Y-39203994D02*
X24384021Y-41554976D01*
X26134665Y-37159074D01*
X26149890Y-37130591D01*
X26162297Y-37089691D01*
X26164225Y-37084849D01*
X26164226Y-37084845D01*
X26222919Y-36937467D01*
X26254013Y-36829669D01*
X26266645Y-36680496D01*
X26249930Y-36531725D01*
X26204513Y-36389074D01*
X26204344Y-36388768D01*
X26204344Y-35381060D01*
X26233526Y-35326465D01*
X26276983Y-35183204D01*
X26287980Y-35071551D01*
X26287980Y-35071541D01*
X26291656Y-35034219D01*
X26287980Y-34996896D01*
X26287980Y-31610072D01*
X26735001Y-31610072D01*
X26735002Y-39203994D01*
G04 #@! TA.AperFunction,Conductor*
D19*
G36*
X26735002Y-39203994D02*
G01*
X24384021Y-41554976D01*
X26134665Y-37159074D01*
X26149890Y-37130591D01*
X26162297Y-37089691D01*
X26164225Y-37084849D01*
X26164226Y-37084845D01*
X26222919Y-36937467D01*
X26254013Y-36829669D01*
X26266645Y-36680496D01*
X26249930Y-36531725D01*
X26204513Y-36389074D01*
X26204344Y-36388768D01*
X26204344Y-35381060D01*
X26233526Y-35326465D01*
X26276983Y-35183204D01*
X26287980Y-35071551D01*
X26287980Y-35071541D01*
X26291656Y-35034219D01*
X26287980Y-34996896D01*
X26287980Y-31610072D01*
X26735001Y-31610072D01*
X26735002Y-39203994D01*
G37*
G04 #@! TD.AperFunction*
D18*
X47239005Y-31793208D02*
X47262799Y-31822201D01*
X47291792Y-31845995D01*
X47291796Y-31845999D01*
X47313820Y-31864073D01*
X47316370Y-31866166D01*
X47226795Y-31975314D01*
X47144728Y-32128850D01*
X47094192Y-32295446D01*
X47077128Y-32468700D01*
X47077128Y-33268700D01*
X47094192Y-33441954D01*
X47144728Y-33608550D01*
X47226795Y-33762086D01*
X47337238Y-33896662D01*
X47471814Y-34007105D01*
X47625350Y-34089172D01*
X47791946Y-34139708D01*
X47881001Y-34148479D01*
X47881000Y-34440724D01*
X47842746Y-34444492D01*
X47676150Y-34495028D01*
X47522614Y-34577095D01*
X47388038Y-34687538D01*
X47277595Y-34822114D01*
X47195528Y-34975650D01*
X47144992Y-35142246D01*
X47127928Y-35315500D01*
X47127928Y-36115500D01*
X47144992Y-36288754D01*
X47195528Y-36455350D01*
X47277595Y-36608886D01*
X47354321Y-36702378D01*
X47124162Y-36932537D01*
X46990000Y-36919323D01*
X46841015Y-36933997D01*
X46697754Y-36977454D01*
X46596287Y-37031690D01*
X45427473Y-37031690D01*
X45435711Y-36999992D01*
X45453003Y-36942986D01*
X45454515Y-36927634D01*
X45458393Y-36912712D01*
X45461839Y-36853272D01*
X45464000Y-36831333D01*
X45464000Y-36816002D01*
X45467058Y-36763257D01*
X45464000Y-36741310D01*
X45464000Y-34032533D01*
X45467616Y-33990389D01*
X45459876Y-33920796D01*
X45453003Y-33851014D01*
X45451601Y-33846392D01*
X45451068Y-33841600D01*
X45429903Y-33774861D01*
X45409546Y-33707753D01*
X45407270Y-33703494D01*
X45405812Y-33698898D01*
X45372026Y-33637558D01*
X45338974Y-33575724D01*
X45335911Y-33571992D01*
X45333584Y-33567767D01*
X45288448Y-33514158D01*
X45244001Y-33459999D01*
X45211304Y-33433165D01*
X44797040Y-33029199D01*
X44812000Y-33030672D01*
X45612000Y-33030672D01*
X45736482Y-33018412D01*
X45856180Y-32982102D01*
X45966494Y-32923137D01*
X46063185Y-32843785D01*
X46142537Y-32747094D01*
X46201502Y-32636780D01*
X46237812Y-32517082D01*
X46250072Y-32392600D01*
X46250072Y-31492600D01*
X46237812Y-31368118D01*
X46201502Y-31248420D01*
X46142537Y-31138106D01*
X46063185Y-31041415D01*
X45966494Y-30962063D01*
X45906730Y-30930118D01*
X45846974Y-30818324D01*
X45752002Y-30702600D01*
X46148399Y-30702600D01*
X47239005Y-31793208D01*
G04 #@! TA.AperFunction,Conductor*
D19*
G36*
X47239005Y-31793208D02*
G01*
X47262799Y-31822201D01*
X47291792Y-31845995D01*
X47291796Y-31845999D01*
X47313820Y-31864073D01*
X47316370Y-31866166D01*
X47226795Y-31975314D01*
X47144728Y-32128850D01*
X47094192Y-32295446D01*
X47077128Y-32468700D01*
X47077128Y-33268700D01*
X47094192Y-33441954D01*
X47144728Y-33608550D01*
X47226795Y-33762086D01*
X47337238Y-33896662D01*
X47471814Y-34007105D01*
X47625350Y-34089172D01*
X47791946Y-34139708D01*
X47881001Y-34148479D01*
X47881000Y-34440724D01*
X47842746Y-34444492D01*
X47676150Y-34495028D01*
X47522614Y-34577095D01*
X47388038Y-34687538D01*
X47277595Y-34822114D01*
X47195528Y-34975650D01*
X47144992Y-35142246D01*
X47127928Y-35315500D01*
X47127928Y-36115500D01*
X47144992Y-36288754D01*
X47195528Y-36455350D01*
X47277595Y-36608886D01*
X47354321Y-36702378D01*
X47124162Y-36932537D01*
X46990000Y-36919323D01*
X46841015Y-36933997D01*
X46697754Y-36977454D01*
X46596287Y-37031690D01*
X45427473Y-37031690D01*
X45435711Y-36999992D01*
X45453003Y-36942986D01*
X45454515Y-36927634D01*
X45458393Y-36912712D01*
X45461839Y-36853272D01*
X45464000Y-36831333D01*
X45464000Y-36816002D01*
X45467058Y-36763257D01*
X45464000Y-36741310D01*
X45464000Y-34032533D01*
X45467616Y-33990389D01*
X45459876Y-33920796D01*
X45453003Y-33851014D01*
X45451601Y-33846392D01*
X45451068Y-33841600D01*
X45429903Y-33774861D01*
X45409546Y-33707753D01*
X45407270Y-33703494D01*
X45405812Y-33698898D01*
X45372026Y-33637558D01*
X45338974Y-33575724D01*
X45335911Y-33571992D01*
X45333584Y-33567767D01*
X45288448Y-33514158D01*
X45244001Y-33459999D01*
X45211304Y-33433165D01*
X44797040Y-33029199D01*
X44812000Y-33030672D01*
X45612000Y-33030672D01*
X45736482Y-33018412D01*
X45856180Y-32982102D01*
X45966494Y-32923137D01*
X46063185Y-32843785D01*
X46142537Y-32747094D01*
X46201502Y-32636780D01*
X46237812Y-32517082D01*
X46250072Y-32392600D01*
X46250072Y-31492600D01*
X46237812Y-31368118D01*
X46201502Y-31248420D01*
X46142537Y-31138106D01*
X46063185Y-31041415D01*
X45966494Y-30962063D01*
X45906730Y-30930118D01*
X45846974Y-30818324D01*
X45752002Y-30702600D01*
X46148399Y-30702600D01*
X47239005Y-31793208D01*
G37*
G04 #@! TD.AperFunction*
D18*
X62815001Y-36229296D02*
X62716814Y-36199512D01*
X62543560Y-36182448D01*
X61728550Y-36182448D01*
X61728550Y-34926963D01*
X61763955Y-34810248D01*
X61778570Y-34661862D01*
X61783456Y-34612254D01*
X61778570Y-34562646D01*
X61778570Y-30506232D01*
X62495800Y-30506232D01*
X62669054Y-30489168D01*
X62815000Y-30444896D01*
X62815001Y-36229296D01*
G04 #@! TA.AperFunction,Conductor*
D19*
G36*
X62815001Y-36229296D02*
G01*
X62716814Y-36199512D01*
X62543560Y-36182448D01*
X61728550Y-36182448D01*
X61728550Y-34926963D01*
X61763955Y-34810248D01*
X61778570Y-34661862D01*
X61783456Y-34612254D01*
X61778570Y-34562646D01*
X61778570Y-30506232D01*
X62495800Y-30506232D01*
X62669054Y-30489168D01*
X62815000Y-30444896D01*
X62815001Y-36229296D01*
G37*
G04 #@! TD.AperFunction*
D18*
X59803958Y-15968142D02*
X59938533Y-16078585D01*
X60092069Y-16160652D01*
X60258665Y-16211188D01*
X60431919Y-16228252D01*
X61226988Y-16228252D01*
X61362580Y-16760270D01*
X61208920Y-16913930D01*
X61208920Y-17925680D01*
X61228920Y-17925680D01*
X61228920Y-18179680D01*
X61208920Y-18179680D01*
X61208920Y-19191430D01*
X61367670Y-19350180D01*
X61581596Y-19351250D01*
X61530143Y-24091513D01*
X61476017Y-24135933D01*
X61444389Y-24174472D01*
X59991696Y-25627165D01*
X59953157Y-25658793D01*
X59826943Y-25812586D01*
X59763109Y-25932013D01*
X59733158Y-25988047D01*
X59675405Y-26178432D01*
X59655904Y-26376426D01*
X59660790Y-26426034D01*
X59660791Y-30210956D01*
X59655904Y-30260574D01*
X59668210Y-30385520D01*
X59566558Y-30385520D01*
X59566558Y-30544268D01*
X59407810Y-30385520D01*
X59193560Y-30382448D01*
X59069078Y-30394708D01*
X58949380Y-30431018D01*
X58839066Y-30489983D01*
X58742375Y-30569335D01*
X58663023Y-30666026D01*
X58634529Y-30719333D01*
X58571522Y-30642558D01*
X58436946Y-30532115D01*
X58283410Y-30450048D01*
X58116814Y-30399512D01*
X57943560Y-30382448D01*
X57759988Y-30382448D01*
X58332020Y-29810416D01*
X58370553Y-29778793D01*
X58496767Y-29625000D01*
X58590552Y-29449540D01*
X58648305Y-29259154D01*
X58662920Y-29110768D01*
X58662920Y-29110759D01*
X58667805Y-29061161D01*
X58662920Y-29011563D01*
X58662920Y-25809995D01*
X58675106Y-25669638D01*
X58662956Y-24619620D01*
X58663195Y-24581059D01*
X58694615Y-24619345D01*
X58791306Y-24698697D01*
X58901620Y-24757662D01*
X59021318Y-24793972D01*
X59145800Y-24806232D01*
X59360050Y-24803160D01*
X59518800Y-24644410D01*
X59518800Y-22545160D01*
X59772800Y-22545160D01*
X59772800Y-24644410D01*
X59931550Y-24803160D01*
X60145800Y-24806232D01*
X60270282Y-24793972D01*
X60389980Y-24757662D01*
X60500294Y-24698697D01*
X60596985Y-24619345D01*
X60676337Y-24522654D01*
X60735302Y-24412340D01*
X60771612Y-24292642D01*
X60783872Y-24168160D01*
X60780800Y-22703910D01*
X60622050Y-22545160D01*
X59772800Y-22545160D01*
X59518800Y-22545160D01*
X59498800Y-22545160D01*
X59498800Y-22291160D01*
X59518800Y-22291160D01*
X59518800Y-22271160D01*
X59772800Y-22271160D01*
X59772800Y-22291160D01*
X60622050Y-22291160D01*
X60780800Y-22132410D01*
X60783872Y-20668160D01*
X60771612Y-20543678D01*
X60735302Y-20423980D01*
X60676337Y-20313666D01*
X60596985Y-20216975D01*
X60500294Y-20137623D01*
X60389980Y-20078658D01*
X60270282Y-20042348D01*
X60177115Y-20033172D01*
X60187832Y-19997842D01*
X60200092Y-19873360D01*
X60197490Y-19353174D01*
X60796170Y-19350180D01*
X60954920Y-19191430D01*
X60954920Y-18179680D01*
X60934920Y-18179680D01*
X60934920Y-17925680D01*
X60954920Y-17925680D01*
X60954920Y-16913930D01*
X60796170Y-16755180D01*
X60181920Y-16752108D01*
X60057438Y-16764368D01*
X59937740Y-16800678D01*
X59827426Y-16859643D01*
X59730735Y-16938995D01*
X59651383Y-17035686D01*
X59603745Y-17124809D01*
X59600760Y-17013790D01*
X59442010Y-16855040D01*
X58642760Y-16855040D01*
X58642760Y-16875040D01*
X58388760Y-16875040D01*
X58388760Y-16855040D01*
X57589510Y-16855040D01*
X57430760Y-17013790D01*
X57427688Y-17128040D01*
X57439948Y-17252522D01*
X57476258Y-17372220D01*
X57535223Y-17482534D01*
X57614575Y-17579225D01*
X57711266Y-17658577D01*
X57742333Y-17675183D01*
X57706483Y-17718866D01*
X57647518Y-17829180D01*
X57611208Y-17948878D01*
X57598948Y-18073360D01*
X57602020Y-18687610D01*
X57760770Y-18846360D01*
X58772520Y-18846360D01*
X58772520Y-18826360D01*
X59026520Y-18826360D01*
X59026520Y-18846360D01*
X59046520Y-18846360D01*
X59046520Y-19100360D01*
X59026520Y-19100360D01*
X59026520Y-19120360D01*
X58772520Y-19120360D01*
X58772520Y-19100360D01*
X57760770Y-19100360D01*
X57602020Y-19259110D01*
X57601829Y-19297313D01*
X57255760Y-18951245D01*
X57255760Y-16862635D01*
X57553433Y-16564963D01*
X57589510Y-16601040D01*
X58388760Y-16601040D01*
X58388760Y-16581040D01*
X58642760Y-16581040D01*
X58642760Y-16601040D01*
X59442010Y-16601040D01*
X59600760Y-16442290D01*
X59603832Y-16328040D01*
X59591572Y-16203558D01*
X59555262Y-16083860D01*
X59496297Y-15973546D01*
X59416945Y-15876855D01*
X59369649Y-15838040D01*
X59697186Y-15838040D01*
X59803958Y-15968142D01*
G04 #@! TA.AperFunction,Conductor*
D19*
G36*
X59803958Y-15968142D02*
G01*
X59938533Y-16078585D01*
X60092069Y-16160652D01*
X60258665Y-16211188D01*
X60431919Y-16228252D01*
X61226988Y-16228252D01*
X61362580Y-16760270D01*
X61208920Y-16913930D01*
X61208920Y-17925680D01*
X61228920Y-17925680D01*
X61228920Y-18179680D01*
X61208920Y-18179680D01*
X61208920Y-19191430D01*
X61367670Y-19350180D01*
X61581596Y-19351250D01*
X61530143Y-24091513D01*
X61476017Y-24135933D01*
X61444389Y-24174472D01*
X59991696Y-25627165D01*
X59953157Y-25658793D01*
X59826943Y-25812586D01*
X59763109Y-25932013D01*
X59733158Y-25988047D01*
X59675405Y-26178432D01*
X59655904Y-26376426D01*
X59660790Y-26426034D01*
X59660791Y-30210956D01*
X59655904Y-30260574D01*
X59668210Y-30385520D01*
X59566558Y-30385520D01*
X59566558Y-30544268D01*
X59407810Y-30385520D01*
X59193560Y-30382448D01*
X59069078Y-30394708D01*
X58949380Y-30431018D01*
X58839066Y-30489983D01*
X58742375Y-30569335D01*
X58663023Y-30666026D01*
X58634529Y-30719333D01*
X58571522Y-30642558D01*
X58436946Y-30532115D01*
X58283410Y-30450048D01*
X58116814Y-30399512D01*
X57943560Y-30382448D01*
X57759988Y-30382448D01*
X58332020Y-29810416D01*
X58370553Y-29778793D01*
X58496767Y-29625000D01*
X58590552Y-29449540D01*
X58648305Y-29259154D01*
X58662920Y-29110768D01*
X58662920Y-29110759D01*
X58667805Y-29061161D01*
X58662920Y-29011563D01*
X58662920Y-25809995D01*
X58675106Y-25669638D01*
X58662956Y-24619620D01*
X58663195Y-24581059D01*
X58694615Y-24619345D01*
X58791306Y-24698697D01*
X58901620Y-24757662D01*
X59021318Y-24793972D01*
X59145800Y-24806232D01*
X59360050Y-24803160D01*
X59518800Y-24644410D01*
X59518800Y-22545160D01*
X59772800Y-22545160D01*
X59772800Y-24644410D01*
X59931550Y-24803160D01*
X60145800Y-24806232D01*
X60270282Y-24793972D01*
X60389980Y-24757662D01*
X60500294Y-24698697D01*
X60596985Y-24619345D01*
X60676337Y-24522654D01*
X60735302Y-24412340D01*
X60771612Y-24292642D01*
X60783872Y-24168160D01*
X60780800Y-22703910D01*
X60622050Y-22545160D01*
X59772800Y-22545160D01*
X59518800Y-22545160D01*
X59498800Y-22545160D01*
X59498800Y-22291160D01*
X59518800Y-22291160D01*
X59518800Y-22271160D01*
X59772800Y-22271160D01*
X59772800Y-22291160D01*
X60622050Y-22291160D01*
X60780800Y-22132410D01*
X60783872Y-20668160D01*
X60771612Y-20543678D01*
X60735302Y-20423980D01*
X60676337Y-20313666D01*
X60596985Y-20216975D01*
X60500294Y-20137623D01*
X60389980Y-20078658D01*
X60270282Y-20042348D01*
X60177115Y-20033172D01*
X60187832Y-19997842D01*
X60200092Y-19873360D01*
X60197490Y-19353174D01*
X60796170Y-19350180D01*
X60954920Y-19191430D01*
X60954920Y-18179680D01*
X60934920Y-18179680D01*
X60934920Y-17925680D01*
X60954920Y-17925680D01*
X60954920Y-16913930D01*
X60796170Y-16755180D01*
X60181920Y-16752108D01*
X60057438Y-16764368D01*
X59937740Y-16800678D01*
X59827426Y-16859643D01*
X59730735Y-16938995D01*
X59651383Y-17035686D01*
X59603745Y-17124809D01*
X59600760Y-17013790D01*
X59442010Y-16855040D01*
X58642760Y-16855040D01*
X58642760Y-16875040D01*
X58388760Y-16875040D01*
X58388760Y-16855040D01*
X57589510Y-16855040D01*
X57430760Y-17013790D01*
X57427688Y-17128040D01*
X57439948Y-17252522D01*
X57476258Y-17372220D01*
X57535223Y-17482534D01*
X57614575Y-17579225D01*
X57711266Y-17658577D01*
X57742333Y-17675183D01*
X57706483Y-17718866D01*
X57647518Y-17829180D01*
X57611208Y-17948878D01*
X57598948Y-18073360D01*
X57602020Y-18687610D01*
X57760770Y-18846360D01*
X58772520Y-18846360D01*
X58772520Y-18826360D01*
X59026520Y-18826360D01*
X59026520Y-18846360D01*
X59046520Y-18846360D01*
X59046520Y-19100360D01*
X59026520Y-19100360D01*
X59026520Y-19120360D01*
X58772520Y-19120360D01*
X58772520Y-19100360D01*
X57760770Y-19100360D01*
X57602020Y-19259110D01*
X57601829Y-19297313D01*
X57255760Y-18951245D01*
X57255760Y-16862635D01*
X57553433Y-16564963D01*
X57589510Y-16601040D01*
X58388760Y-16601040D01*
X58388760Y-16581040D01*
X58642760Y-16581040D01*
X58642760Y-16601040D01*
X59442010Y-16601040D01*
X59600760Y-16442290D01*
X59603832Y-16328040D01*
X59591572Y-16203558D01*
X59555262Y-16083860D01*
X59496297Y-15973546D01*
X59416945Y-15876855D01*
X59369649Y-15838040D01*
X59697186Y-15838040D01*
X59803958Y-15968142D01*
G37*
G04 #@! TD.AperFunction*
D18*
X14344980Y-20595982D02*
X14373984Y-20619785D01*
X21471201Y-27717003D01*
X21494999Y-27746001D01*
X21610724Y-27840974D01*
X21742753Y-27911546D01*
X21824873Y-27936456D01*
X21815506Y-27941463D01*
X21718815Y-28020815D01*
X21639463Y-28117506D01*
X21580498Y-28227820D01*
X21544188Y-28347518D01*
X21531928Y-28472000D01*
X21531928Y-28846006D01*
X14274000Y-28579543D01*
X14274000Y-20509492D01*
X14344980Y-20595982D01*
G04 #@! TA.AperFunction,Conductor*
D19*
G36*
X14344980Y-20595982D02*
G01*
X14373984Y-20619785D01*
X21471201Y-27717003D01*
X21494999Y-27746001D01*
X21610724Y-27840974D01*
X21742753Y-27911546D01*
X21824873Y-27936456D01*
X21815506Y-27941463D01*
X21718815Y-28020815D01*
X21639463Y-28117506D01*
X21580498Y-28227820D01*
X21544188Y-28347518D01*
X21531928Y-28472000D01*
X21531928Y-28846006D01*
X14274000Y-28579543D01*
X14274000Y-20509492D01*
X14344980Y-20595982D01*
G37*
G04 #@! TD.AperFunction*
D18*
X22911150Y-21043528D02*
X22757614Y-21125595D01*
X22623038Y-21236038D01*
X22512595Y-21370614D01*
X22430528Y-21524150D01*
X22379992Y-21690746D01*
X22362928Y-21864000D01*
X22362928Y-22664000D01*
X22379992Y-22837254D01*
X22430528Y-23003850D01*
X22512595Y-23157386D01*
X22623038Y-23291962D01*
X22757614Y-23402405D01*
X22904468Y-23480900D01*
X22880774Y-23538102D01*
X22841000Y-23738061D01*
X22841000Y-23941939D01*
X22880774Y-24141898D01*
X22886833Y-24156526D01*
X22757614Y-24225595D01*
X22623038Y-24336038D01*
X22512595Y-24470614D01*
X22430528Y-24624150D01*
X22417083Y-24668472D01*
X21842000Y-24093389D01*
X21842000Y-22988323D01*
X21845676Y-22951000D01*
X21842000Y-22913677D01*
X21842000Y-22913667D01*
X21831003Y-22802014D01*
X21787546Y-22658753D01*
X21781779Y-22647964D01*
X21716974Y-22526723D01*
X21645799Y-22439997D01*
X21622001Y-22410999D01*
X21593003Y-22387201D01*
X20245802Y-21040000D01*
X22922780Y-21040000D01*
X22911150Y-21043528D01*
G04 #@! TA.AperFunction,Conductor*
D19*
G36*
X22911150Y-21043528D02*
G01*
X22757614Y-21125595D01*
X22623038Y-21236038D01*
X22512595Y-21370614D01*
X22430528Y-21524150D01*
X22379992Y-21690746D01*
X22362928Y-21864000D01*
X22362928Y-22664000D01*
X22379992Y-22837254D01*
X22430528Y-23003850D01*
X22512595Y-23157386D01*
X22623038Y-23291962D01*
X22757614Y-23402405D01*
X22904468Y-23480900D01*
X22880774Y-23538102D01*
X22841000Y-23738061D01*
X22841000Y-23941939D01*
X22880774Y-24141898D01*
X22886833Y-24156526D01*
X22757614Y-24225595D01*
X22623038Y-24336038D01*
X22512595Y-24470614D01*
X22430528Y-24624150D01*
X22417083Y-24668472D01*
X21842000Y-24093389D01*
X21842000Y-22988323D01*
X21845676Y-22951000D01*
X21842000Y-22913677D01*
X21842000Y-22913667D01*
X21831003Y-22802014D01*
X21787546Y-22658753D01*
X21781779Y-22647964D01*
X21716974Y-22526723D01*
X21645799Y-22439997D01*
X21622001Y-22410999D01*
X21593003Y-22387201D01*
X20245802Y-21040000D01*
X22922780Y-21040000D01*
X22911150Y-21043528D01*
G37*
G04 #@! TD.AperFunction*
D18*
X20322001Y-23265803D02*
X20322000Y-24370867D01*
X20318324Y-24408190D01*
X20319016Y-24415214D01*
X15644981Y-19741180D01*
X15644981Y-18588782D01*
X20322001Y-23265803D01*
G04 #@! TA.AperFunction,Conductor*
D19*
G36*
X20322001Y-23265803D02*
G01*
X20322000Y-24370867D01*
X20318324Y-24408190D01*
X20319016Y-24415214D01*
X15644981Y-19741180D01*
X15644981Y-18588782D01*
X20322001Y-23265803D01*
G37*
G04 #@! TD.AperFunction*
D18*
X28656776Y-14963869D02*
X28550226Y-15035063D01*
X28406063Y-15179226D01*
X28292795Y-15348744D01*
X28214774Y-15537102D01*
X28175000Y-15737061D01*
X28175000Y-15940939D01*
X28214774Y-16140898D01*
X28292795Y-16329256D01*
X28406063Y-16498774D01*
X28550226Y-16642937D01*
X28719744Y-16756205D01*
X28908102Y-16834226D01*
X29108061Y-16874000D01*
X29311939Y-16874000D01*
X29511898Y-16834226D01*
X29700256Y-16756205D01*
X29869774Y-16642937D01*
X30013937Y-16498774D01*
X30085131Y-16392224D01*
X30445002Y-16032354D01*
X30445001Y-20741643D01*
X30221217Y-20965428D01*
X29601000Y-20965428D01*
X29427746Y-20982492D01*
X29261150Y-21033028D01*
X29225656Y-21052000D01*
X28178344Y-21052000D01*
X28142850Y-21033028D01*
X27976254Y-20982492D01*
X27803000Y-20965428D01*
X26713049Y-20965428D01*
X26713049Y-20149273D01*
X26716725Y-20111950D01*
X26713049Y-20074627D01*
X26713049Y-20074618D01*
X26702052Y-19962965D01*
X26658595Y-19819704D01*
X26588023Y-19687675D01*
X26493050Y-19571950D01*
X26464047Y-19548148D01*
X26234892Y-19318993D01*
X26211089Y-19289989D01*
X26095364Y-19195016D01*
X25963335Y-19124444D01*
X25820074Y-19080987D01*
X25708421Y-19069990D01*
X25708410Y-19069990D01*
X25671088Y-19066314D01*
X25633766Y-19069990D01*
X20815792Y-19069990D01*
X17619800Y-15873999D01*
X18010198Y-15873999D01*
X18015000Y-15878801D01*
X18015000Y-15940939D01*
X18054774Y-16140898D01*
X18132795Y-16329256D01*
X18246063Y-16498774D01*
X18390226Y-16642937D01*
X18559744Y-16756205D01*
X18748102Y-16834226D01*
X18948061Y-16874000D01*
X19151939Y-16874000D01*
X19351898Y-16834226D01*
X19540256Y-16756205D01*
X19709774Y-16642937D01*
X19853937Y-16498774D01*
X19967205Y-16329256D01*
X20045226Y-16140898D01*
X20085000Y-15940939D01*
X20085000Y-15737061D01*
X20045226Y-15537102D01*
X19998373Y-15423989D01*
X22640188Y-15423989D01*
X23095000Y-15878802D01*
X23095000Y-15940939D01*
X23134774Y-16140898D01*
X23212795Y-16329256D01*
X23326063Y-16498774D01*
X23470226Y-16642937D01*
X23639744Y-16756205D01*
X23828102Y-16834226D01*
X24028061Y-16874000D01*
X24231939Y-16874000D01*
X24431898Y-16834226D01*
X24620256Y-16756205D01*
X24789774Y-16642937D01*
X24933937Y-16498774D01*
X25047205Y-16329256D01*
X25125226Y-16140898D01*
X25165000Y-15940939D01*
X25165000Y-15737061D01*
X25125226Y-15537102D01*
X25047205Y-15348744D01*
X24933937Y-15179226D01*
X24789774Y-15035063D01*
X24698355Y-14973979D01*
X24730178Y-14973979D01*
X25635000Y-15878802D01*
X25635000Y-15940939D01*
X25674774Y-16140898D01*
X25752795Y-16329256D01*
X25866063Y-16498774D01*
X26010226Y-16642937D01*
X26179744Y-16756205D01*
X26368102Y-16834226D01*
X26568061Y-16874000D01*
X26771939Y-16874000D01*
X26971898Y-16834226D01*
X27160256Y-16756205D01*
X27329774Y-16642937D01*
X27473937Y-16498774D01*
X27587205Y-16329256D01*
X27665226Y-16140898D01*
X27705000Y-15940939D01*
X27705000Y-15737061D01*
X27665226Y-15537102D01*
X27587205Y-15348744D01*
X27473937Y-15179226D01*
X27329774Y-15035063D01*
X27160256Y-14921795D01*
X26971898Y-14843774D01*
X26771939Y-14804000D01*
X26709802Y-14804000D01*
X26306801Y-14401000D01*
X29219645Y-14401000D01*
X28656776Y-14963869D01*
G04 #@! TA.AperFunction,Conductor*
D19*
G36*
X28656776Y-14963869D02*
G01*
X28550226Y-15035063D01*
X28406063Y-15179226D01*
X28292795Y-15348744D01*
X28214774Y-15537102D01*
X28175000Y-15737061D01*
X28175000Y-15940939D01*
X28214774Y-16140898D01*
X28292795Y-16329256D01*
X28406063Y-16498774D01*
X28550226Y-16642937D01*
X28719744Y-16756205D01*
X28908102Y-16834226D01*
X29108061Y-16874000D01*
X29311939Y-16874000D01*
X29511898Y-16834226D01*
X29700256Y-16756205D01*
X29869774Y-16642937D01*
X30013937Y-16498774D01*
X30085131Y-16392224D01*
X30445002Y-16032354D01*
X30445001Y-20741643D01*
X30221217Y-20965428D01*
X29601000Y-20965428D01*
X29427746Y-20982492D01*
X29261150Y-21033028D01*
X29225656Y-21052000D01*
X28178344Y-21052000D01*
X28142850Y-21033028D01*
X27976254Y-20982492D01*
X27803000Y-20965428D01*
X26713049Y-20965428D01*
X26713049Y-20149273D01*
X26716725Y-20111950D01*
X26713049Y-20074627D01*
X26713049Y-20074618D01*
X26702052Y-19962965D01*
X26658595Y-19819704D01*
X26588023Y-19687675D01*
X26493050Y-19571950D01*
X26464047Y-19548148D01*
X26234892Y-19318993D01*
X26211089Y-19289989D01*
X26095364Y-19195016D01*
X25963335Y-19124444D01*
X25820074Y-19080987D01*
X25708421Y-19069990D01*
X25708410Y-19069990D01*
X25671088Y-19066314D01*
X25633766Y-19069990D01*
X20815792Y-19069990D01*
X17619800Y-15873999D01*
X18010198Y-15873999D01*
X18015000Y-15878801D01*
X18015000Y-15940939D01*
X18054774Y-16140898D01*
X18132795Y-16329256D01*
X18246063Y-16498774D01*
X18390226Y-16642937D01*
X18559744Y-16756205D01*
X18748102Y-16834226D01*
X18948061Y-16874000D01*
X19151939Y-16874000D01*
X19351898Y-16834226D01*
X19540256Y-16756205D01*
X19709774Y-16642937D01*
X19853937Y-16498774D01*
X19967205Y-16329256D01*
X20045226Y-16140898D01*
X20085000Y-15940939D01*
X20085000Y-15737061D01*
X20045226Y-15537102D01*
X19998373Y-15423989D01*
X22640188Y-15423989D01*
X23095000Y-15878802D01*
X23095000Y-15940939D01*
X23134774Y-16140898D01*
X23212795Y-16329256D01*
X23326063Y-16498774D01*
X23470226Y-16642937D01*
X23639744Y-16756205D01*
X23828102Y-16834226D01*
X24028061Y-16874000D01*
X24231939Y-16874000D01*
X24431898Y-16834226D01*
X24620256Y-16756205D01*
X24789774Y-16642937D01*
X24933937Y-16498774D01*
X25047205Y-16329256D01*
X25125226Y-16140898D01*
X25165000Y-15940939D01*
X25165000Y-15737061D01*
X25125226Y-15537102D01*
X25047205Y-15348744D01*
X24933937Y-15179226D01*
X24789774Y-15035063D01*
X24698355Y-14973979D01*
X24730178Y-14973979D01*
X25635000Y-15878802D01*
X25635000Y-15940939D01*
X25674774Y-16140898D01*
X25752795Y-16329256D01*
X25866063Y-16498774D01*
X26010226Y-16642937D01*
X26179744Y-16756205D01*
X26368102Y-16834226D01*
X26568061Y-16874000D01*
X26771939Y-16874000D01*
X26971898Y-16834226D01*
X27160256Y-16756205D01*
X27329774Y-16642937D01*
X27473937Y-16498774D01*
X27587205Y-16329256D01*
X27665226Y-16140898D01*
X27705000Y-15940939D01*
X27705000Y-15737061D01*
X27665226Y-15537102D01*
X27587205Y-15348744D01*
X27473937Y-15179226D01*
X27329774Y-15035063D01*
X27160256Y-14921795D01*
X26971898Y-14843774D01*
X26771939Y-14804000D01*
X26709802Y-14804000D01*
X26306801Y-14401000D01*
X29219645Y-14401000D01*
X28656776Y-14963869D01*
G37*
G04 #@! TD.AperFunction*
M02*
