G04 #@! TF.GenerationSoftware,KiCad,Pcbnew,(5.1.5-0-10_14)*
G04 #@! TF.CreationDate,2021-02-22T05:02:42+00:00*
G04 #@! TF.ProjectId,esp12f-si7021,65737031-3266-42d7-9369-373032312e6b,rev?*
G04 #@! TF.SameCoordinates,Original*
G04 #@! TF.FileFunction,Legend,Bot*
G04 #@! TF.FilePolarity,Positive*
%FSLAX46Y46*%
G04 Gerber Fmt 4.6, Leading zero omitted, Abs format (unit mm)*
G04 Created by KiCad (PCBNEW (5.1.5-0-10_14)) date 2021-02-22 05:02:42*
%MOMM*%
%LPD*%
G04 APERTURE LIST*
%ADD10C,0.100000*%
%ADD11C,0.153000*%
G04 APERTURE END LIST*
D10*
G36*
X49707800Y-46877800D02*
G01*
X13970000Y-46954000D01*
X13970000Y-38318000D01*
X49707800Y-38241800D01*
X49707800Y-46877800D01*
G37*
X49707800Y-46877800D02*
X13970000Y-46954000D01*
X13970000Y-38318000D01*
X49707800Y-38241800D01*
X49707800Y-46877800D01*
D11*
X62531047Y-45390380D02*
X62531047Y-46104666D01*
X62578666Y-46247523D01*
X62673904Y-46342761D01*
X62816761Y-46390380D01*
X62912000Y-46390380D01*
X61578666Y-46390380D02*
X62054857Y-46390380D01*
X62054857Y-45390380D01*
X60673904Y-46295142D02*
X60721523Y-46342761D01*
X60864380Y-46390380D01*
X60959619Y-46390380D01*
X61102476Y-46342761D01*
X61197714Y-46247523D01*
X61245333Y-46152285D01*
X61292952Y-45961809D01*
X61292952Y-45818952D01*
X61245333Y-45628476D01*
X61197714Y-45533238D01*
X61102476Y-45438000D01*
X60959619Y-45390380D01*
X60864380Y-45390380D01*
X60721523Y-45438000D01*
X60673904Y-45485619D01*
X59959619Y-45390380D02*
X59959619Y-46104666D01*
X60007238Y-46247523D01*
X60102476Y-46342761D01*
X60245333Y-46390380D01*
X60340571Y-46390380D01*
X59007238Y-46390380D02*
X59483428Y-46390380D01*
X59483428Y-45390380D01*
X58102476Y-46295142D02*
X58150095Y-46342761D01*
X58292952Y-46390380D01*
X58388190Y-46390380D01*
X58531047Y-46342761D01*
X58626285Y-46247523D01*
X58673904Y-46152285D01*
X58721523Y-45961809D01*
X58721523Y-45818952D01*
X58673904Y-45628476D01*
X58626285Y-45533238D01*
X58531047Y-45438000D01*
X58388190Y-45390380D01*
X58292952Y-45390380D01*
X58150095Y-45438000D01*
X58102476Y-45485619D01*
X57388190Y-45390380D02*
X57388190Y-46104666D01*
X57435809Y-46247523D01*
X57531047Y-46342761D01*
X57673904Y-46390380D01*
X57769142Y-46390380D01*
X56435809Y-46390380D02*
X56912000Y-46390380D01*
X56912000Y-45390380D01*
X55531047Y-46295142D02*
X55578666Y-46342761D01*
X55721523Y-46390380D01*
X55816761Y-46390380D01*
X55959619Y-46342761D01*
X56054857Y-46247523D01*
X56102476Y-46152285D01*
X56150095Y-45961809D01*
X56150095Y-45818952D01*
X56102476Y-45628476D01*
X56054857Y-45533238D01*
X55959619Y-45438000D01*
X55816761Y-45390380D01*
X55721523Y-45390380D01*
X55578666Y-45438000D01*
X55531047Y-45485619D01*
X54816761Y-45390380D02*
X54816761Y-46104666D01*
X54864380Y-46247523D01*
X54959619Y-46342761D01*
X55102476Y-46390380D01*
X55197714Y-46390380D01*
X53864380Y-46390380D02*
X54340571Y-46390380D01*
X54340571Y-45390380D01*
X52959619Y-46295142D02*
X53007238Y-46342761D01*
X53150095Y-46390380D01*
X53245333Y-46390380D01*
X53388190Y-46342761D01*
X53483428Y-46247523D01*
X53531047Y-46152285D01*
X53578666Y-45961809D01*
X53578666Y-45818952D01*
X53531047Y-45628476D01*
X53483428Y-45533238D01*
X53388190Y-45438000D01*
X53245333Y-45390380D01*
X53150095Y-45390380D01*
X53007238Y-45438000D01*
X52959619Y-45485619D01*
M02*
