M48
; DRILL file {KiCad (5.1.5-0-10_14)} date Monday, 22 February 2021 at 04:56:22
; FORMAT={-:-/ absolute / inch / decimal}
; #@! TF.CreationDate,2021-02-22T04:56:22+00:00
; #@! TF.GenerationSoftware,Kicad,Pcbnew,(5.1.5-0-10_14)
; #@! TF.FileFunction,Plated,1,2,PTH
FMAT,2
INCH
T1C0.0157
%
G90
G05
T1
X0.599Y-0.9374
X0.602Y-1.8306
X0.611Y-0.6186
X0.8078Y-1.835
X0.9076Y-0.7756
X0.913Y-0.6096
X0.927Y-1.5066
X0.935Y-1.2886
X1.0326Y-1.394
X1.046Y-1.6346
X1.0576Y-0.8288
X1.1272Y-1.4958
X1.135Y-1.2976
X1.1814Y-0.6054
X1.2015Y-0.8314
X1.2142Y-1.6394
X1.2264Y-1.2894
X1.2284Y-1.4958
X1.304Y-1.6346
X1.317Y-1.3286
X1.3862Y-1.4048
X1.5302Y-1.1367
X1.5364Y-0.9316
X1.538Y-1.0446
X1.5574Y-1.8342
X1.595Y-0.8516
X1.6372Y-1.1854
X1.6432Y-1.0284
X1.6456Y-0.9258
X1.754Y-0.8466
X1.7686Y-0.9232
X1.798Y-1.6336
X1.824Y-1.3536
X1.881Y-0.6156
X1.882Y-0.7836
X1.916Y-1.0976
X1.921Y-0.9376
X2.0288Y-0.8488
X2.0288Y-0.9596
X2.0652Y-1.6394
X2.0712Y-1.8492
X2.0742Y-1.318
X2.0874Y-0.647
X2.1796Y-0.8928
X2.2714Y-1.4228
X2.2902Y-1.5736
X2.2964Y-1.8014
X2.4024Y-0.7872
X2.4122Y-0.8928
X2.4452Y-1.304
X2.4528Y-1.7292
T0
M30
